solid Mesh
  facet normal 0 0 1
    outer loop
      vertex -2.4 4.5 25
      vertex -5.5 4.5 25
      vertex -2.4 3.5 25
    endloop
  endfacet
  facet normal 0 0 1
    outer loop
      vertex -5.5 4.5 25
      vertex -5.5 3.5 25
      vertex -2.4 3.5 25
    endloop
  endfacet
  facet normal 1 0 0
    outer loop
      vertex -2.4 4.5 25
      vertex -2.4 3.5 25
      vertex -2.4 4.5 20
    endloop
  endfacet
  facet normal 1 0 0
    outer loop
      vertex -2.4 3.5 25
      vertex -2.4 3.5 20
      vertex -2.4 4.5 20
    endloop
  endfacet
  facet normal 0 0 1
    outer loop
      vertex 5.5 4.5 25
      vertex 2.4 4.5 25
      vertex 5.5 3.5 25
    endloop
  endfacet
  facet normal 0 0 1
    outer loop
      vertex 2.4 4.5 25
      vertex 2.4 3.5 25
      vertex 5.5 3.5 25
    endloop
  endfacet
  facet normal 0 0 1
    outer loop
      vertex 2.4 -5.5 25
      vertex 5.5 -5.5 25
      vertex 2.4 -4.5 25
    endloop
  endfacet
  facet normal 0 0 1
    outer loop
      vertex 5.5 -5.5 25
      vertex 5.5 -4.5 25
      vertex 2.4 -4.5 25
    endloop
  endfacet
  facet normal -1 0 0
    outer loop
      vertex 2.4 -5.5 25
      vertex 2.4 -4.5 25
      vertex 2.4 -5.5 20
    endloop
  endfacet
  facet normal -1 0 0
    outer loop
      vertex 2.4 -4.5 25
      vertex 2.4 -4.5 20
      vertex 2.4 -5.5 20
    endloop
  endfacet
  facet normal 0 0 1
    outer loop
      vertex -2.4 -4.5 20
      vertex -2.4 -5.5 20
      vertex 2.4 -4.5 20
    endloop
  endfacet
  facet normal 0 0 1
    outer loop
      vertex -2.4 -5.5 20
      vertex 2.4 -5.5 20
      vertex 2.4 -4.5 20
    endloop
  endfacet
  facet normal -1 0 0
    outer loop
      vertex -5.5 -5.5 25
      vertex -5.5 -4.5 25
      vertex -5.5 -4.5 20
    endloop
  endfacet
  facet normal -1 0 0
    outer loop
      vertex -5.5 3.5 25
      vertex -5.5 4.5 25
      vertex -5.5 3.5 20
    endloop
  endfacet
  facet normal -1 0 0
    outer loop
      vertex -5.5 4.5 25
      vertex -5.5 4.5 0
      vertex -5.5 3.5 20
    endloop
  endfacet
  facet normal -1 0 0
    outer loop
      vertex -5.5 3.5 20
      vertex -5.5 4.5 0
      vertex -5.5 -4.5 20
    endloop
  endfacet
  facet normal -1 0 0
    outer loop
      vertex -5.5 4.5 0
      vertex -5.5 -5.5 0
      vertex -5.5 -4.5 20
    endloop
  endfacet
  facet normal -1 0 0
    outer loop
      vertex -5.5 -4.5 20
      vertex -5.5 -5.5 0
      vertex -5.5 -5.5 25
    endloop
  endfacet
  facet normal 0 0 1
    outer loop
      vertex 4.5 -4.5 20
      vertex 5.5 -4.5 20
      vertex 4.5 3.5 20
    endloop
  endfacet
  facet normal 0 0 1
    outer loop
      vertex 5.5 -4.5 20
      vertex 5.5 3.5 20
      vertex 4.5 3.5 20
    endloop
  endfacet
  facet normal 1 0 0
    outer loop
      vertex -4.5 3.5 20
      vertex -4.5 -4.5 20
      vertex -4.5 3.5 1
    endloop
  endfacet
  facet normal 1 0 0
    outer loop
      vertex -4.5 -4.5 20
      vertex -4.5 -4.5 1
      vertex -4.5 3.5 1
    endloop
  endfacet
  facet normal 0 0 1
    outer loop
      vertex -5.5 3.5 20
      vertex -5.5 -4.5 20
      vertex -4.5 3.5 20
    endloop
  endfacet
  facet normal 0 0 1
    outer loop
      vertex -5.5 -4.5 20
      vertex -4.5 -4.5 20
      vertex -4.5 3.5 20
    endloop
  endfacet
  facet normal 0 1 0
    outer loop
      vertex -5.5 4.5 25
      vertex -2.4 4.5 25
      vertex -2.4 4.5 20
    endloop
  endfacet
  facet normal 0 1 0
    outer loop
      vertex 2.4 4.5 25
      vertex 5.5 4.5 25
      vertex 2.4 4.5 20
    endloop
  endfacet
  facet normal 0 1 0
    outer loop
      vertex 5.5 4.5 25
      vertex 5.5 4.5 0
      vertex 2.4 4.5 20
    endloop
  endfacet
  facet normal 0 1 0
    outer loop
      vertex 2.4 4.5 20
      vertex 5.5 4.5 0
      vertex -2.4 4.5 20
    endloop
  endfacet
  facet normal 0 1 0
    outer loop
      vertex 5.5 4.5 0
      vertex -5.5 4.5 0
      vertex -2.4 4.5 20
    endloop
  endfacet
  facet normal 0 1 0
    outer loop
      vertex -2.4 4.5 20
      vertex -5.5 4.5 0
      vertex -5.5 4.5 25
    endloop
  endfacet
  facet normal -1 0 0
    outer loop
      vertex 2.4 3.5 25
      vertex 2.4 4.5 25
      vertex 2.4 3.5 20
    endloop
  endfacet
  facet normal -1 0 0
    outer loop
      vertex 2.4 4.5 25
      vertex 2.4 4.5 20
      vertex 2.4 3.5 20
    endloop
  endfacet
  facet normal 0 0 1
    outer loop
      vertex -4.5 -4.5 1
      vertex 4.5 -4.5 1
      vertex -4.5 3.5 1
    endloop
  endfacet
  facet normal 0 0 1
    outer loop
      vertex 4.5 -4.5 1
      vertex 4.5 3.5 1
      vertex -4.5 3.5 1
    endloop
  endfacet
  facet normal 0 -1 0
    outer loop
      vertex 5.5 -5.5 25
      vertex 2.4 -5.5 25
      vertex 2.4 -5.5 20
    endloop
  endfacet
  facet normal 0 -1 0
    outer loop
      vertex -2.4 -5.5 25
      vertex -5.5 -5.5 25
      vertex -2.4 -5.5 20
    endloop
  endfacet
  facet normal 0 -1 0
    outer loop
      vertex -5.5 -5.5 25
      vertex -5.5 -5.5 0
      vertex -2.4 -5.5 20
    endloop
  endfacet
  facet normal 0 -1 0
    outer loop
      vertex -2.4 -5.5 20
      vertex -5.5 -5.5 0
      vertex 2.4 -5.5 20
    endloop
  endfacet
  facet normal 0 -1 0
    outer loop
      vertex -5.5 -5.5 0
      vertex 5.5 -5.5 0
      vertex 2.4 -5.5 20
    endloop
  endfacet
  facet normal 0 -1 0
    outer loop
      vertex 2.4 -5.5 20
      vertex 5.5 -5.5 0
      vertex 5.5 -5.5 25
    endloop
  endfacet
  facet normal 1 0 0
    outer loop
      vertex 5.5 4.5 25
      vertex 5.5 3.5 25
      vertex 5.5 3.5 20
    endloop
  endfacet
  facet normal 1 0 0
    outer loop
      vertex 5.5 -4.5 25
      vertex 5.5 -5.5 25
      vertex 5.5 -4.5 20
    endloop
  endfacet
  facet normal 1 0 0
    outer loop
      vertex 5.5 -5.5 25
      vertex 5.5 -5.5 0
      vertex 5.5 -4.5 20
    endloop
  endfacet
  facet normal 1 0 0
    outer loop
      vertex 5.5 -4.5 20
      vertex 5.5 -5.5 0
      vertex 5.5 3.5 20
    endloop
  endfacet
  facet normal 1 0 0
    outer loop
      vertex 5.5 -5.5 0
      vertex 5.5 4.5 0
      vertex 5.5 3.5 20
    endloop
  endfacet
  facet normal 1 0 0
    outer loop
      vertex 5.5 3.5 20
      vertex 5.5 4.5 0
      vertex 5.5 4.5 25
    endloop
  endfacet
  facet normal 0 -1 0
    outer loop
      vertex 5.5 3.5 20
      vertex 5.5 3.5 25
      vertex 4.5 3.5 20
    endloop
  endfacet
  facet normal 0 -1 0
    outer loop
      vertex 5.5 3.5 25
      vertex 2.4 3.5 25
      vertex 4.5 3.5 20
    endloop
  endfacet
  facet normal 0 -1 0
    outer loop
      vertex 4.5 3.5 20
      vertex 2.4 3.5 25
      vertex 2.4 3.5 20
    endloop
  endfacet
  facet normal 0 -1 0
    outer loop
      vertex -5.5 3.5 25
      vertex -5.5 3.5 20
      vertex -2.4 3.5 25
    endloop
  endfacet
  facet normal 0 -1 0
    outer loop
      vertex -5.5 3.5 20
      vertex -4.5 3.5 20
      vertex -2.4 3.5 25
    endloop
  endfacet
  facet normal 0 -1 0
    outer loop
      vertex -2.4 3.5 25
      vertex -4.5 3.5 20
      vertex -2.4 3.5 20
    endloop
  endfacet
  facet normal 0 -1 0
    outer loop
      vertex -4.5 3.5 20
      vertex -4.5 3.5 1
      vertex -2.4 3.5 20
    endloop
  endfacet
  facet normal 0 -1 0
    outer loop
      vertex -2.4 3.5 20
      vertex -4.5 3.5 1
      vertex 2.4 3.5 20
    endloop
  endfacet
  facet normal 0 -1 0
    outer loop
      vertex -4.5 3.5 1
      vertex 4.5 3.5 1
      vertex 2.4 3.5 20
    endloop
  endfacet
  facet normal 0 -1 0
    outer loop
      vertex 2.4 3.5 20
      vertex 4.5 3.5 1
      vertex 4.5 3.5 20
    endloop
  endfacet
  facet normal 0 0 1
    outer loop
      vertex -5.5 -5.5 25
      vertex -2.4 -5.5 25
      vertex -5.5 -4.5 25
    endloop
  endfacet
  facet normal 0 0 1
    outer loop
      vertex -2.4 -5.5 25
      vertex -2.4 -4.5 25
      vertex -5.5 -4.5 25
    endloop
  endfacet
  facet normal 0 1 0
    outer loop
      vertex -5.5 -4.5 20
      vertex -5.5 -4.5 25
      vertex -4.5 -4.5 20
    endloop
  endfacet
  facet normal 0 1 0
    outer loop
      vertex -5.5 -4.5 25
      vertex -2.4 -4.5 25
      vertex -4.5 -4.5 20
    endloop
  endfacet
  facet normal 0 1 0
    outer loop
      vertex -4.5 -4.5 20
      vertex -2.4 -4.5 25
      vertex -2.4 -4.5 20
    endloop
  endfacet
  facet normal 0 1 0
    outer loop
      vertex 5.5 -4.5 25
      vertex 5.5 -4.5 20
      vertex 2.4 -4.5 25
    endloop
  endfacet
  facet normal 0 1 0
    outer loop
      vertex 5.5 -4.5 20
      vertex 4.5 -4.5 20
      vertex 2.4 -4.5 25
    endloop
  endfacet
  facet normal 0 1 0
    outer loop
      vertex 2.4 -4.5 25
      vertex 4.5 -4.5 20
      vertex 2.4 -4.5 20
    endloop
  endfacet
  facet normal 0 1 0
    outer loop
      vertex 4.5 -4.5 20
      vertex 4.5 -4.5 1
      vertex 2.4 -4.5 20
    endloop
  endfacet
  facet normal 0 1 0
    outer loop
      vertex 2.4 -4.5 20
      vertex 4.5 -4.5 1
      vertex -2.4 -4.5 20
    endloop
  endfacet
  facet normal 0 1 0
    outer loop
      vertex 4.5 -4.5 1
      vertex -4.5 -4.5 1
      vertex -2.4 -4.5 20
    endloop
  endfacet
  facet normal 0 1 0
    outer loop
      vertex -2.4 -4.5 20
      vertex -4.5 -4.5 1
      vertex -4.5 -4.5 20
    endloop
  endfacet
  facet normal 0 0 1
    outer loop
      vertex 2.4 3.5 20
      vertex 2.4 4.5 20
      vertex -2.4 3.5 20
    endloop
  endfacet
  facet normal 0 0 1
    outer loop
      vertex 2.4 4.5 20
      vertex -2.4 4.5 20
      vertex -2.4 3.5 20
    endloop
  endfacet
  facet normal 1 0 0
    outer loop
      vertex -2.4 -4.5 25
      vertex -2.4 -5.5 25
      vertex -2.4 -4.5 20
    endloop
  endfacet
  facet normal 1 0 0
    outer loop
      vertex -2.4 -5.5 25
      vertex -2.4 -5.5 20
      vertex -2.4 -4.5 20
    endloop
  endfacet
  facet normal 0 0 -1
    outer loop
      vertex 5.5 -5.5 0
      vertex -5.5 -5.5 0
      vertex 5.5 4.5 0
    endloop
  endfacet
  facet normal 0 0 -1
    outer loop
      vertex -5.5 -5.5 0
      vertex -5.5 4.5 0
      vertex 5.5 4.5 0
    endloop
  endfacet
  facet normal -1 0 0
    outer loop
      vertex 4.5 -4.5 20
      vertex 4.5 3.5 20
      vertex 4.5 -4.5 1
    endloop
  endfacet
  facet normal -1 0 0
    outer loop
      vertex 4.5 3.5 20
      vertex 4.5 3.5 1
      vertex 4.5 -4.5 1
    endloop
  endfacet
endsolid Mesh
