solid Mesh
  facet normal 0 0 1
    outer loop
      vertex -2.42265 2 0.5
      vertex -1.57735 2 0.5
      vertex -3 3 0.5
    endloop
  endfacet
  facet normal 0 0 1
    outer loop
      vertex -1.57735 2 0.5
      vertex -1 3 0.5
      vertex -3 3 0.5
    endloop
  endfacet
  facet normal 0.866025 0.5 0
    outer loop
      vertex -3 3 3
      vertex -2.42265 2 3
      vertex -3 3 0.5
    endloop
  endfacet
  facet normal 0.866025 0.5 0
    outer loop
      vertex -2.42265 2 3
      vertex -2.42265 2 0.5
      vertex -3 3 0.5
    endloop
  endfacet
  facet normal -0.866025 0.5 0
    outer loop
      vertex -1 3 3
      vertex -1 3 0.5
      vertex -1.57735 2 3
    endloop
  endfacet
  facet normal -0.866025 0.5 0
    outer loop
      vertex -1 3 0.5
      vertex -1.57735 2 0.5
      vertex -1.57735 2 3
    endloop
  endfacet
  facet normal 0 1 0
    outer loop
      vertex -1.57735 2 3
      vertex -1.57735 2 0.5
      vertex -2.42265 2 3
    endloop
  endfacet
  facet normal 0 1 0
    outer loop
      vertex -1.57735 2 0.5
      vertex -2.42265 2 0.5
      vertex -2.42265 2 3
    endloop
  endfacet
  facet normal 0 0 1
    outer loop
      vertex -1 -3 0.5
      vertex -1.57735 -2 0.5
      vertex -3 -3 0.5
    endloop
  endfacet
  facet normal 0 0 1
    outer loop
      vertex -1.57735 -2 0.5
      vertex -2.42265 -2 0.5
      vertex -3 -3 0.5
    endloop
  endfacet
  facet normal 0.866025 -0.5 0
    outer loop
      vertex -3 -3 3
      vertex -3 -3 0.5
      vertex -2.42265 -2 3
    endloop
  endfacet
  facet normal 0.866025 -0.5 0
    outer loop
      vertex -3 -3 0.5
      vertex -2.42265 -2 0.5
      vertex -2.42265 -2 3
    endloop
  endfacet
  facet normal 0 -1 0
    outer loop
      vertex -2.42265 -2 3
      vertex -2.42265 -2 0.5
      vertex -1.57735 -2 3
    endloop
  endfacet
  facet normal 0 -1 0
    outer loop
      vertex -2.42265 -2 0.5
      vertex -1.57735 -2 0.5
      vertex -1.57735 -2 3
    endloop
  endfacet
  facet normal -0.866025 -0.5 0
    outer loop
      vertex -1.57735 -2 3
      vertex -1.57735 -2 0.5
      vertex -1 -3 3
    endloop
  endfacet
  facet normal -0.866025 -0.5 0
    outer loop
      vertex -1.57735 -2 0.5
      vertex -1 -3 0.5
      vertex -1 -3 3
    endloop
  endfacet
  facet normal 0 0 1
    outer loop
      vertex 3 -3 0.5
      vertex 2.42265 -2 0.5
      vertex 1 -3 0.5
    endloop
  endfacet
  facet normal 0 0 1
    outer loop
      vertex 2.42265 -2 0.5
      vertex 1.57735 -2 0.5
      vertex 1 -3 0.5
    endloop
  endfacet
  facet normal 0.866025 -0.5 0
    outer loop
      vertex 1 -3 3
      vertex 1 -3 0.5
      vertex 1.57735 -2 3
    endloop
  endfacet
  facet normal 0.866025 -0.5 0
    outer loop
      vertex 1 -3 0.5
      vertex 1.57735 -2 0.5
      vertex 1.57735 -2 3
    endloop
  endfacet
  facet normal 0 1 0
    outer loop
      vertex -4.5 3 0
      vertex -4.5 3 3
      vertex -3 3 3
    endloop
  endfacet
  facet normal 0 1 0
    outer loop
      vertex -3 3 3
      vertex -3 3 0.5
      vertex -4.5 3 0
    endloop
  endfacet
  facet normal 0 1 0
    outer loop
      vertex -3 3 0.5
      vertex -1 3 0.5
      vertex -4.5 3 0
    endloop
  endfacet
  facet normal 0 1 0
    outer loop
      vertex -4.5 3 0
      vertex -1 3 0.5
      vertex 4.5 3 0
    endloop
  endfacet
  facet normal 0 1 0
    outer loop
      vertex 3 3 3
      vertex 4.5 3 3
      vertex 3 3 0.5
    endloop
  endfacet
  facet normal 0 1 0
    outer loop
      vertex 4.5 3 3
      vertex 4.5 3 0
      vertex 3 3 0.5
    endloop
  endfacet
  facet normal 0 1 0
    outer loop
      vertex 3 3 0.5
      vertex 4.5 3 0
      vertex 1 3 0.5
    endloop
  endfacet
  facet normal 0 1 0
    outer loop
      vertex 4.5 3 0
      vertex -1 3 0.5
      vertex 1 3 0.5
    endloop
  endfacet
  facet normal 0 1 0
    outer loop
      vertex 1 3 0.5
      vertex -1 3 0.5
      vertex 1 3 3
    endloop
  endfacet
  facet normal 0 1 0
    outer loop
      vertex -1 3 0.5
      vertex -1 3 3
      vertex 1 3 3
    endloop
  endfacet
  facet normal 0 -1 0
    outer loop
      vertex -3 -3 3
      vertex -4.5 -3 3
      vertex -3 -3 0.5
    endloop
  endfacet
  facet normal 0 -1 0
    outer loop
      vertex -4.5 -3 3
      vertex -4.5 -3 0
      vertex -3 -3 0.5
    endloop
  endfacet
  facet normal 0 -1 0
    outer loop
      vertex -3 -3 0.5
      vertex -4.5 -3 0
      vertex -1 -3 0.5
    endloop
  endfacet
  facet normal 0 -1 0
    outer loop
      vertex 4.5 -3 3
      vertex 3 -3 3
      vertex 4.5 -3 0
    endloop
  endfacet
  facet normal 0 -1 0
    outer loop
      vertex 3 -3 3
      vertex 3 -3 0.5
      vertex 4.5 -3 0
    endloop
  endfacet
  facet normal 0 -1 0
    outer loop
      vertex 4.5 -3 0
      vertex 3 -3 0.5
      vertex 1 -3 0.5
    endloop
  endfacet
  facet normal 0 -1 0
    outer loop
      vertex 1 -3 3
      vertex -1 -3 3
      vertex 1 -3 0.5
    endloop
  endfacet
  facet normal 0 -1 0
    outer loop
      vertex -1 -3 3
      vertex -1 -3 0.5
      vertex 1 -3 0.5
    endloop
  endfacet
  facet normal 0 -1 0
    outer loop
      vertex 1 -3 0.5
      vertex -1 -3 0.5
      vertex 4.5 -3 0
    endloop
  endfacet
  facet normal 0 -1 0
    outer loop
      vertex -1 -3 0.5
      vertex -4.5 -3 0
      vertex 4.5 -3 0
    endloop
  endfacet
  facet normal 0 0 -1
    outer loop
      vertex 1.99707 0.407904 0
      vertex 2.18105 0.469893 0
      vertex 4.5 -3 0
    endloop
  endfacet
  facet normal 0 0 -1
    outer loop
      vertex 2.18105 0.469893 0
      vertex 2.3356 0.58738 0
      vertex 4.5 -3 0
    endloop
  endfacet
  facet normal 0 0 -1
    outer loop
      vertex 1.80293 0.407904 0
      vertex 1.99707 0.407904 0
      vertex 1.36859 0.0915809 0
    endloop
  endfacet
  facet normal 0 0 -1
    outer loop
      vertex -0.255455 -0.351933 0
      vertex 0.203517 -0.164871 0
      vertex -0.364403 -0.51262 0
    endloop
  endfacet
  facet normal 0 0 -1
    outer loop
      vertex 0.203517 -0.164871 0
      vertex -0.518955 -0.630107 0
      vertex -0.364403 -0.51262 0
    endloop
  endfacet
  facet normal 0 0 -1
    outer loop
      vertex 2.46859 1.19158 0
      vertex 2.37766 1.3631 0
      vertex 4.5 3 0
    endloop
  endfacet
  facet normal 0 0 -1
    outer loop
      vertex 2.37766 1.3631 0
      vertex 2.23671 1.49661 0
      vertex 4.5 3 0
    endloop
  endfacet
  facet normal 0 0 -1
    outer loop
      vertex 4.5 3 0
      vertex 2.23671 1.49661 0
      vertex 2.06052 1.57813 0
    endloop
  endfacet
  facet normal 0 0 -1
    outer loop
      vertex -1.33141 1.19158 0
      vertex -1.42234 1.3631 0
      vertex 1.31403 1.12898 0
    endloop
  endfacet
  facet normal 0 0 -1
    outer loop
      vertex 4.5 3 0
      vertex -1.73948 1.57813 0
      vertex -4.5 3 0
    endloop
  endfacet
  facet normal 0 0 -1
    outer loop
      vertex -1.73948 1.57813 0
      vertex -1.93248 1.59912 0
      vertex -4.5 3 0
    endloop
  endfacet
  facet normal 0 0 -1
    outer loop
      vertex -4.5 3 0
      vertex -1.93248 1.59912 0
      vertex -2.12208 1.55739 0
    endloop
  endfacet
  facet normal 0 0 -1
    outer loop
      vertex -1.80293 0.407904 0
      vertex -1.61895 0.469893 0
      vertex 1.30352 0.935129 0
    endloop
  endfacet
  facet normal 0 0 -1
    outer loop
      vertex -1.61895 0.469893 0
      vertex -1.4644 0.58738 0
      vertex 1.30352 0.935129 0
    endloop
  endfacet
  facet normal 0 0 -1
    outer loop
      vertex 1.13671 0.396613 0
      vertex 0.960517 0.47813 0
      vertex 1.30352 0.935129 0
    endloop
  endfacet
  facet normal 0 0 -1
    outer loop
      vertex -1.42234 1.3631 0
      vertex -1.56329 1.49661 0
      vertex 1.31403 1.12898 0
    endloop
  endfacet
  facet normal 0 0 -1
    outer loop
      vertex -1.56329 1.49661 0
      vertex -1.73948 1.57813 0
      vertex 1.31403 1.12898 0
    endloop
  endfacet
  facet normal 0 0 -1
    outer loop
      vertex 1.31403 1.12898 0
      vertex -1.73948 1.57813 0
      vertex 1.38589 1.30933 0
    endloop
  endfacet
  facet normal 0 0 -1
    outer loop
      vertex -1.73948 1.57813 0
      vertex 1.51157 1.4573 0
      vertex 1.38589 1.30933 0
    endloop
  endfacet
  facet normal 0 0 -1
    outer loop
      vertex -2.12208 1.55739 0
      vertex -2.23671 1.49661 0
      vertex -4.5 3 0
    endloop
  endfacet
  facet normal 0 0 -1
    outer loop
      vertex -2.23671 1.49661 0
      vertex -2.28843 1.4573 0
      vertex -4.5 3 0
    endloop
  endfacet
  facet normal 0 0 -1
    outer loop
      vertex -4.5 3 0
      vertex -2.28843 1.4573 0
      vertex -2.41411 1.30933 0
    endloop
  endfacet
  facet normal 0 0 -1
    outer loop
      vertex -2.41411 1.30933 0
      vertex -2.48597 1.12898 0
      vertex -4.5 3 0
    endloop
  endfacet
  facet normal 0 0 -1
    outer loop
      vertex -2.48597 1.12898 0
      vertex -2.49648 0.935129 0
      vertex -4.5 3 0
    endloop
  endfacet
  facet normal 0 0 -1
    outer loop
      vertex -4.5 3 0
      vertex -2.49648 0.935129 0
      vertex -4.5 -3 0
    endloop
  endfacet
  facet normal 0 0 -1
    outer loop
      vertex -2.49648 0.935129 0
      vertex -2.44455 0.748067 0
      vertex -4.5 -3 0
    endloop
  endfacet
  facet normal 0 0 -1
    outer loop
      vertex -4.5 -3 0
      vertex -2.44455 0.748067 0
      vertex -2.3356 0.58738 0
    endloop
  endfacet
  facet normal 0 0 -1
    outer loop
      vertex -1.34455 -0.351933 0
      vertex -1.2356 -0.51262 0
      vertex -4.5 -3 0
    endloop
  endfacet
  facet normal 0 0 -1
    outer loop
      vertex -1.2356 -0.51262 0
      vertex -1.13671 -0.596613 0
      vertex -4.5 -3 0
    endloop
  endfacet
  facet normal 0 0 -1
    outer loop
      vertex 0.411568 0.357297 0
      vertex 0.285886 0.209332 0
      vertex -0.463288 0.396613 0
    endloop
  endfacet
  facet normal 0 0 -1
    outer loop
      vertex 2.3356 0.58738 0
      vertex 2.44455 0.748067 0
      vertex 4.5 -3 0
    endloop
  endfacet
  facet normal 0 0 -1
    outer loop
      vertex 2.44455 0.748067 0
      vertex 2.49648 0.935129 0
      vertex 4.5 -3 0
    endloop
  endfacet
  facet normal 0 0 -1
    outer loop
      vertex 4.5 -3 0
      vertex 2.49648 0.935129 0
      vertex 4.5 3 0
    endloop
  endfacet
  facet normal 0 0 -1
    outer loop
      vertex 2.49648 0.935129 0
      vertex 2.5 1 0
      vertex 4.5 3 0
    endloop
  endfacet
  facet normal 0 0 -1
    outer loop
      vertex 4.5 3 0
      vertex 2.5 1 0
      vertex 2.46859 1.19158 0
    endloop
  endfacet
  facet normal 0 0 -1
    outer loop
      vertex -1.4644 0.58738 0
      vertex -1.35545 0.748067 0
      vertex 1.30352 0.935129 0
    endloop
  endfacet
  facet normal 0 0 -1
    outer loop
      vertex -1.35545 0.748067 0
      vertex -1.30352 0.935129 0
      vertex 1.30352 0.935129 0
    endloop
  endfacet
  facet normal 0 0 -1
    outer loop
      vertex 1.30352 0.935129 0
      vertex -1.30352 0.935129 0
      vertex 1.31403 1.12898 0
    endloop
  endfacet
  facet normal 0 0 -1
    outer loop
      vertex -1.30352 0.935129 0
      vertex -1.3 1 0
      vertex 1.31403 1.12898 0
    endloop
  endfacet
  facet normal 0 0 -1
    outer loop
      vertex 1.31403 1.12898 0
      vertex -1.3 1 0
      vertex -1.33141 1.19158 0
    endloop
  endfacet
  facet normal 0 0 -1
    outer loop
      vertex -2.3356 0.58738 0
      vertex -2.23671 0.503387 0
      vertex -4.5 -3 0
    endloop
  endfacet
  facet normal 0 0 -1
    outer loop
      vertex -2.23671 0.503387 0
      vertex -2.18105 0.469893 0
      vertex -4.5 -3 0
    endloop
  endfacet
  facet normal 0 0 -1
    outer loop
      vertex -4.5 -3 0
      vertex -2.18105 0.469893 0
      vertex -1.99707 0.407904 0
    endloop
  endfacet
  facet normal 0 0 -1
    outer loop
      vertex 2.06052 1.57813 0
      vertex 1.86752 1.59912 0
      vertex 4.5 3 0
    endloop
  endfacet
  facet normal 0 0 -1
    outer loop
      vertex 1.86752 1.59912 0
      vertex 1.67792 1.55739 0
      vertex 4.5 3 0
    endloop
  endfacet
  facet normal 0 0 -1
    outer loop
      vertex 4.5 3 0
      vertex 1.67792 1.55739 0
      vertex -1.73948 1.57813 0
    endloop
  endfacet
  facet normal 0 0 -1
    outer loop
      vertex 1.67792 1.55739 0
      vertex 1.56329 1.49661 0
      vertex -1.73948 1.57813 0
    endloop
  endfacet
  facet normal 0 0 -1
    outer loop
      vertex -1.73948 1.57813 0
      vertex 1.56329 1.49661 0
      vertex 1.51157 1.4573 0
    endloop
  endfacet
  facet normal 0 0 -1
    outer loop
      vertex 0.203517 -0.164871 0
      vertex 0.255455 -0.351933 0
      vertex -0.518955 -0.630107 0
    endloop
  endfacet
  facet normal 0 0 -1
    outer loop
      vertex 0.255455 -0.351933 0
      vertex 0.364403 -0.51262 0
      vertex -0.518955 -0.630107 0
    endloop
  endfacet
  facet normal 0 0 -1
    outer loop
      vertex -0.518955 -0.630107 0
      vertex 0.364403 -0.51262 0
      vertex -0.702931 -0.692096 0
    endloop
  endfacet
  facet normal 0 0 -1
    outer loop
      vertex 0.364403 -0.51262 0
      vertex 0.463288 -0.596613 0
      vertex -0.702931 -0.692096 0
    endloop
  endfacet
  facet normal 0 0 -1
    outer loop
      vertex -0.702931 -0.692096 0
      vertex 0.463288 -0.596613 0
      vertex 0.518955 -0.630107 0
    endloop
  endfacet
  facet normal 0 0 -1
    outer loop
      vertex -1.13671 -0.596613 0
      vertex -1.08105 -0.630107 0
      vertex -4.5 -3 0
    endloop
  endfacet
  facet normal 0 0 -1
    outer loop
      vertex -1.08105 -0.630107 0
      vertex -0.897069 -0.692096 0
      vertex -4.5 -3 0
    endloop
  endfacet
  facet normal 0 0 -1
    outer loop
      vertex -4.5 -3 0
      vertex -0.897069 -0.692096 0
      vertex 4.5 -3 0
    endloop
  endfacet
  facet normal 0 0 -1
    outer loop
      vertex -0.897069 -0.692096 0
      vertex -0.702931 -0.692096 0
      vertex 4.5 -3 0
    endloop
  endfacet
  facet normal 0 0 -1
    outer loop
      vertex 4.5 -3 0
      vertex -0.702931 -0.692096 0
      vertex 0.702931 -0.692096 0
    endloop
  endfacet
  facet normal 0 0 -1
    outer loop
      vertex -0.702931 -0.692096 0
      vertex 0.518955 -0.630107 0
      vertex 0.702931 -0.692096 0
    endloop
  endfacet
  facet normal 0 0 -1
    outer loop
      vertex 0.702931 -0.692096 0
      vertex 0.897069 -0.692096 0
      vertex 4.5 -3 0
    endloop
  endfacet
  facet normal 0 0 -1
    outer loop
      vertex 0.897069 -0.692096 0
      vertex 1.08105 -0.630107 0
      vertex 4.5 -3 0
    endloop
  endfacet
  facet normal 0 0 -1
    outer loop
      vertex 4.5 -3 0
      vertex 1.08105 -0.630107 0
      vertex 1.2356 -0.51262 0
    endloop
  endfacet
  facet normal 0 0 -1
    outer loop
      vertex -0.255455 -0.351933 0
      vertex -0.203517 -0.164871 0
      vertex 0.203517 -0.164871 0
    endloop
  endfacet
  facet normal 0 0 -1
    outer loop
      vertex -0.203517 -0.164871 0
      vertex -0.2 -0.1 0
      vertex 0.203517 -0.164871 0
    endloop
  endfacet
  facet normal 0 0 -1
    outer loop
      vertex 0.203517 -0.164871 0
      vertex -0.2 -0.1 0
      vertex 0.214028 0.0289823 0
    endloop
  endfacet
  facet normal 0 0 -1
    outer loop
      vertex -0.2 -0.1 0
      vertex -0.231408 0.0915809 0
      vertex 0.214028 0.0289823 0
    endloop
  endfacet
  facet normal 0 0 -1
    outer loop
      vertex 0.214028 0.0289823 0
      vertex -0.231408 0.0915809 0
      vertex 0.285886 0.209332 0
    endloop
  endfacet
  facet normal 0 0 -1
    outer loop
      vertex -0.231408 0.0915809 0
      vertex -0.322344 0.263105 0
      vertex 0.285886 0.209332 0
    endloop
  endfacet
  facet normal 0 0 -1
    outer loop
      vertex 0.285886 0.209332 0
      vertex -0.322344 0.263105 0
      vertex -0.463288 0.396613 0
    endloop
  endfacet
  facet normal 0 0 -1
    outer loop
      vertex -1.13671 0.396613 0
      vertex -1.18843 0.357297 0
      vertex -1.80293 0.407904 0
    endloop
  endfacet
  facet normal 0 0 -1
    outer loop
      vertex -1.18843 0.357297 0
      vertex -1.31411 0.209332 0
      vertex -1.80293 0.407904 0
    endloop
  endfacet
  facet normal 0 0 -1
    outer loop
      vertex -1.80293 0.407904 0
      vertex -1.31411 0.209332 0
      vertex -1.99707 0.407904 0
    endloop
  endfacet
  facet normal 0 0 -1
    outer loop
      vertex -1.31411 0.209332 0
      vertex -1.38597 0.0289823 0
      vertex -1.99707 0.407904 0
    endloop
  endfacet
  facet normal 0 0 -1
    outer loop
      vertex -1.99707 0.407904 0
      vertex -1.38597 0.0289823 0
      vertex -4.5 -3 0
    endloop
  endfacet
  facet normal 0 0 -1
    outer loop
      vertex -1.38597 0.0289823 0
      vertex -1.39648 -0.164871 0
      vertex -4.5 -3 0
    endloop
  endfacet
  facet normal 0 0 -1
    outer loop
      vertex -4.5 -3 0
      vertex -1.39648 -0.164871 0
      vertex -1.34455 -0.351933 0
    endloop
  endfacet
  facet normal 0 0 -1
    outer loop
      vertex 0.960517 0.47813 0
      vertex 0.767517 0.49912 0
      vertex 1.30352 0.935129 0
    endloop
  endfacet
  facet normal 0 0 -1
    outer loop
      vertex 0.767517 0.49912 0
      vertex 0.577917 0.457386 0
      vertex 1.30352 0.935129 0
    endloop
  endfacet
  facet normal 0 0 -1
    outer loop
      vertex 1.30352 0.935129 0
      vertex 0.577917 0.457386 0
      vertex -0.463288 0.396613 0
    endloop
  endfacet
  facet normal 0 0 -1
    outer loop
      vertex 0.577917 0.457386 0
      vertex 0.463288 0.396613 0
      vertex -0.463288 0.396613 0
    endloop
  endfacet
  facet normal 0 0 -1
    outer loop
      vertex -0.463288 0.396613 0
      vertex 0.463288 0.396613 0
      vertex 0.411568 0.357297 0
    endloop
  endfacet
  facet normal 0 0 -1
    outer loop
      vertex -0.463288 0.396613 0
      vertex -0.639483 0.47813 0
      vertex 1.30352 0.935129 0
    endloop
  endfacet
  facet normal 0 0 -1
    outer loop
      vertex -0.639483 0.47813 0
      vertex -0.832483 0.49912 0
      vertex 1.30352 0.935129 0
    endloop
  endfacet
  facet normal 0 0 -1
    outer loop
      vertex 1.30352 0.935129 0
      vertex -0.832483 0.49912 0
      vertex -1.80293 0.407904 0
    endloop
  endfacet
  facet normal 0 0 -1
    outer loop
      vertex -0.832483 0.49912 0
      vertex -1.02208 0.457386 0
      vertex -1.80293 0.407904 0
    endloop
  endfacet
  facet normal 0 0 -1
    outer loop
      vertex -1.80293 0.407904 0
      vertex -1.02208 0.457386 0
      vertex -1.13671 0.396613 0
    endloop
  endfacet
  facet normal 0 0 -1
    outer loop
      vertex 1.2356 -0.51262 0
      vertex 1.34455 -0.351933 0
      vertex 4.5 -3 0
    endloop
  endfacet
  facet normal 0 0 -1
    outer loop
      vertex 1.34455 -0.351933 0
      vertex 1.39648 -0.164871 0
      vertex 4.5 -3 0
    endloop
  endfacet
  facet normal 0 0 -1
    outer loop
      vertex 4.5 -3 0
      vertex 1.39648 -0.164871 0
      vertex 1.99707 0.407904 0
    endloop
  endfacet
  facet normal 0 0 -1
    outer loop
      vertex 1.39648 -0.164871 0
      vertex 1.4 -0.1 0
      vertex 1.99707 0.407904 0
    endloop
  endfacet
  facet normal 0 0 -1
    outer loop
      vertex 1.99707 0.407904 0
      vertex 1.4 -0.1 0
      vertex 1.36859 0.0915809 0
    endloop
  endfacet
  facet normal 0 0 -1
    outer loop
      vertex 1.30352 0.935129 0
      vertex 1.35545 0.748067 0
      vertex 1.13671 0.396613 0
    endloop
  endfacet
  facet normal 0 0 -1
    outer loop
      vertex 1.35545 0.748067 0
      vertex 1.4644 0.58738 0
      vertex 1.13671 0.396613 0
    endloop
  endfacet
  facet normal 0 0 -1
    outer loop
      vertex 1.13671 0.396613 0
      vertex 1.4644 0.58738 0
      vertex 1.27766 0.263105 0
    endloop
  endfacet
  facet normal 0 0 -1
    outer loop
      vertex 1.4644 0.58738 0
      vertex 1.56329 0.503387 0
      vertex 1.27766 0.263105 0
    endloop
  endfacet
  facet normal 0 0 -1
    outer loop
      vertex 1.27766 0.263105 0
      vertex 1.56329 0.503387 0
      vertex 1.36859 0.0915809 0
    endloop
  endfacet
  facet normal 0 0 -1
    outer loop
      vertex 1.56329 0.503387 0
      vertex 1.61895 0.469893 0
      vertex 1.36859 0.0915809 0
    endloop
  endfacet
  facet normal 0 0 -1
    outer loop
      vertex 1.36859 0.0915809 0
      vertex 1.61895 0.469893 0
      vertex 1.80293 0.407904 0
    endloop
  endfacet
  facet normal 0 0 1
    outer loop
      vertex -1.3 1 3
      vertex 2.42265 2 3
      vertex 1.57735 2 3
    endloop
  endfacet
  facet normal 0 0 1
    outer loop
      vertex -1.3 1 3
      vertex 1.57735 2 3
      vertex -1.33141 1.19158 3
    endloop
  endfacet
  facet normal 0 0 1
    outer loop
      vertex -2.42265 2 3
      vertex -2.48597 1.12898 3
      vertex -2.41411 1.30933 3
    endloop
  endfacet
  facet normal 0 0 1
    outer loop
      vertex 1 -3 3
      vertex 1.57735 -2 3
      vertex 0.897069 -0.692096 3
    endloop
  endfacet
  facet normal 0 0 1
    outer loop
      vertex 3 -3 3
      vertex 4.5 -3 3
      vertex 2.42265 -2 3
    endloop
  endfacet
  facet normal 0 0 1
    outer loop
      vertex 4.5 -3 3
      vertex 4.5 3 3
      vertex 2.42265 -2 3
    endloop
  endfacet
  facet normal 0 0 1
    outer loop
      vertex -1.93248 1.59912 3
      vertex -1.73948 1.57813 3
      vertex -1.57735 2 3
    endloop
  endfacet
  facet normal 0 0 1
    outer loop
      vertex -0.255455 -0.351933 3
      vertex 0.518955 -0.630107 3
      vertex 0.463288 -0.596613 3
    endloop
  endfacet
  facet normal 0 0 1
    outer loop
      vertex -1 -3 3
      vertex 1 -3 3
      vertex -0.364403 -0.51262 3
    endloop
  endfacet
  facet normal 0 0 1
    outer loop
      vertex 1 3 3
      vertex -1 3 3
      vertex 1.57735 2 3
    endloop
  endfacet
  facet normal 0 0 1
    outer loop
      vertex -1 3 3
      vertex -1.57735 2 3
      vertex 1.57735 2 3
    endloop
  endfacet
  facet normal 0 0 1
    outer loop
      vertex 1.57735 2 3
      vertex -1.57735 2 3
      vertex -1.33141 1.19158 3
    endloop
  endfacet
  facet normal 0 0 1
    outer loop
      vertex -2.41411 1.30933 3
      vertex -2.28843 1.4573 3
      vertex -2.42265 2 3
    endloop
  endfacet
  facet normal 0 0 1
    outer loop
      vertex -2.28843 1.4573 3
      vertex -2.23671 1.49661 3
      vertex -2.42265 2 3
    endloop
  endfacet
  facet normal 0 0 1
    outer loop
      vertex -2.42265 2 3
      vertex -2.23671 1.49661 3
      vertex -1.57735 2 3
    endloop
  endfacet
  facet normal 0 0 1
    outer loop
      vertex -2.23671 1.49661 3
      vertex -2.12208 1.55739 3
      vertex -1.57735 2 3
    endloop
  endfacet
  facet normal 0 0 1
    outer loop
      vertex -1.57735 2 3
      vertex -2.12208 1.55739 3
      vertex -1.93248 1.59912 3
    endloop
  endfacet
  facet normal 0 0 1
    outer loop
      vertex -1.73948 1.57813 3
      vertex -1.56329 1.49661 3
      vertex -1.57735 2 3
    endloop
  endfacet
  facet normal 0 0 1
    outer loop
      vertex -1.56329 1.49661 3
      vertex -1.42234 1.3631 3
      vertex -1.57735 2 3
    endloop
  endfacet
  facet normal 0 0 1
    outer loop
      vertex -1.57735 2 3
      vertex -1.42234 1.3631 3
      vertex -1.33141 1.19158 3
    endloop
  endfacet
  facet normal 0 0 1
    outer loop
      vertex -0.255455 -0.351933 3
      vertex -0.364403 -0.51262 3
      vertex 0.518955 -0.630107 3
    endloop
  endfacet
  facet normal 0 0 1
    outer loop
      vertex -0.364403 -0.51262 3
      vertex 1 -3 3
      vertex 0.518955 -0.630107 3
    endloop
  endfacet
  facet normal 0 0 1
    outer loop
      vertex 0.518955 -0.630107 3
      vertex 1 -3 3
      vertex 0.702931 -0.692096 3
    endloop
  endfacet
  facet normal 0 0 1
    outer loop
      vertex 1 -3 3
      vertex 0.897069 -0.692096 3
      vertex 0.702931 -0.692096 3
    endloop
  endfacet
  facet normal 0 0 1
    outer loop
      vertex 2.18105 0.469893 3
      vertex 1.39648 -0.164871 3
      vertex 2.3356 0.58738 3
    endloop
  endfacet
  facet normal 0 0 1
    outer loop
      vertex 1.39648 -0.164871 3
      vertex 2.42265 -2 3
      vertex 2.3356 0.58738 3
    endloop
  endfacet
  facet normal 0 0 1
    outer loop
      vertex 2.3356 0.58738 3
      vertex 2.42265 -2 3
      vertex 2.44455 0.748067 3
    endloop
  endfacet
  facet normal 0 0 1
    outer loop
      vertex 2.42265 -2 3
      vertex 4.5 3 3
      vertex 2.44455 0.748067 3
    endloop
  endfacet
  facet normal 0 0 1
    outer loop
      vertex 2.44455 0.748067 3
      vertex 4.5 3 3
      vertex 2.49648 0.935129 3
    endloop
  endfacet
  facet normal 0 0 1
    outer loop
      vertex 4.5 3 3
      vertex 2.5 1 3
      vertex 2.49648 0.935129 3
    endloop
  endfacet
  facet normal 0 0 1
    outer loop
      vertex 1.39648 -0.164871 3
      vertex 1.34455 -0.351933 3
      vertex 2.42265 -2 3
    endloop
  endfacet
  facet normal 0 0 1
    outer loop
      vertex 1.34455 -0.351933 3
      vertex 1.2356 -0.51262 3
      vertex 2.42265 -2 3
    endloop
  endfacet
  facet normal 0 0 1
    outer loop
      vertex 2.42265 -2 3
      vertex 1.2356 -0.51262 3
      vertex 1.57735 -2 3
    endloop
  endfacet
  facet normal 0 0 1
    outer loop
      vertex 1.2356 -0.51262 3
      vertex 1.08105 -0.630107 3
      vertex 1.57735 -2 3
    endloop
  endfacet
  facet normal 0 0 1
    outer loop
      vertex 1.57735 -2 3
      vertex 1.08105 -0.630107 3
      vertex 0.897069 -0.692096 3
    endloop
  endfacet
  facet normal 0 0 1
    outer loop
      vertex 1.99707 0.407904 3
      vertex 1.36859 0.0915809 3
      vertex 2.18105 0.469893 3
    endloop
  endfacet
  facet normal 0 0 1
    outer loop
      vertex 1.36859 0.0915809 3
      vertex 1.4 -0.1 3
      vertex 2.18105 0.469893 3
    endloop
  endfacet
  facet normal 0 0 1
    outer loop
      vertex 2.18105 0.469893 3
      vertex 1.4 -0.1 3
      vertex 1.39648 -0.164871 3
    endloop
  endfacet
  facet normal 0 0 1
    outer loop
      vertex -1 -3 3
      vertex -0.364403 -0.51262 3
      vertex -1.57735 -2 3
    endloop
  endfacet
  facet normal 0 0 1
    outer loop
      vertex -0.364403 -0.51262 3
      vertex -0.518955 -0.630107 3
      vertex -1.57735 -2 3
    endloop
  endfacet
  facet normal 0 0 1
    outer loop
      vertex -1.57735 -2 3
      vertex -0.518955 -0.630107 3
      vertex -0.702931 -0.692096 3
    endloop
  endfacet
  facet normal 0 0 1
    outer loop
      vertex -4.5 -3 3
      vertex -3 -3 3
      vertex -4.5 3 3
    endloop
  endfacet
  facet normal 0 0 1
    outer loop
      vertex -3 -3 3
      vertex -2.42265 -2 3
      vertex -4.5 3 3
    endloop
  endfacet
  facet normal 0 0 1
    outer loop
      vertex -4.5 3 3
      vertex -2.42265 -2 3
      vertex -2.44455 0.748067 3
    endloop
  endfacet
  facet normal 0 0 1
    outer loop
      vertex -1.61895 0.469893 3
      vertex -1.80293 0.407904 3
      vertex -1.39648 -0.164871 3
    endloop
  endfacet
  facet normal 0 0 1
    outer loop
      vertex -1.80293 0.407904 3
      vertex -1.99707 0.407904 3
      vertex -1.39648 -0.164871 3
    endloop
  endfacet
  facet normal 0 0 1
    outer loop
      vertex 1.31403 1.12898 3
      vertex -1.30352 0.935129 3
      vertex -1.35545 0.748067 3
    endloop
  endfacet
  facet normal 0 0 1
    outer loop
      vertex -1.30352 0.935129 3
      vertex 1.31403 1.12898 3
      vertex -1.3 1 3
    endloop
  endfacet
  facet normal 0 0 1
    outer loop
      vertex 1.31403 1.12898 3
      vertex 1.38589 1.30933 3
      vertex -1.3 1 3
    endloop
  endfacet
  facet normal 0 0 1
    outer loop
      vertex -1.3 1 3
      vertex 1.38589 1.30933 3
      vertex 1.51157 1.4573 3
    endloop
  endfacet
  facet normal 0 0 1
    outer loop
      vertex 2.06052 1.57813 3
      vertex 2.23671 1.49661 3
      vertex 2.42265 2 3
    endloop
  endfacet
  facet normal 0 0 1
    outer loop
      vertex 2.23671 1.49661 3
      vertex 2.37766 1.3631 3
      vertex 2.42265 2 3
    endloop
  endfacet
  facet normal 0 0 1
    outer loop
      vertex -2.42265 2 3
      vertex -3 3 3
      vertex -2.48597 1.12898 3
    endloop
  endfacet
  facet normal 0 0 1
    outer loop
      vertex -3 3 3
      vertex -4.5 3 3
      vertex -2.48597 1.12898 3
    endloop
  endfacet
  facet normal 0 0 1
    outer loop
      vertex -2.48597 1.12898 3
      vertex -4.5 3 3
      vertex -2.49648 0.935129 3
    endloop
  endfacet
  facet normal 0 0 1
    outer loop
      vertex -4.5 3 3
      vertex -2.44455 0.748067 3
      vertex -2.49648 0.935129 3
    endloop
  endfacet
  facet normal 0 0 1
    outer loop
      vertex 0.364403 -0.51262 3
      vertex -0.2 -0.1 3
      vertex 0.463288 -0.596613 3
    endloop
  endfacet
  facet normal 0 0 1
    outer loop
      vertex -0.2 -0.1 3
      vertex -0.203517 -0.164871 3
      vertex 0.463288 -0.596613 3
    endloop
  endfacet
  facet normal 0 0 1
    outer loop
      vertex 0.463288 -0.596613 3
      vertex -0.203517 -0.164871 3
      vertex -0.255455 -0.351933 3
    endloop
  endfacet
  facet normal 0 0 1
    outer loop
      vertex -1.02208 0.457386 3
      vertex -0.832483 0.49912 3
      vertex -1.35545 0.748067 3
    endloop
  endfacet
  facet normal 0 0 1
    outer loop
      vertex -0.832483 0.49912 3
      vertex -0.639483 0.47813 3
      vertex -1.35545 0.748067 3
    endloop
  endfacet
  facet normal 0 0 1
    outer loop
      vertex -1.35545 0.748067 3
      vertex -0.639483 0.47813 3
      vertex 1.31403 1.12898 3
    endloop
  endfacet
  facet normal 0 0 1
    outer loop
      vertex -0.639483 0.47813 3
      vertex -0.463288 0.396613 3
      vertex 1.31403 1.12898 3
    endloop
  endfacet
  facet normal 0 0 1
    outer loop
      vertex 1.31403 1.12898 3
      vertex -0.463288 0.396613 3
      vertex -0.322344 0.263105 3
    endloop
  endfacet
  facet normal 0 0 1
    outer loop
      vertex 4.5 3 3
      vertex 3 3 3
      vertex 2.5 1 3
    endloop
  endfacet
  facet normal 0 0 1
    outer loop
      vertex 3 3 3
      vertex 2.42265 2 3
      vertex 2.5 1 3
    endloop
  endfacet
  facet normal 0 0 1
    outer loop
      vertex 2.5 1 3
      vertex 2.42265 2 3
      vertex 2.46859 1.19158 3
    endloop
  endfacet
  facet normal 0 0 1
    outer loop
      vertex 2.42265 2 3
      vertex 2.37766 1.3631 3
      vertex 2.46859 1.19158 3
    endloop
  endfacet
  facet normal 0 0 1
    outer loop
      vertex 1.13671 0.396613 3
      vertex 1.35545 0.748067 3
      vertex 0.960517 0.47813 3
    endloop
  endfacet
  facet normal 0 0 1
    outer loop
      vertex 1.35545 0.748067 3
      vertex 1.30352 0.935129 3
      vertex 0.960517 0.47813 3
    endloop
  endfacet
  facet normal 0 0 1
    outer loop
      vertex 0.960517 0.47813 3
      vertex 1.30352 0.935129 3
      vertex 1.31403 1.12898 3
    endloop
  endfacet
  facet normal 0 0 1
    outer loop
      vertex 1.51157 1.4573 3
      vertex 1.56329 1.49661 3
      vertex -1.3 1 3
    endloop
  endfacet
  facet normal 0 0 1
    outer loop
      vertex 1.56329 1.49661 3
      vertex 1.67792 1.55739 3
      vertex -1.3 1 3
    endloop
  endfacet
  facet normal 0 0 1
    outer loop
      vertex -1.3 1 3
      vertex 1.67792 1.55739 3
      vertex 2.42265 2 3
    endloop
  endfacet
  facet normal 0 0 1
    outer loop
      vertex 1.67792 1.55739 3
      vertex 1.86752 1.59912 3
      vertex 2.42265 2 3
    endloop
  endfacet
  facet normal 0 0 1
    outer loop
      vertex 2.42265 2 3
      vertex 1.86752 1.59912 3
      vertex 2.06052 1.57813 3
    endloop
  endfacet
  facet normal 0 0 1
    outer loop
      vertex 1.99707 0.407904 3
      vertex 1.80293 0.407904 3
      vertex 1.36859 0.0915809 3
    endloop
  endfacet
  facet normal 0 0 1
    outer loop
      vertex 1.80293 0.407904 3
      vertex 1.61895 0.469893 3
      vertex 1.36859 0.0915809 3
    endloop
  endfacet
  facet normal 0 0 1
    outer loop
      vertex 1.36859 0.0915809 3
      vertex 1.61895 0.469893 3
      vertex 1.27766 0.263105 3
    endloop
  endfacet
  facet normal 0 0 1
    outer loop
      vertex 1.61895 0.469893 3
      vertex 1.56329 0.503387 3
      vertex 1.27766 0.263105 3
    endloop
  endfacet
  facet normal 0 0 1
    outer loop
      vertex 1.27766 0.263105 3
      vertex 1.56329 0.503387 3
      vertex 1.13671 0.396613 3
    endloop
  endfacet
  facet normal 0 0 1
    outer loop
      vertex 1.56329 0.503387 3
      vertex 1.4644 0.58738 3
      vertex 1.13671 0.396613 3
    endloop
  endfacet
  facet normal 0 0 1
    outer loop
      vertex 1.13671 0.396613 3
      vertex 1.4644 0.58738 3
      vertex 1.35545 0.748067 3
    endloop
  endfacet
  facet normal 0 0 1
    outer loop
      vertex -1.2356 -0.51262 3
      vertex -1.34455 -0.351933 3
      vertex -2.42265 -2 3
    endloop
  endfacet
  facet normal 0 0 1
    outer loop
      vertex -1.34455 -0.351933 3
      vertex -1.39648 -0.164871 3
      vertex -2.42265 -2 3
    endloop
  endfacet
  facet normal 0 0 1
    outer loop
      vertex -1.39648 -0.164871 3
      vertex -1.38597 0.0289823 3
      vertex -1.61895 0.469893 3
    endloop
  endfacet
  facet normal 0 0 1
    outer loop
      vertex -1.38597 0.0289823 3
      vertex -1.31411 0.209332 3
      vertex -1.61895 0.469893 3
    endloop
  endfacet
  facet normal 0 0 1
    outer loop
      vertex -1.61895 0.469893 3
      vertex -1.31411 0.209332 3
      vertex -1.4644 0.58738 3
    endloop
  endfacet
  facet normal 0 0 1
    outer loop
      vertex -1.31411 0.209332 3
      vertex -1.18843 0.357297 3
      vertex -1.4644 0.58738 3
    endloop
  endfacet
  facet normal 0 0 1
    outer loop
      vertex -1.4644 0.58738 3
      vertex -1.18843 0.357297 3
      vertex -1.35545 0.748067 3
    endloop
  endfacet
  facet normal 0 0 1
    outer loop
      vertex -1.18843 0.357297 3
      vertex -1.13671 0.396613 3
      vertex -1.35545 0.748067 3
    endloop
  endfacet
  facet normal 0 0 1
    outer loop
      vertex -1.35545 0.748067 3
      vertex -1.13671 0.396613 3
      vertex -1.02208 0.457386 3
    endloop
  endfacet
  facet normal 0 0 1
    outer loop
      vertex -1.99707 0.407904 3
      vertex -2.18105 0.469893 3
      vertex -1.39648 -0.164871 3
    endloop
  endfacet
  facet normal 0 0 1
    outer loop
      vertex -2.18105 0.469893 3
      vertex -2.23671 0.503387 3
      vertex -1.39648 -0.164871 3
    endloop
  endfacet
  facet normal 0 0 1
    outer loop
      vertex -1.39648 -0.164871 3
      vertex -2.23671 0.503387 3
      vertex -2.42265 -2 3
    endloop
  endfacet
  facet normal 0 0 1
    outer loop
      vertex -2.23671 0.503387 3
      vertex -2.3356 0.58738 3
      vertex -2.42265 -2 3
    endloop
  endfacet
  facet normal 0 0 1
    outer loop
      vertex -2.42265 -2 3
      vertex -2.3356 0.58738 3
      vertex -2.44455 0.748067 3
    endloop
  endfacet
  facet normal 0 0 1
    outer loop
      vertex 0.364403 -0.51262 3
      vertex 0.255455 -0.351933 3
      vertex -0.2 -0.1 3
    endloop
  endfacet
  facet normal 0 0 1
    outer loop
      vertex 0.255455 -0.351933 3
      vertex 0.203517 -0.164871 3
      vertex -0.2 -0.1 3
    endloop
  endfacet
  facet normal 0 0 1
    outer loop
      vertex -0.2 -0.1 3
      vertex 0.203517 -0.164871 3
      vertex -0.231408 0.0915809 3
    endloop
  endfacet
  facet normal 0 0 1
    outer loop
      vertex 0.203517 -0.164871 3
      vertex 0.214028 0.0289823 3
      vertex -0.231408 0.0915809 3
    endloop
  endfacet
  facet normal 0 0 1
    outer loop
      vertex -0.231408 0.0915809 3
      vertex 0.214028 0.0289823 3
      vertex -0.322344 0.263105 3
    endloop
  endfacet
  facet normal 0 0 1
    outer loop
      vertex 0.214028 0.0289823 3
      vertex 0.285886 0.209332 3
      vertex -0.322344 0.263105 3
    endloop
  endfacet
  facet normal 0 0 1
    outer loop
      vertex -0.322344 0.263105 3
      vertex 0.285886 0.209332 3
      vertex 0.411568 0.357297 3
    endloop
  endfacet
  facet normal 0 0 1
    outer loop
      vertex -0.702931 -0.692096 3
      vertex -0.897069 -0.692096 3
      vertex -1.57735 -2 3
    endloop
  endfacet
  facet normal 0 0 1
    outer loop
      vertex -0.897069 -0.692096 3
      vertex -1.08105 -0.630107 3
      vertex -1.57735 -2 3
    endloop
  endfacet
  facet normal 0 0 1
    outer loop
      vertex -1.57735 -2 3
      vertex -1.08105 -0.630107 3
      vertex -2.42265 -2 3
    endloop
  endfacet
  facet normal 0 0 1
    outer loop
      vertex -1.08105 -0.630107 3
      vertex -1.13671 -0.596613 3
      vertex -2.42265 -2 3
    endloop
  endfacet
  facet normal 0 0 1
    outer loop
      vertex -2.42265 -2 3
      vertex -1.13671 -0.596613 3
      vertex -1.2356 -0.51262 3
    endloop
  endfacet
  facet normal 0 0 1
    outer loop
      vertex 0.411568 0.357297 3
      vertex 0.463288 0.396613 3
      vertex -0.322344 0.263105 3
    endloop
  endfacet
  facet normal 0 0 1
    outer loop
      vertex 0.463288 0.396613 3
      vertex 0.577917 0.457386 3
      vertex -0.322344 0.263105 3
    endloop
  endfacet
  facet normal 0 0 1
    outer loop
      vertex -0.322344 0.263105 3
      vertex 0.577917 0.457386 3
      vertex 1.31403 1.12898 3
    endloop
  endfacet
  facet normal 0 0 1
    outer loop
      vertex 0.577917 0.457386 3
      vertex 0.767517 0.49912 3
      vertex 1.31403 1.12898 3
    endloop
  endfacet
  facet normal 0 0 1
    outer loop
      vertex 1.31403 1.12898 3
      vertex 0.767517 0.49912 3
      vertex 0.960517 0.47813 3
    endloop
  endfacet
  facet normal -0.986827 -0.161782 0
    outer loop
      vertex -0.2 -0.1 0
      vertex -0.2 -0.1 3
      vertex -0.231408 0.0915809 0
    endloop
  endfacet
  facet normal -0.986827 -0.161782 0
    outer loop
      vertex -0.2 -0.1 3
      vertex -0.231408 0.0915809 3
      vertex -0.231408 0.0915809 0
    endloop
  endfacet
  facet normal -0.883512 -0.468408 0
    outer loop
      vertex -0.231408 0.0915809 0
      vertex -0.231408 0.0915809 3
      vertex -0.322344 0.263105 0
    endloop
  endfacet
  facet normal -0.883512 -0.468408 0
    outer loop
      vertex -0.231408 0.0915809 3
      vertex -0.322344 0.263105 3
      vertex -0.322344 0.263105 0
    endloop
  endfacet
  facet normal -0.687699 -0.725995 0
    outer loop
      vertex -0.322344 0.263105 0
      vertex -0.322344 0.263105 3
      vertex -0.463288 0.396613 0
    endloop
  endfacet
  facet normal -0.687699 -0.725995 0
    outer loop
      vertex -0.322344 0.263105 3
      vertex -0.463288 0.396613 3
      vertex -0.463288 0.396613 0
    endloop
  endfacet
  facet normal -0.419889 -0.907575 0
    outer loop
      vertex -0.463288 0.396613 0
      vertex -0.463288 0.396613 3
      vertex -0.639483 0.47813 0
    endloop
  endfacet
  facet normal -0.419889 -0.907575 0
    outer loop
      vertex -0.463288 0.396613 3
      vertex -0.639483 0.47813 3
      vertex -0.639483 0.47813 0
    endloop
  endfacet
  facet normal -0.108119 -0.994138 0
    outer loop
      vertex -0.639483 0.47813 0
      vertex -0.639483 0.47813 3
      vertex -0.832483 0.49912 0
    endloop
  endfacet
  facet normal -0.108119 -0.994138 0
    outer loop
      vertex -0.639483 0.47813 3
      vertex -0.832483 0.49912 3
      vertex -0.832483 0.49912 0
    endloop
  endfacet
  facet normal 0.21497 -0.976621 0
    outer loop
      vertex -0.832483 0.49912 0
      vertex -0.832483 0.49912 3
      vertex -1.02208 0.457386 0
    endloop
  endfacet
  facet normal 0.21497 -0.976621 0
    outer loop
      vertex -0.832483 0.49912 3
      vertex -1.02208 0.457386 3
      vertex -1.02208 0.457386 0
    endloop
  endfacet
  facet normal 0.468408 -0.883512 0
    outer loop
      vertex -1.02208 0.457386 0
      vertex -1.02208 0.457386 3
      vertex -1.13671 0.396613 0
    endloop
  endfacet
  facet normal 0.468408 -0.883512 0
    outer loop
      vertex -1.02208 0.457386 3
      vertex -1.13671 0.396613 3
      vertex -1.13671 0.396613 0
    endloop
  endfacet
  facet normal 0.605175 -0.796093 0
    outer loop
      vertex -1.13671 0.396613 0
      vertex -1.13671 0.396613 3
      vertex -1.18843 0.357297 0
    endloop
  endfacet
  facet normal 0.605175 -0.796093 0
    outer loop
      vertex -1.13671 0.396613 3
      vertex -1.18843 0.357297 3
      vertex -1.18843 0.357297 0
    endloop
  endfacet
  facet normal 0.762162 -0.647386 0
    outer loop
      vertex -1.18843 0.357297 0
      vertex -1.18843 0.357297 3
      vertex -1.31411 0.209332 0
    endloop
  endfacet
  facet normal 0.762162 -0.647386 0
    outer loop
      vertex -1.18843 0.357297 3
      vertex -1.31411 0.209332 3
      vertex -1.31411 0.209332 0
    endloop
  endfacet
  facet normal 0.928977 -0.370138 0
    outer loop
      vertex -1.31411 0.209332 0
      vertex -1.31411 0.209332 3
      vertex -1.38597 0.0289823 0
    endloop
  endfacet
  facet normal 0.928977 -0.370138 0
    outer loop
      vertex -1.31411 0.209332 3
      vertex -1.38597 0.0289823 3
      vertex -1.38597 0.0289823 0
    endloop
  endfacet
  facet normal 0.998533 -0.0541389 0
    outer loop
      vertex -1.38597 0.0289823 0
      vertex -1.38597 0.0289823 3
      vertex -1.39648 -0.164871 0
    endloop
  endfacet
  facet normal 0.998533 -0.0541389 0
    outer loop
      vertex -1.38597 0.0289823 3
      vertex -1.39648 -0.164871 3
      vertex -1.39648 -0.164871 0
    endloop
  endfacet
  facet normal 0.96355 0.267528 0
    outer loop
      vertex -1.39648 -0.164871 0
      vertex -1.39648 -0.164871 3
      vertex -1.34455 -0.351933 0
    endloop
  endfacet
  facet normal 0.96355 0.267528 0
    outer loop
      vertex -1.39648 -0.164871 3
      vertex -1.34455 -0.351933 3
      vertex -1.34455 -0.351933 0
    endloop
  endfacet
  facet normal 0.827689 0.561187 0
    outer loop
      vertex -1.34455 -0.351933 0
      vertex -1.34455 -0.351933 3
      vertex -1.2356 -0.51262 0
    endloop
  endfacet
  facet normal 0.827689 0.561187 0
    outer loop
      vertex -1.34455 -0.351933 3
      vertex -1.2356 -0.51262 3
      vertex -1.2356 -0.51262 0
    endloop
  endfacet
  facet normal 0.647386 0.762162 0
    outer loop
      vertex -1.2356 -0.51262 0
      vertex -1.2356 -0.51262 3
      vertex -1.13671 -0.596613 0
    endloop
  endfacet
  facet normal 0.647386 0.762162 0
    outer loop
      vertex -1.2356 -0.51262 3
      vertex -1.13671 -0.596613 3
      vertex -1.13671 -0.596613 0
    endloop
  endfacet
  facet normal 0.515554 0.856857 0
    outer loop
      vertex -1.13671 -0.596613 0
      vertex -1.13671 -0.596613 3
      vertex -1.08105 -0.630107 0
    endloop
  endfacet
  facet normal 0.515554 0.856857 0
    outer loop
      vertex -1.13671 -0.596613 3
      vertex -1.08105 -0.630107 3
      vertex -1.08105 -0.630107 0
    endloop
  endfacet
  facet normal 0.319301 0.947653 0
    outer loop
      vertex -1.08105 -0.630107 0
      vertex -1.08105 -0.630107 3
      vertex -0.897069 -0.692096 0
    endloop
  endfacet
  facet normal 0.319301 0.947653 0
    outer loop
      vertex -1.08105 -0.630107 3
      vertex -0.897069 -0.692096 3
      vertex -0.897069 -0.692096 0
    endloop
  endfacet
  facet normal 0 1 0
    outer loop
      vertex -0.897069 -0.692096 0
      vertex -0.897069 -0.692096 3
      vertex -0.702931 -0.692096 0
    endloop
  endfacet
  facet normal 0 1 0
    outer loop
      vertex -0.897069 -0.692096 3
      vertex -0.702931 -0.692096 3
      vertex -0.702931 -0.692096 0
    endloop
  endfacet
  facet normal -0.319301 0.947653 0
    outer loop
      vertex -0.702931 -0.692096 0
      vertex -0.702931 -0.692096 3
      vertex -0.518955 -0.630107 0
    endloop
  endfacet
  facet normal -0.319301 0.947653 0
    outer loop
      vertex -0.702931 -0.692096 3
      vertex -0.518955 -0.630107 3
      vertex -0.518955 -0.630107 0
    endloop
  endfacet
  facet normal -0.605174 0.796093 0
    outer loop
      vertex -0.518955 -0.630107 0
      vertex -0.518955 -0.630107 3
      vertex -0.364403 -0.51262 0
    endloop
  endfacet
  facet normal -0.605174 0.796093 0
    outer loop
      vertex -0.518955 -0.630107 3
      vertex -0.364403 -0.51262 3
      vertex -0.364403 -0.51262 0
    endloop
  endfacet
  facet normal -0.827689 0.561187 0
    outer loop
      vertex -0.364403 -0.51262 0
      vertex -0.364403 -0.51262 3
      vertex -0.255455 -0.351933 0
    endloop
  endfacet
  facet normal -0.827689 0.561187 0
    outer loop
      vertex -0.364403 -0.51262 3
      vertex -0.255455 -0.351933 3
      vertex -0.255455 -0.351933 0
    endloop
  endfacet
  facet normal -0.96355 0.267528 0
    outer loop
      vertex -0.255455 -0.351933 0
      vertex -0.255455 -0.351933 3
      vertex -0.203517 -0.164871 0
    endloop
  endfacet
  facet normal -0.96355 0.267528 0
    outer loop
      vertex -0.255455 -0.351933 3
      vertex -0.203517 -0.164871 3
      vertex -0.203517 -0.164871 0
    endloop
  endfacet
  facet normal -0.998533 0.0541389 0
    outer loop
      vertex -0.203517 -0.164871 0
      vertex -0.203517 -0.164871 3
      vertex -0.2 -0.1 0
    endloop
  endfacet
  facet normal -0.998533 0.0541389 0
    outer loop
      vertex -0.203517 -0.164871 3
      vertex -0.2 -0.1 3
      vertex -0.2 -0.1 0
    endloop
  endfacet
  facet normal -0.986826 -0.161782 0
    outer loop
      vertex 2.5 1 0
      vertex 2.5 1 3
      vertex 2.46859 1.19158 0
    endloop
  endfacet
  facet normal -0.986826 -0.161782 0
    outer loop
      vertex 2.5 1 3
      vertex 2.46859 1.19158 3
      vertex 2.46859 1.19158 0
    endloop
  endfacet
  facet normal -0.883512 -0.468408 0
    outer loop
      vertex 2.46859 1.19158 0
      vertex 2.46859 1.19158 3
      vertex 2.37766 1.3631 0
    endloop
  endfacet
  facet normal -0.883512 -0.468408 0
    outer loop
      vertex 2.46859 1.19158 3
      vertex 2.37766 1.3631 3
      vertex 2.37766 1.3631 0
    endloop
  endfacet
  facet normal -0.687699 -0.725996 0
    outer loop
      vertex 2.37766 1.3631 0
      vertex 2.37766 1.3631 3
      vertex 2.23671 1.49661 0
    endloop
  endfacet
  facet normal -0.687699 -0.725996 0
    outer loop
      vertex 2.37766 1.3631 3
      vertex 2.23671 1.49661 3
      vertex 2.23671 1.49661 0
    endloop
  endfacet
  facet normal -0.419889 -0.907576 0
    outer loop
      vertex 2.23671 1.49661 0
      vertex 2.23671 1.49661 3
      vertex 2.06052 1.57813 0
    endloop
  endfacet
  facet normal -0.419889 -0.907576 0
    outer loop
      vertex 2.23671 1.49661 3
      vertex 2.06052 1.57813 3
      vertex 2.06052 1.57813 0
    endloop
  endfacet
  facet normal -0.10812 -0.994138 0
    outer loop
      vertex 2.06052 1.57813 0
      vertex 2.06052 1.57813 3
      vertex 1.86752 1.59912 0
    endloop
  endfacet
  facet normal -0.10812 -0.994138 0
    outer loop
      vertex 2.06052 1.57813 3
      vertex 1.86752 1.59912 3
      vertex 1.86752 1.59912 0
    endloop
  endfacet
  facet normal 0.214971 -0.97662 0
    outer loop
      vertex 1.86752 1.59912 0
      vertex 1.86752 1.59912 3
      vertex 1.67792 1.55739 0
    endloop
  endfacet
  facet normal 0.214971 -0.97662 0
    outer loop
      vertex 1.86752 1.59912 3
      vertex 1.67792 1.55739 3
      vertex 1.67792 1.55739 0
    endloop
  endfacet
  facet normal 0.468409 -0.883512 0
    outer loop
      vertex 1.67792 1.55739 0
      vertex 1.67792 1.55739 3
      vertex 1.56329 1.49661 0
    endloop
  endfacet
  facet normal 0.468409 -0.883512 0
    outer loop
      vertex 1.67792 1.55739 3
      vertex 1.56329 1.49661 3
      vertex 1.56329 1.49661 0
    endloop
  endfacet
  facet normal 0.605173 -0.796094 0
    outer loop
      vertex 1.56329 1.49661 0
      vertex 1.56329 1.49661 3
      vertex 1.51157 1.4573 0
    endloop
  endfacet
  facet normal 0.605173 -0.796094 0
    outer loop
      vertex 1.56329 1.49661 3
      vertex 1.51157 1.4573 3
      vertex 1.51157 1.4573 0
    endloop
  endfacet
  facet normal 0.762162 -0.647386 0
    outer loop
      vertex 1.51157 1.4573 0
      vertex 1.51157 1.4573 3
      vertex 1.38589 1.30933 0
    endloop
  endfacet
  facet normal 0.762162 -0.647386 0
    outer loop
      vertex 1.51157 1.4573 3
      vertex 1.38589 1.30933 3
      vertex 1.38589 1.30933 0
    endloop
  endfacet
  facet normal 0.928977 -0.370138 0
    outer loop
      vertex 1.38589 1.30933 0
      vertex 1.38589 1.30933 3
      vertex 1.31403 1.12898 0
    endloop
  endfacet
  facet normal 0.928977 -0.370138 0
    outer loop
      vertex 1.38589 1.30933 3
      vertex 1.31403 1.12898 3
      vertex 1.31403 1.12898 0
    endloop
  endfacet
  facet normal 0.998533 -0.0541389 0
    outer loop
      vertex 1.31403 1.12898 0
      vertex 1.31403 1.12898 3
      vertex 1.30352 0.935129 0
    endloop
  endfacet
  facet normal 0.998533 -0.0541389 0
    outer loop
      vertex 1.31403 1.12898 3
      vertex 1.30352 0.935129 3
      vertex 1.30352 0.935129 0
    endloop
  endfacet
  facet normal 0.96355 0.267528 0
    outer loop
      vertex 1.30352 0.935129 0
      vertex 1.30352 0.935129 3
      vertex 1.35545 0.748067 0
    endloop
  endfacet
  facet normal 0.96355 0.267528 0
    outer loop
      vertex 1.30352 0.935129 3
      vertex 1.35545 0.748067 3
      vertex 1.35545 0.748067 0
    endloop
  endfacet
  facet normal 0.827689 0.561187 0
    outer loop
      vertex 1.35545 0.748067 0
      vertex 1.35545 0.748067 3
      vertex 1.4644 0.58738 0
    endloop
  endfacet
  facet normal 0.827689 0.561187 0
    outer loop
      vertex 1.35545 0.748067 3
      vertex 1.4644 0.58738 3
      vertex 1.4644 0.58738 0
    endloop
  endfacet
  facet normal 0.647386 0.762162 0
    outer loop
      vertex 1.4644 0.58738 0
      vertex 1.4644 0.58738 3
      vertex 1.56329 0.503387 0
    endloop
  endfacet
  facet normal 0.647386 0.762162 0
    outer loop
      vertex 1.4644 0.58738 3
      vertex 1.56329 0.503387 3
      vertex 1.56329 0.503387 0
    endloop
  endfacet
  facet normal 0.515554 0.856857 0
    outer loop
      vertex 1.56329 0.503387 0
      vertex 1.56329 0.503387 3
      vertex 1.61895 0.469893 0
    endloop
  endfacet
  facet normal 0.515554 0.856857 0
    outer loop
      vertex 1.56329 0.503387 3
      vertex 1.61895 0.469893 3
      vertex 1.61895 0.469893 0
    endloop
  endfacet
  facet normal 0.319301 0.947653 0
    outer loop
      vertex 1.61895 0.469893 0
      vertex 1.61895 0.469893 3
      vertex 1.80293 0.407904 0
    endloop
  endfacet
  facet normal 0.319301 0.947653 0
    outer loop
      vertex 1.61895 0.469893 3
      vertex 1.80293 0.407904 3
      vertex 1.80293 0.407904 0
    endloop
  endfacet
  facet normal 0 1 0
    outer loop
      vertex 1.80293 0.407904 0
      vertex 1.80293 0.407904 3
      vertex 1.99707 0.407904 0
    endloop
  endfacet
  facet normal 0 1 0
    outer loop
      vertex 1.80293 0.407904 3
      vertex 1.99707 0.407904 3
      vertex 1.99707 0.407904 0
    endloop
  endfacet
  facet normal -0.319302 0.947653 0
    outer loop
      vertex 1.99707 0.407904 0
      vertex 1.99707 0.407904 3
      vertex 2.18105 0.469893 0
    endloop
  endfacet
  facet normal -0.319302 0.947653 0
    outer loop
      vertex 1.99707 0.407904 3
      vertex 2.18105 0.469893 3
      vertex 2.18105 0.469893 0
    endloop
  endfacet
  facet normal -0.605174 0.796093 0
    outer loop
      vertex 2.18105 0.469893 0
      vertex 2.18105 0.469893 3
      vertex 2.3356 0.58738 0
    endloop
  endfacet
  facet normal -0.605174 0.796093 0
    outer loop
      vertex 2.18105 0.469893 3
      vertex 2.3356 0.58738 3
      vertex 2.3356 0.58738 0
    endloop
  endfacet
  facet normal -0.827689 0.561187 0
    outer loop
      vertex 2.3356 0.58738 0
      vertex 2.3356 0.58738 3
      vertex 2.44455 0.748067 0
    endloop
  endfacet
  facet normal -0.827689 0.561187 0
    outer loop
      vertex 2.3356 0.58738 3
      vertex 2.44455 0.748067 3
      vertex 2.44455 0.748067 0
    endloop
  endfacet
  facet normal -0.96355 0.267528 0
    outer loop
      vertex 2.44455 0.748067 0
      vertex 2.44455 0.748067 3
      vertex 2.49648 0.935129 0
    endloop
  endfacet
  facet normal -0.96355 0.267528 0
    outer loop
      vertex 2.44455 0.748067 3
      vertex 2.49648 0.935129 3
      vertex 2.49648 0.935129 0
    endloop
  endfacet
  facet normal -0.998533 0.0541376 0
    outer loop
      vertex 2.49648 0.935129 0
      vertex 2.49648 0.935129 3
      vertex 2.5 1 0
    endloop
  endfacet
  facet normal -0.998533 0.0541376 0
    outer loop
      vertex 2.49648 0.935129 3
      vertex 2.5 1 3
      vertex 2.5 1 0
    endloop
  endfacet
  facet normal 0 -1 0
    outer loop
      vertex 1.57735 -2 3
      vertex 1.57735 -2 0.5
      vertex 2.42265 -2 3
    endloop
  endfacet
  facet normal 0 -1 0
    outer loop
      vertex 1.57735 -2 0.5
      vertex 2.42265 -2 0.5
      vertex 2.42265 -2 3
    endloop
  endfacet
  facet normal -0.986827 -0.161782 0
    outer loop
      vertex 1.4 -0.1 0
      vertex 1.4 -0.1 3
      vertex 1.36859 0.0915809 0
    endloop
  endfacet
  facet normal -0.986827 -0.161782 0
    outer loop
      vertex 1.4 -0.1 3
      vertex 1.36859 0.0915809 3
      vertex 1.36859 0.0915809 0
    endloop
  endfacet
  facet normal -0.883512 -0.468409 0
    outer loop
      vertex 1.36859 0.0915809 0
      vertex 1.36859 0.0915809 3
      vertex 1.27766 0.263105 0
    endloop
  endfacet
  facet normal -0.883512 -0.468409 0
    outer loop
      vertex 1.36859 0.0915809 3
      vertex 1.27766 0.263105 3
      vertex 1.27766 0.263105 0
    endloop
  endfacet
  facet normal -0.6877 -0.725995 0
    outer loop
      vertex 1.27766 0.263105 0
      vertex 1.27766 0.263105 3
      vertex 1.13671 0.396613 0
    endloop
  endfacet
  facet normal -0.6877 -0.725995 0
    outer loop
      vertex 1.27766 0.263105 3
      vertex 1.13671 0.396613 3
      vertex 1.13671 0.396613 0
    endloop
  endfacet
  facet normal -0.419889 -0.907575 0
    outer loop
      vertex 1.13671 0.396613 0
      vertex 1.13671 0.396613 3
      vertex 0.960517 0.47813 0
    endloop
  endfacet
  facet normal -0.419889 -0.907575 0
    outer loop
      vertex 1.13671 0.396613 3
      vertex 0.960517 0.47813 3
      vertex 0.960517 0.47813 0
    endloop
  endfacet
  facet normal -0.108119 -0.994138 0
    outer loop
      vertex 0.960517 0.47813 0
      vertex 0.960517 0.47813 3
      vertex 0.767517 0.49912 0
    endloop
  endfacet
  facet normal -0.108119 -0.994138 0
    outer loop
      vertex 0.960517 0.47813 3
      vertex 0.767517 0.49912 3
      vertex 0.767517 0.49912 0
    endloop
  endfacet
  facet normal 0.21497 -0.976621 0
    outer loop
      vertex 0.767517 0.49912 0
      vertex 0.767517 0.49912 3
      vertex 0.577917 0.457386 0
    endloop
  endfacet
  facet normal 0.21497 -0.976621 0
    outer loop
      vertex 0.767517 0.49912 3
      vertex 0.577917 0.457386 3
      vertex 0.577917 0.457386 0
    endloop
  endfacet
  facet normal 0.468408 -0.883512 0
    outer loop
      vertex 0.577917 0.457386 0
      vertex 0.577917 0.457386 3
      vertex 0.463288 0.396613 0
    endloop
  endfacet
  facet normal 0.468408 -0.883512 0
    outer loop
      vertex 0.577917 0.457386 3
      vertex 0.463288 0.396613 3
      vertex 0.463288 0.396613 0
    endloop
  endfacet
  facet normal 0.605175 -0.796093 0
    outer loop
      vertex 0.463288 0.396613 0
      vertex 0.463288 0.396613 3
      vertex 0.411568 0.357297 0
    endloop
  endfacet
  facet normal 0.605175 -0.796093 0
    outer loop
      vertex 0.463288 0.396613 3
      vertex 0.411568 0.357297 3
      vertex 0.411568 0.357297 0
    endloop
  endfacet
  facet normal 0.762162 -0.647386 0
    outer loop
      vertex 0.411568 0.357297 0
      vertex 0.411568 0.357297 3
      vertex 0.285886 0.209332 0
    endloop
  endfacet
  facet normal 0.762162 -0.647386 0
    outer loop
      vertex 0.411568 0.357297 3
      vertex 0.285886 0.209332 3
      vertex 0.285886 0.209332 0
    endloop
  endfacet
  facet normal 0.928977 -0.370138 0
    outer loop
      vertex 0.285886 0.209332 0
      vertex 0.285886 0.209332 3
      vertex 0.214028 0.0289823 0
    endloop
  endfacet
  facet normal 0.928977 -0.370138 0
    outer loop
      vertex 0.285886 0.209332 3
      vertex 0.214028 0.0289823 3
      vertex 0.214028 0.0289823 0
    endloop
  endfacet
  facet normal 0.998533 -0.0541389 0
    outer loop
      vertex 0.214028 0.0289823 0
      vertex 0.214028 0.0289823 3
      vertex 0.203517 -0.164871 0
    endloop
  endfacet
  facet normal 0.998533 -0.0541389 0
    outer loop
      vertex 0.214028 0.0289823 3
      vertex 0.203517 -0.164871 3
      vertex 0.203517 -0.164871 0
    endloop
  endfacet
  facet normal 0.96355 0.267528 0
    outer loop
      vertex 0.203517 -0.164871 0
      vertex 0.203517 -0.164871 3
      vertex 0.255455 -0.351933 0
    endloop
  endfacet
  facet normal 0.96355 0.267528 0
    outer loop
      vertex 0.203517 -0.164871 3
      vertex 0.255455 -0.351933 3
      vertex 0.255455 -0.351933 0
    endloop
  endfacet
  facet normal 0.827689 0.561187 0
    outer loop
      vertex 0.255455 -0.351933 0
      vertex 0.255455 -0.351933 3
      vertex 0.364403 -0.51262 0
    endloop
  endfacet
  facet normal 0.827689 0.561187 0
    outer loop
      vertex 0.255455 -0.351933 3
      vertex 0.364403 -0.51262 3
      vertex 0.364403 -0.51262 0
    endloop
  endfacet
  facet normal 0.647386 0.762162 0
    outer loop
      vertex 0.364403 -0.51262 0
      vertex 0.364403 -0.51262 3
      vertex 0.463288 -0.596613 0
    endloop
  endfacet
  facet normal 0.647386 0.762162 0
    outer loop
      vertex 0.364403 -0.51262 3
      vertex 0.463288 -0.596613 3
      vertex 0.463288 -0.596613 0
    endloop
  endfacet
  facet normal 0.515554 0.856857 0
    outer loop
      vertex 0.463288 -0.596613 0
      vertex 0.463288 -0.596613 3
      vertex 0.518955 -0.630107 0
    endloop
  endfacet
  facet normal 0.515554 0.856857 0
    outer loop
      vertex 0.463288 -0.596613 3
      vertex 0.518955 -0.630107 3
      vertex 0.518955 -0.630107 0
    endloop
  endfacet
  facet normal 0.319301 0.947653 0
    outer loop
      vertex 0.518955 -0.630107 0
      vertex 0.518955 -0.630107 3
      vertex 0.702931 -0.692096 0
    endloop
  endfacet
  facet normal 0.319301 0.947653 0
    outer loop
      vertex 0.518955 -0.630107 3
      vertex 0.702931 -0.692096 3
      vertex 0.702931 -0.692096 0
    endloop
  endfacet
  facet normal 0 1 0
    outer loop
      vertex 0.702931 -0.692096 0
      vertex 0.702931 -0.692096 3
      vertex 0.897069 -0.692096 0
    endloop
  endfacet
  facet normal 0 1 0
    outer loop
      vertex 0.702931 -0.692096 3
      vertex 0.897069 -0.692096 3
      vertex 0.897069 -0.692096 0
    endloop
  endfacet
  facet normal -0.319301 0.947653 0
    outer loop
      vertex 0.897069 -0.692096 0
      vertex 0.897069 -0.692096 3
      vertex 1.08105 -0.630107 0
    endloop
  endfacet
  facet normal -0.319301 0.947653 0
    outer loop
      vertex 0.897069 -0.692096 3
      vertex 1.08105 -0.630107 3
      vertex 1.08105 -0.630107 0
    endloop
  endfacet
  facet normal -0.605174 0.796093 0
    outer loop
      vertex 1.08105 -0.630107 0
      vertex 1.08105 -0.630107 3
      vertex 1.2356 -0.51262 0
    endloop
  endfacet
  facet normal -0.605174 0.796093 0
    outer loop
      vertex 1.08105 -0.630107 3
      vertex 1.2356 -0.51262 3
      vertex 1.2356 -0.51262 0
    endloop
  endfacet
  facet normal -0.827689 0.561187 0
    outer loop
      vertex 1.2356 -0.51262 0
      vertex 1.2356 -0.51262 3
      vertex 1.34455 -0.351933 0
    endloop
  endfacet
  facet normal -0.827689 0.561187 0
    outer loop
      vertex 1.2356 -0.51262 3
      vertex 1.34455 -0.351933 3
      vertex 1.34455 -0.351933 0
    endloop
  endfacet
  facet normal -0.96355 0.267528 0
    outer loop
      vertex 1.34455 -0.351933 0
      vertex 1.34455 -0.351933 3
      vertex 1.39648 -0.164871 0
    endloop
  endfacet
  facet normal -0.96355 0.267528 0
    outer loop
      vertex 1.34455 -0.351933 3
      vertex 1.39648 -0.164871 3
      vertex 1.39648 -0.164871 0
    endloop
  endfacet
  facet normal -0.998533 0.0541376 0
    outer loop
      vertex 1.39648 -0.164871 0
      vertex 1.39648 -0.164871 3
      vertex 1.4 -0.1 0
    endloop
  endfacet
  facet normal -0.998533 0.0541376 0
    outer loop
      vertex 1.39648 -0.164871 3
      vertex 1.4 -0.1 3
      vertex 1.4 -0.1 0
    endloop
  endfacet
  facet normal -0.866025 -0.5 0
    outer loop
      vertex 2.42265 -2 3
      vertex 2.42265 -2 0.5
      vertex 3 -3 3
    endloop
  endfacet
  facet normal -0.866025 -0.5 0
    outer loop
      vertex 2.42265 -2 0.5
      vertex 3 -3 0.5
      vertex 3 -3 3
    endloop
  endfacet
  facet normal -0.986827 -0.161782 0
    outer loop
      vertex -1.3 1 0
      vertex -1.3 1 3
      vertex -1.33141 1.19158 0
    endloop
  endfacet
  facet normal -0.986827 -0.161782 0
    outer loop
      vertex -1.3 1 3
      vertex -1.33141 1.19158 3
      vertex -1.33141 1.19158 0
    endloop
  endfacet
  facet normal -0.883512 -0.468408 0
    outer loop
      vertex -1.33141 1.19158 0
      vertex -1.33141 1.19158 3
      vertex -1.42234 1.3631 0
    endloop
  endfacet
  facet normal -0.883512 -0.468408 0
    outer loop
      vertex -1.33141 1.19158 3
      vertex -1.42234 1.3631 3
      vertex -1.42234 1.3631 0
    endloop
  endfacet
  facet normal -0.687699 -0.725996 0
    outer loop
      vertex -1.42234 1.3631 0
      vertex -1.42234 1.3631 3
      vertex -1.56329 1.49661 0
    endloop
  endfacet
  facet normal -0.687699 -0.725996 0
    outer loop
      vertex -1.42234 1.3631 3
      vertex -1.56329 1.49661 3
      vertex -1.56329 1.49661 0
    endloop
  endfacet
  facet normal -0.419889 -0.907575 0
    outer loop
      vertex -1.56329 1.49661 0
      vertex -1.56329 1.49661 3
      vertex -1.73948 1.57813 0
    endloop
  endfacet
  facet normal -0.419889 -0.907575 0
    outer loop
      vertex -1.56329 1.49661 3
      vertex -1.73948 1.57813 3
      vertex -1.73948 1.57813 0
    endloop
  endfacet
  facet normal -0.108119 -0.994138 0
    outer loop
      vertex -1.73948 1.57813 0
      vertex -1.73948 1.57813 3
      vertex -1.93248 1.59912 0
    endloop
  endfacet
  facet normal -0.108119 -0.994138 0
    outer loop
      vertex -1.73948 1.57813 3
      vertex -1.93248 1.59912 3
      vertex -1.93248 1.59912 0
    endloop
  endfacet
  facet normal 0.214971 -0.97662 0
    outer loop
      vertex -1.93248 1.59912 0
      vertex -1.93248 1.59912 3
      vertex -2.12208 1.55739 0
    endloop
  endfacet
  facet normal 0.214971 -0.97662 0
    outer loop
      vertex -1.93248 1.59912 3
      vertex -2.12208 1.55739 3
      vertex -2.12208 1.55739 0
    endloop
  endfacet
  facet normal 0.468409 -0.883512 0
    outer loop
      vertex -2.12208 1.55739 0
      vertex -2.12208 1.55739 3
      vertex -2.23671 1.49661 0
    endloop
  endfacet
  facet normal 0.468409 -0.883512 0
    outer loop
      vertex -2.12208 1.55739 3
      vertex -2.23671 1.49661 3
      vertex -2.23671 1.49661 0
    endloop
  endfacet
  facet normal 0.605173 -0.796094 0
    outer loop
      vertex -2.23671 1.49661 0
      vertex -2.23671 1.49661 3
      vertex -2.28843 1.4573 0
    endloop
  endfacet
  facet normal 0.605173 -0.796094 0
    outer loop
      vertex -2.23671 1.49661 3
      vertex -2.28843 1.4573 3
      vertex -2.28843 1.4573 0
    endloop
  endfacet
  facet normal 0.762162 -0.647386 0
    outer loop
      vertex -2.28843 1.4573 0
      vertex -2.28843 1.4573 3
      vertex -2.41411 1.30933 0
    endloop
  endfacet
  facet normal 0.762162 -0.647386 0
    outer loop
      vertex -2.28843 1.4573 3
      vertex -2.41411 1.30933 3
      vertex -2.41411 1.30933 0
    endloop
  endfacet
  facet normal 0.928977 -0.370138 0
    outer loop
      vertex -2.41411 1.30933 0
      vertex -2.41411 1.30933 3
      vertex -2.48597 1.12898 0
    endloop
  endfacet
  facet normal 0.928977 -0.370138 0
    outer loop
      vertex -2.41411 1.30933 3
      vertex -2.48597 1.12898 3
      vertex -2.48597 1.12898 0
    endloop
  endfacet
  facet normal 0.998533 -0.0541389 0
    outer loop
      vertex -2.48597 1.12898 0
      vertex -2.48597 1.12898 3
      vertex -2.49648 0.935129 0
    endloop
  endfacet
  facet normal 0.998533 -0.0541389 0
    outer loop
      vertex -2.48597 1.12898 3
      vertex -2.49648 0.935129 3
      vertex -2.49648 0.935129 0
    endloop
  endfacet
  facet normal 0.96355 0.267528 0
    outer loop
      vertex -2.49648 0.935129 0
      vertex -2.49648 0.935129 3
      vertex -2.44455 0.748067 0
    endloop
  endfacet
  facet normal 0.96355 0.267528 0
    outer loop
      vertex -2.49648 0.935129 3
      vertex -2.44455 0.748067 3
      vertex -2.44455 0.748067 0
    endloop
  endfacet
  facet normal 0.827689 0.561187 0
    outer loop
      vertex -2.44455 0.748067 0
      vertex -2.44455 0.748067 3
      vertex -2.3356 0.58738 0
    endloop
  endfacet
  facet normal 0.827689 0.561187 0
    outer loop
      vertex -2.44455 0.748067 3
      vertex -2.3356 0.58738 3
      vertex -2.3356 0.58738 0
    endloop
  endfacet
  facet normal 0.647386 0.762162 0
    outer loop
      vertex -2.3356 0.58738 0
      vertex -2.3356 0.58738 3
      vertex -2.23671 0.503387 0
    endloop
  endfacet
  facet normal 0.647386 0.762162 0
    outer loop
      vertex -2.3356 0.58738 3
      vertex -2.23671 0.503387 3
      vertex -2.23671 0.503387 0
    endloop
  endfacet
  facet normal 0.515553 0.856857 0
    outer loop
      vertex -2.23671 0.503387 0
      vertex -2.23671 0.503387 3
      vertex -2.18105 0.469893 0
    endloop
  endfacet
  facet normal 0.515553 0.856857 0
    outer loop
      vertex -2.23671 0.503387 3
      vertex -2.18105 0.469893 3
      vertex -2.18105 0.469893 0
    endloop
  endfacet
  facet normal 0.319302 0.947653 0
    outer loop
      vertex -2.18105 0.469893 0
      vertex -2.18105 0.469893 3
      vertex -1.99707 0.407904 0
    endloop
  endfacet
  facet normal 0.319302 0.947653 0
    outer loop
      vertex -2.18105 0.469893 3
      vertex -1.99707 0.407904 3
      vertex -1.99707 0.407904 0
    endloop
  endfacet
  facet normal 0 1 0
    outer loop
      vertex -1.99707 0.407904 0
      vertex -1.99707 0.407904 3
      vertex -1.80293 0.407904 0
    endloop
  endfacet
  facet normal 0 1 0
    outer loop
      vertex -1.99707 0.407904 3
      vertex -1.80293 0.407904 3
      vertex -1.80293 0.407904 0
    endloop
  endfacet
  facet normal -0.319301 0.947653 0
    outer loop
      vertex -1.80293 0.407904 0
      vertex -1.80293 0.407904 3
      vertex -1.61895 0.469893 0
    endloop
  endfacet
  facet normal -0.319301 0.947653 0
    outer loop
      vertex -1.80293 0.407904 3
      vertex -1.61895 0.469893 3
      vertex -1.61895 0.469893 0
    endloop
  endfacet
  facet normal -0.605174 0.796093 0
    outer loop
      vertex -1.61895 0.469893 0
      vertex -1.61895 0.469893 3
      vertex -1.4644 0.58738 0
    endloop
  endfacet
  facet normal -0.605174 0.796093 0
    outer loop
      vertex -1.61895 0.469893 3
      vertex -1.4644 0.58738 3
      vertex -1.4644 0.58738 0
    endloop
  endfacet
  facet normal -0.827689 0.561187 0
    outer loop
      vertex -1.4644 0.58738 0
      vertex -1.4644 0.58738 3
      vertex -1.35545 0.748067 0
    endloop
  endfacet
  facet normal -0.827689 0.561187 0
    outer loop
      vertex -1.4644 0.58738 3
      vertex -1.35545 0.748067 3
      vertex -1.35545 0.748067 0
    endloop
  endfacet
  facet normal -0.96355 0.267528 0
    outer loop
      vertex -1.35545 0.748067 0
      vertex -1.35545 0.748067 3
      vertex -1.30352 0.935129 0
    endloop
  endfacet
  facet normal -0.96355 0.267528 0
    outer loop
      vertex -1.35545 0.748067 3
      vertex -1.30352 0.935129 3
      vertex -1.30352 0.935129 0
    endloop
  endfacet
  facet normal -0.998533 0.0541393 0
    outer loop
      vertex -1.30352 0.935129 0
      vertex -1.30352 0.935129 3
      vertex -1.3 1 0
    endloop
  endfacet
  facet normal -0.998533 0.0541393 0
    outer loop
      vertex -1.30352 0.935129 3
      vertex -1.3 1 3
      vertex -1.3 1 0
    endloop
  endfacet
  facet normal -1 0 0
    outer loop
      vertex -4.5 -3 3
      vertex -4.5 3 3
      vertex -4.5 -3 0
    endloop
  endfacet
  facet normal -1 0 0
    outer loop
      vertex -4.5 3 3
      vertex -4.5 3 0
      vertex -4.5 -3 0
    endloop
  endfacet
  facet normal 0 1 0
    outer loop
      vertex 2.42265 2 3
      vertex 2.42265 2 0.5
      vertex 1.57735 2 3
    endloop
  endfacet
  facet normal 0 1 0
    outer loop
      vertex 2.42265 2 0.5
      vertex 1.57735 2 0.5
      vertex 1.57735 2 3
    endloop
  endfacet
  facet normal 1 0 0
    outer loop
      vertex 4.5 3 0
      vertex 4.5 3 3
      vertex 4.5 -3 0
    endloop
  endfacet
  facet normal 1 0 0
    outer loop
      vertex 4.5 3 3
      vertex 4.5 -3 3
      vertex 4.5 -3 0
    endloop
  endfacet
  facet normal -0.866025 0.5 0
    outer loop
      vertex 3 3 3
      vertex 3 3 0.5
      vertex 2.42265 2 3
    endloop
  endfacet
  facet normal -0.866025 0.5 0
    outer loop
      vertex 3 3 0.5
      vertex 2.42265 2 0.5
      vertex 2.42265 2 3
    endloop
  endfacet
  facet normal 0.866025 0.5 0
    outer loop
      vertex 1 3 3
      vertex 1.57735 2 3
      vertex 1 3 0.5
    endloop
  endfacet
  facet normal 0.866025 0.5 0
    outer loop
      vertex 1.57735 2 3
      vertex 1.57735 2 0.5
      vertex 1 3 0.5
    endloop
  endfacet
  facet normal 0 0 1
    outer loop
      vertex 1.57735 2 0.5
      vertex 2.42265 2 0.5
      vertex 1 3 0.5
    endloop
  endfacet
  facet normal 0 0 1
    outer loop
      vertex 2.42265 2 0.5
      vertex 3 3 0.5
      vertex 1 3 0.5
    endloop
  endfacet
  facet normal 0 0 1
    outer loop
      vertex -1.5 -2.1 0
      vertex -1.5 -3 0
      vertex 1.5 -2.1 0
    endloop
  endfacet
  facet normal 0 0 1
    outer loop
      vertex -1.5 -3 0
      vertex 1.5 -3 0
      vertex 1.5 -2.1 0
    endloop
  endfacet
  facet normal 0 0 -1
    outer loop
      vertex -1.5 -3 -2.8
      vertex -1.5 -2.1 -2.8
      vertex 1.5 -3 -2.8
    endloop
  endfacet
  facet normal 0 0 -1
    outer loop
      vertex -1.5 -2.1 -2.8
      vertex 1.5 -2.1 -2.8
      vertex 1.5 -3 -2.8
    endloop
  endfacet
  facet normal 0 -1 0
    outer loop
      vertex -1.5 -3 -2.8
      vertex 1.5 -3 -2.8
      vertex -1.5 -3 0
    endloop
  endfacet
  facet normal 0 -1 0
    outer loop
      vertex 1.5 -3 -2.8
      vertex 1.5 -3 0
      vertex -1.5 -3 0
    endloop
  endfacet
  facet normal 1 0 0
    outer loop
      vertex 1.5 -3 0
      vertex 1.5 -3 -2.8
      vertex 1.5 -2.1 0
    endloop
  endfacet
  facet normal 1 0 0
    outer loop
      vertex 1.5 -3 -2.8
      vertex 1.5 -2.1 -2.8
      vertex 1.5 -2.1 0
    endloop
  endfacet
  facet normal -1 0 0
    outer loop
      vertex -1.5 -2.1 0
      vertex -1.5 -2.1 -2.8
      vertex -1.5 -3 0
    endloop
  endfacet
  facet normal -1 0 0
    outer loop
      vertex -1.5 -2.1 -2.8
      vertex -1.5 -3 -2.8
      vertex -1.5 -3 0
    endloop
  endfacet
  facet normal 0 1 0
    outer loop
      vertex 1.5 -2.1 0
      vertex 1.5 -2.1 -2.8
      vertex -1.5 -2.1 0
    endloop
  endfacet
  facet normal 0 1 0
    outer loop
      vertex 1.5 -2.1 -2.8
      vertex -1.5 -2.1 -2.8
      vertex -1.5 -2.1 0
    endloop
  endfacet
endsolid Mesh
