solid Mesh
  facet normal 0 1 0
    outer loop
      vertex 5.5 -3 2.8
      vertex 5.5 -3 1.8
      vertex 3.5 -3 2.8
    endloop
  endfacet
  facet normal 0 1 0
    outer loop
      vertex 5.5 -3 1.8
      vertex 3.5 -3 1.8
      vertex 3.5 -3 2.8
    endloop
  endfacet
  facet normal 0 -1 0
    outer loop
      vertex 5.5 -4 1.8
      vertex 5.5 -4 2.8
      vertex 3.5 -4 1.8
    endloop
  endfacet
  facet normal 0 -1 0
    outer loop
      vertex 5.5 -4 2.8
      vertex 3.5 -4 2.8
      vertex 3.5 -4 1.8
    endloop
  endfacet
  facet normal 0 0 -1
    outer loop
      vertex 5.5 -4 1.8
      vertex 3.5 -4 1.8
      vertex 5.5 -3 1.8
    endloop
  endfacet
  facet normal 0 0 -1
    outer loop
      vertex 3.5 -4 1.8
      vertex 3.5 -3 1.8
      vertex 5.5 -3 1.8
    endloop
  endfacet
  facet normal -1 0 0
    outer loop
      vertex 3.5 -3 1.8
      vertex 3.5 -4 1.8
      vertex 3.5 -3 2.8
    endloop
  endfacet
  facet normal -1 0 0
    outer loop
      vertex 3.5 -4 1.8
      vertex 3.5 -4 2.8
      vertex 3.5 -3 2.8
    endloop
  endfacet
  facet normal 1 0 0
    outer loop
      vertex 5.5 -3 2.8
      vertex 5.5 -4 2.8
      vertex 5.5 -3 1.8
    endloop
  endfacet
  facet normal 1 0 0
    outer loop
      vertex 5.5 -4 2.8
      vertex 5.5 -4 1.8
      vertex 5.5 -3 1.8
    endloop
  endfacet
  facet normal 0 0 1
    outer loop
      vertex 3.5 -3 2.8
      vertex 3.5 -4 2.8
      vertex 5.5 -3 2.8
    endloop
  endfacet
  facet normal 0 0 1
    outer loop
      vertex 3.5 -4 2.8
      vertex 5.5 -4 2.8
      vertex 5.5 -3 2.8
    endloop
  endfacet
  facet normal 1 0 0
    outer loop
      vertex -1.5 -3 0
      vertex -1.5 -2 0
      vertex -1.5 -3 2.8
    endloop
  endfacet
  facet normal 1 0 0
    outer loop
      vertex -1.5 -2 0
      vertex -1.5 -2 2.8
      vertex -1.5 -3 2.8
    endloop
  endfacet
  facet normal -1 0 0
    outer loop
      vertex 1.5 -3 0
      vertex 1.5 -3 2.8
      vertex 1.5 -2 0
    endloop
  endfacet
  facet normal -1 0 0
    outer loop
      vertex 1.5 -3 2.8
      vertex 1.5 -2 2.8
      vertex 1.5 -2 0
    endloop
  endfacet
  facet normal 0 0 1
    outer loop
      vertex -5.5 -3 2.8
      vertex -1.5 -3 2.8
      vertex -5.5 3 2.8
    endloop
  endfacet
  facet normal 0 0 1
    outer loop
      vertex -1.5 -3 2.8
      vertex -1.5 -2 2.8
      vertex -5.5 3 2.8
    endloop
  endfacet
  facet normal 0 0 1
    outer loop
      vertex 1.5 -3 2.8
      vertex 5.5 -3 2.8
      vertex 1.5 -2 2.8
    endloop
  endfacet
  facet normal 0 0 1
    outer loop
      vertex 5.5 -3 2.8
      vertex 5.5 3 2.8
      vertex 1.5 -2 2.8
    endloop
  endfacet
  facet normal 0 0 1
    outer loop
      vertex 5.5 3 2.8
      vertex 2.65 1 2.8
      vertex 2.6456 0.918911 2.8
    endloop
  endfacet
  facet normal 0 0 1
    outer loop
      vertex 1.48068 -0.414917 2.8
      vertex 1.3445 -0.615775 2.8
      vertex 1.5 -2 2.8
    endloop
  endfacet
  facet normal 0 0 1
    outer loop
      vertex 1.3445 -0.615775 2.8
      vertex 1.15131 -0.762634 2.8
      vertex 1.5 -2 2.8
    endloop
  endfacet
  facet normal 0 0 1
    outer loop
      vertex 1.5 -2 2.8
      vertex 1.15131 -0.762634 2.8
      vertex 0.921337 -0.84012 2.8
    endloop
  endfacet
  facet normal 0 0 1
    outer loop
      vertex -2.58068 0.685083 2.8
      vertex -2.6456 0.918911 2.8
      vertex -5.5 3 2.8
    endloop
  endfacet
  facet normal 0 0 1
    outer loop
      vertex 1.8594 1.7489 2.8
      vertex 2.10065 1.72266 2.8
      vertex 5.5 3 2.8
    endloop
  endfacet
  facet normal 0 0 1
    outer loop
      vertex 2.10065 1.72266 2.8
      vertex 2.32089 1.62077 2.8
      vertex 5.5 3 2.8
    endloop
  endfacet
  facet normal 0 0 1
    outer loop
      vertex 2.25131 0.337366 2.8
      vertex 1.55 -0.1 2.8
      vertex 1.5456 -0.181089 2.8
    endloop
  endfacet
  facet normal 0 0 1
    outer loop
      vertex 0.119318 -0.414917 2.8
      vertex -0.0543965 -0.181089 2.8
      vertex -0.119318 -0.414917 2.8
    endloop
  endfacet
  facet normal 0 0 1
    outer loop
      vertex 1.22089 0.520767 2.8
      vertex 1.21932 0.685083 2.8
      vertex 1.00065 0.622662 2.8
    endloop
  endfacet
  facet normal 0 0 1
    outer loop
      vertex 1.21932 0.685083 2.8
      vertex 1.1544 0.918911 2.8
      vertex 1.00065 0.622662 2.8
    endloop
  endfacet
  facet normal 0 0 1
    outer loop
      vertex 1.00065 0.622662 2.8
      vertex 1.1544 0.918911 2.8
      vertex 0.759396 0.6489 2.8
    endloop
  endfacet
  facet normal 0 0 1
    outer loop
      vertex 2.32089 1.62077 2.8
      vertex 2.49707 1.45388 2.8
      vertex 5.5 3 2.8
    endloop
  endfacet
  facet normal 0 0 1
    outer loop
      vertex 2.49707 1.45388 2.8
      vertex 2.61074 1.23948 2.8
      vertex 5.5 3 2.8
    endloop
  endfacet
  facet normal 0 0 1
    outer loop
      vertex 5.5 3 2.8
      vertex 2.61074 1.23948 2.8
      vertex 2.65 1 2.8
    endloop
  endfacet
  facet normal 0 0 1
    outer loop
      vertex 0.37911 0.520767 2.8
      vertex 0.522396 0.596733 2.8
      vertex -0.37911 0.520767 2.8
    endloop
  endfacet
  facet normal 0 0 1
    outer loop
      vertex 2.25131 0.337366 2.8
      vertex 2.02134 0.25988 2.8
      vertex 1.55 -0.1 2.8
    endloop
  endfacet
  facet normal 0 0 1
    outer loop
      vertex 2.02134 0.25988 2.8
      vertex 1.77866 0.25988 2.8
      vertex 1.55 -0.1 2.8
    endloop
  endfacet
  facet normal 0 0 1
    outer loop
      vertex 1.55 -0.1 2.8
      vertex 1.77866 0.25988 2.8
      vertex 1.51074 0.139476 2.8
    endloop
  endfacet
  facet normal 0 0 1
    outer loop
      vertex 1.77866 0.25988 2.8
      vertex 1.54869 0.337366 2.8
      vertex 1.51074 0.139476 2.8
    endloop
  endfacet
  facet normal 0 0 1
    outer loop
      vertex 1.51074 0.139476 2.8
      vertex 1.54869 0.337366 2.8
      vertex 1.39707 0.353881 2.8
    endloop
  endfacet
  facet normal 0 0 1
    outer loop
      vertex 1.54869 0.337366 2.8
      vertex 1.47911 0.379233 2.8
      vertex 1.39707 0.353881 2.8
    endloop
  endfacet
  facet normal 0 0 1
    outer loop
      vertex 1.39707 0.353881 2.8
      vertex 1.47911 0.379233 2.8
      vertex 1.22089 0.520767 2.8
    endloop
  endfacet
  facet normal 0 0 1
    outer loop
      vertex 1.47911 0.379233 2.8
      vertex 1.3555 0.484225 2.8
      vertex 1.22089 0.520767 2.8
    endloop
  endfacet
  facet normal 0 0 1
    outer loop
      vertex 1.22089 0.520767 2.8
      vertex 1.3555 0.484225 2.8
      vertex 1.21932 0.685083 2.8
    endloop
  endfacet
  facet normal 0 0 1
    outer loop
      vertex 2.6456 0.918911 2.8
      vertex 2.58068 0.685083 2.8
      vertex 5.5 3 2.8
    endloop
  endfacet
  facet normal 0 0 1
    outer loop
      vertex 2.58068 0.685083 2.8
      vertex 2.4445 0.484225 2.8
      vertex 5.5 3 2.8
    endloop
  endfacet
  facet normal 0 0 1
    outer loop
      vertex 5.5 3 2.8
      vertex 2.4445 0.484225 2.8
      vertex 1.5 -2 2.8
    endloop
  endfacet
  facet normal 0 0 1
    outer loop
      vertex 2.4445 0.484225 2.8
      vertex 2.25131 0.337366 2.8
      vertex 1.5 -2 2.8
    endloop
  endfacet
  facet normal 0 0 1
    outer loop
      vertex 1.5 -2 2.8
      vertex 2.25131 0.337366 2.8
      vertex 1.48068 -0.414917 2.8
    endloop
  endfacet
  facet normal 0 0 1
    outer loop
      vertex 2.25131 0.337366 2.8
      vertex 1.5456 -0.181089 2.8
      vertex 1.48068 -0.414917 2.8
    endloop
  endfacet
  facet normal 0 0 1
    outer loop
      vertex -0.678663 -0.84012 2.8
      vertex -1.5 -2 2.8
      vertex -0.448694 -0.762634 2.8
    endloop
  endfacet
  facet normal 0 0 1
    outer loop
      vertex -1.5 -2 2.8
      vertex 1.5 -2 2.8
      vertex -0.448694 -0.762634 2.8
    endloop
  endfacet
  facet normal 0 0 1
    outer loop
      vertex -0.448694 -0.762634 2.8
      vertex 1.5 -2 2.8
      vertex -0.255503 -0.615775 2.8
    endloop
  endfacet
  facet normal 0 0 1
    outer loop
      vertex -1.15 1 2.8
      vertex 1.1544 0.918911 2.8
      vertex -1.18926 1.23948 2.8
    endloop
  endfacet
  facet normal 0 0 1
    outer loop
      vertex 1.1544 0.918911 2.8
      vertex 1.16753 1.16123 2.8
      vertex -1.18926 1.23948 2.8
    endloop
  endfacet
  facet normal 0 0 1
    outer loop
      vertex -1.18926 1.23948 2.8
      vertex 1.16753 1.16123 2.8
      vertex -1.30293 1.45388 2.8
    endloop
  endfacet
  facet normal 0 0 1
    outer loop
      vertex 1.16753 1.16123 2.8
      vertex 1.25736 1.38667 2.8
      vertex -1.30293 1.45388 2.8
    endloop
  endfacet
  facet normal 0 0 1
    outer loop
      vertex -1.30293 1.45388 2.8
      vertex 1.25736 1.38667 2.8
      vertex 1.41446 1.57162 2.8
    endloop
  endfacet
  facet normal 0 0 1
    outer loop
      vertex 0.921337 -0.84012 2.8
      vertex 0.678663 -0.84012 2.8
      vertex 1.5 -2 2.8
    endloop
  endfacet
  facet normal 0 0 1
    outer loop
      vertex 0.678663 -0.84012 2.8
      vertex 0.448694 -0.762634 2.8
      vertex 1.5 -2 2.8
    endloop
  endfacet
  facet normal 0 0 1
    outer loop
      vertex 1.5 -2 2.8
      vertex 0.448694 -0.762634 2.8
      vertex -0.255503 -0.615775 2.8
    endloop
  endfacet
  facet normal 0 0 1
    outer loop
      vertex 0.448694 -0.762634 2.8
      vertex 0.37911 -0.720767 2.8
      vertex -0.255503 -0.615775 2.8
    endloop
  endfacet
  facet normal 0 0 1
    outer loop
      vertex -0.255503 -0.615775 2.8
      vertex 0.37911 -0.720767 2.8
      vertex -0.119318 -0.414917 2.8
    endloop
  endfacet
  facet normal 0 0 1
    outer loop
      vertex 0.37911 -0.720767 2.8
      vertex 0.255503 -0.615775 2.8
      vertex -0.119318 -0.414917 2.8
    endloop
  endfacet
  facet normal 0 0 1
    outer loop
      vertex -0.119318 -0.414917 2.8
      vertex 0.255503 -0.615775 2.8
      vertex 0.119318 -0.414917 2.8
    endloop
  endfacet
  facet normal 0 0 1
    outer loop
      vertex -2.58068 0.685083 2.8
      vertex -5.5 3 2.8
      vertex -2.4445 0.484225 2.8
    endloop
  endfacet
  facet normal 0 0 1
    outer loop
      vertex -5.5 3 2.8
      vertex -1.5 -2 2.8
      vertex -2.4445 0.484225 2.8
    endloop
  endfacet
  facet normal 0 0 1
    outer loop
      vertex -2.4445 0.484225 2.8
      vertex -1.5 -2 2.8
      vertex -2.32089 0.379233 2.8
    endloop
  endfacet
  facet normal 0 0 1
    outer loop
      vertex -1.69935 1.72266 2.8
      vertex 5.5 3 2.8
      vertex -1.9406 1.7489 2.8
    endloop
  endfacet
  facet normal 0 0 1
    outer loop
      vertex 5.5 3 2.8
      vertex -5.5 3 2.8
      vertex -1.9406 1.7489 2.8
    endloop
  endfacet
  facet normal 0 0 1
    outer loop
      vertex -1.69935 1.72266 2.8
      vertex -1.47911 1.62077 2.8
      vertex 5.5 3 2.8
    endloop
  endfacet
  facet normal 0 0 1
    outer loop
      vertex -1.47911 1.62077 2.8
      vertex -1.30293 1.45388 2.8
      vertex 5.5 3 2.8
    endloop
  endfacet
  facet normal 0 0 1
    outer loop
      vertex 5.5 3 2.8
      vertex -1.30293 1.45388 2.8
      vertex 1.8594 1.7489 2.8
    endloop
  endfacet
  facet normal 0 0 1
    outer loop
      vertex -0.37911 0.520767 2.8
      vertex 0.522396 0.596733 2.8
      vertex -0.599354 0.622662 2.8
    endloop
  endfacet
  facet normal 0 0 1
    outer loop
      vertex 1.41446 1.57162 2.8
      vertex 1.47911 1.62077 2.8
      vertex -1.30293 1.45388 2.8
    endloop
  endfacet
  facet normal 0 0 1
    outer loop
      vertex 1.47911 1.62077 2.8
      vertex 1.6224 1.69673 2.8
      vertex -1.30293 1.45388 2.8
    endloop
  endfacet
  facet normal 0 0 1
    outer loop
      vertex -1.30293 1.45388 2.8
      vertex 1.6224 1.69673 2.8
      vertex 1.8594 1.7489 2.8
    endloop
  endfacet
  facet normal 0 0 1
    outer loop
      vertex -0.678663 -0.84012 2.8
      vertex -0.921337 -0.84012 2.8
      vertex -1.5 -2 2.8
    endloop
  endfacet
  facet normal 0 0 1
    outer loop
      vertex -0.921337 -0.84012 2.8
      vertex -1.15131 -0.762634 2.8
      vertex -1.5 -2 2.8
    endloop
  endfacet
  facet normal 0 0 1
    outer loop
      vertex -1.5 -2 2.8
      vertex -1.15131 -0.762634 2.8
      vertex -1.22089 -0.720767 2.8
    endloop
  endfacet
  facet normal 0 0 1
    outer loop
      vertex -1.77866 0.25988 2.8
      vertex -2.02134 0.25988 2.8
      vertex -1.53247 0.0612278 2.8
    endloop
  endfacet
  facet normal 0 0 1
    outer loop
      vertex -2.02134 0.25988 2.8
      vertex -2.25131 0.337366 2.8
      vertex -1.53247 0.0612278 2.8
    endloop
  endfacet
  facet normal 0 0 1
    outer loop
      vertex -1.53247 0.0612278 2.8
      vertex -2.25131 0.337366 2.8
      vertex -1.5456 -0.181089 2.8
    endloop
  endfacet
  facet normal 0 0 1
    outer loop
      vertex -2.25131 0.337366 2.8
      vertex -2.32089 0.379233 2.8
      vertex -1.5456 -0.181089 2.8
    endloop
  endfacet
  facet normal 0 0 1
    outer loop
      vertex -1.5456 -0.181089 2.8
      vertex -2.32089 0.379233 2.8
      vertex -1.48068 -0.414917 2.8
    endloop
  endfacet
  facet normal 0 0 1
    outer loop
      vertex -2.32089 0.379233 2.8
      vertex -1.5 -2 2.8
      vertex -1.48068 -0.414917 2.8
    endloop
  endfacet
  facet normal 0 0 1
    outer loop
      vertex -1.48068 -0.414917 2.8
      vertex -1.5 -2 2.8
      vertex -1.3445 -0.615775 2.8
    endloop
  endfacet
  facet normal 0 0 1
    outer loop
      vertex -1.5 -2 2.8
      vertex -1.22089 -0.720767 2.8
      vertex -1.3445 -0.615775 2.8
    endloop
  endfacet
  facet normal 0 0 1
    outer loop
      vertex -2.6456 0.918911 2.8
      vertex -2.63247 1.16123 2.8
      vertex -5.5 3 2.8
    endloop
  endfacet
  facet normal 0 0 1
    outer loop
      vertex -2.63247 1.16123 2.8
      vertex -2.54264 1.38667 2.8
      vertex -5.5 3 2.8
    endloop
  endfacet
  facet normal 0 0 1
    outer loop
      vertex -5.5 3 2.8
      vertex -2.54264 1.38667 2.8
      vertex -2.38554 1.57162 2.8
    endloop
  endfacet
  facet normal 0 0 1
    outer loop
      vertex -2.38554 1.57162 2.8
      vertex -2.32089 1.62077 2.8
      vertex -5.5 3 2.8
    endloop
  endfacet
  facet normal 0 0 1
    outer loop
      vertex -2.32089 1.62077 2.8
      vertex -2.1776 1.69673 2.8
      vertex -5.5 3 2.8
    endloop
  endfacet
  facet normal 0 0 1
    outer loop
      vertex -5.5 3 2.8
      vertex -2.1776 1.69673 2.8
      vertex -1.9406 1.7489 2.8
    endloop
  endfacet
  facet normal 0 0 1
    outer loop
      vertex 0.759396 0.6489 2.8
      vertex 1.1544 0.918911 2.8
      vertex 0.522396 0.596733 2.8
    endloop
  endfacet
  facet normal 0 0 1
    outer loop
      vertex 1.1544 0.918911 2.8
      vertex -1.15 1 2.8
      vertex 0.522396 0.596733 2.8
    endloop
  endfacet
  facet normal 0 0 1
    outer loop
      vertex 0.522396 0.596733 2.8
      vertex -1.15 1 2.8
      vertex -0.599354 0.622662 2.8
    endloop
  endfacet
  facet normal 0 0 1
    outer loop
      vertex -1.15 1 2.8
      vertex -1.1544 0.918911 2.8
      vertex -0.599354 0.622662 2.8
    endloop
  endfacet
  facet normal 0 0 1
    outer loop
      vertex -0.599354 0.622662 2.8
      vertex -1.1544 0.918911 2.8
      vertex -0.840604 0.6489 2.8
    endloop
  endfacet
  facet normal 0 0 1
    outer loop
      vertex -1.1544 0.918911 2.8
      vertex -1.21932 0.685083 2.8
      vertex -0.840604 0.6489 2.8
    endloop
  endfacet
  facet normal 0 0 1
    outer loop
      vertex -0.840604 0.6489 2.8
      vertex -1.21932 0.685083 2.8
      vertex -1.0776 0.596733 2.8
    endloop
  endfacet
  facet normal 0 0 1
    outer loop
      vertex -0.0543965 -0.181089 2.8
      vertex 0.119318 -0.414917 2.8
      vertex -0.05 -0.1 2.8
    endloop
  endfacet
  facet normal 0 0 1
    outer loop
      vertex 0.119318 -0.414917 2.8
      vertex 0.0543965 -0.181089 2.8
      vertex -0.05 -0.1 2.8
    endloop
  endfacet
  facet normal 0 0 1
    outer loop
      vertex -0.05 -0.1 2.8
      vertex 0.0543965 -0.181089 2.8
      vertex -0.0892601 0.139476 2.8
    endloop
  endfacet
  facet normal 0 0 1
    outer loop
      vertex 0.0543965 -0.181089 2.8
      vertex 0.0675346 0.0612278 2.8
      vertex -0.0892601 0.139476 2.8
    endloop
  endfacet
  facet normal 0 0 1
    outer loop
      vertex -0.0892601 0.139476 2.8
      vertex 0.0675346 0.0612278 2.8
      vertex -0.20293 0.353881 2.8
    endloop
  endfacet
  facet normal 0 0 1
    outer loop
      vertex 0.0675346 0.0612278 2.8
      vertex 0.157357 0.286665 2.8
      vertex -0.20293 0.353881 2.8
    endloop
  endfacet
  facet normal 0 0 1
    outer loop
      vertex -0.20293 0.353881 2.8
      vertex 0.157357 0.286665 2.8
      vertex -0.37911 0.520767 2.8
    endloop
  endfacet
  facet normal 0 0 1
    outer loop
      vertex 0.157357 0.286665 2.8
      vertex 0.31446 0.471622 2.8
      vertex -0.37911 0.520767 2.8
    endloop
  endfacet
  facet normal 0 0 1
    outer loop
      vertex -0.37911 0.520767 2.8
      vertex 0.31446 0.471622 2.8
      vertex 0.37911 0.520767 2.8
    endloop
  endfacet
  facet normal 0 0 1
    outer loop
      vertex -1.77866 0.25988 2.8
      vertex -1.53247 0.0612278 2.8
      vertex -1.54869 0.337366 2.8
    endloop
  endfacet
  facet normal 0 0 1
    outer loop
      vertex -1.53247 0.0612278 2.8
      vertex -1.44264 0.286665 2.8
      vertex -1.54869 0.337366 2.8
    endloop
  endfacet
  facet normal 0 0 1
    outer loop
      vertex -1.54869 0.337366 2.8
      vertex -1.44264 0.286665 2.8
      vertex -1.3555 0.484225 2.8
    endloop
  endfacet
  facet normal 0 0 1
    outer loop
      vertex -1.44264 0.286665 2.8
      vertex -1.28554 0.471622 2.8
      vertex -1.3555 0.484225 2.8
    endloop
  endfacet
  facet normal 0 0 1
    outer loop
      vertex -1.3555 0.484225 2.8
      vertex -1.28554 0.471622 2.8
      vertex -1.21932 0.685083 2.8
    endloop
  endfacet
  facet normal 0 0 1
    outer loop
      vertex -1.28554 0.471622 2.8
      vertex -1.22089 0.520767 2.8
      vertex -1.21932 0.685083 2.8
    endloop
  endfacet
  facet normal 0 0 1
    outer loop
      vertex -1.21932 0.685083 2.8
      vertex -1.22089 0.520767 2.8
      vertex -1.0776 0.596733 2.8
    endloop
  endfacet
  facet normal -1 0 0
    outer loop
      vertex -5.5 -3 2.8
      vertex -5.5 3 2.8
      vertex -5.5 -3 0
    endloop
  endfacet
  facet normal -1 0 0
    outer loop
      vertex -5.5 3 2.8
      vertex -5.5 3 0
      vertex -5.5 -3 0
    endloop
  endfacet
  facet normal -0.986827 -0.161782 0
    outer loop
      vertex -1.15 1 0
      vertex -1.15 1 2.8
      vertex -1.18926 1.23948 0
    endloop
  endfacet
  facet normal -0.986827 -0.161782 0
    outer loop
      vertex -1.15 1 2.8
      vertex -1.18926 1.23948 2.8
      vertex -1.18926 1.23948 0
    endloop
  endfacet
  facet normal -0.883512 -0.468408 0
    outer loop
      vertex -1.18926 1.23948 0
      vertex -1.18926 1.23948 2.8
      vertex -1.30293 1.45388 0
    endloop
  endfacet
  facet normal -0.883512 -0.468408 0
    outer loop
      vertex -1.18926 1.23948 2.8
      vertex -1.30293 1.45388 2.8
      vertex -1.30293 1.45388 0
    endloop
  endfacet
  facet normal -0.687699 -0.725996 0
    outer loop
      vertex -1.30293 1.45388 0
      vertex -1.30293 1.45388 2.8
      vertex -1.47911 1.62077 0
    endloop
  endfacet
  facet normal -0.687699 -0.725996 0
    outer loop
      vertex -1.30293 1.45388 2.8
      vertex -1.47911 1.62077 2.8
      vertex -1.47911 1.62077 0
    endloop
  endfacet
  facet normal -0.419889 -0.907575 0
    outer loop
      vertex -1.47911 1.62077 0
      vertex -1.47911 1.62077 2.8
      vertex -1.69935 1.72266 0
    endloop
  endfacet
  facet normal -0.419889 -0.907575 0
    outer loop
      vertex -1.47911 1.62077 2.8
      vertex -1.69935 1.72266 2.8
      vertex -1.69935 1.72266 0
    endloop
  endfacet
  facet normal -0.108119 -0.994138 0
    outer loop
      vertex -1.69935 1.72266 0
      vertex -1.69935 1.72266 2.8
      vertex -1.9406 1.7489 0
    endloop
  endfacet
  facet normal -0.108119 -0.994138 0
    outer loop
      vertex -1.69935 1.72266 2.8
      vertex -1.9406 1.7489 2.8
      vertex -1.9406 1.7489 0
    endloop
  endfacet
  facet normal 0.21497 -0.976621 0
    outer loop
      vertex -1.9406 1.7489 0
      vertex -1.9406 1.7489 2.8
      vertex -2.1776 1.69673 0
    endloop
  endfacet
  facet normal 0.21497 -0.976621 0
    outer loop
      vertex -1.9406 1.7489 2.8
      vertex -2.1776 1.69673 2.8
      vertex -2.1776 1.69673 0
    endloop
  endfacet
  facet normal 0.468409 -0.883512 0
    outer loop
      vertex -2.1776 1.69673 0
      vertex -2.1776 1.69673 2.8
      vertex -2.32089 1.62077 0
    endloop
  endfacet
  facet normal 0.468409 -0.883512 0
    outer loop
      vertex -2.1776 1.69673 2.8
      vertex -2.32089 1.62077 2.8
      vertex -2.32089 1.62077 0
    endloop
  endfacet
  facet normal 0.605174 -0.796093 0
    outer loop
      vertex -2.32089 1.62077 0
      vertex -2.32089 1.62077 2.8
      vertex -2.38554 1.57162 0
    endloop
  endfacet
  facet normal 0.605174 -0.796093 0
    outer loop
      vertex -2.32089 1.62077 2.8
      vertex -2.38554 1.57162 2.8
      vertex -2.38554 1.57162 0
    endloop
  endfacet
  facet normal 0.762162 -0.647386 0
    outer loop
      vertex -2.38554 1.57162 0
      vertex -2.38554 1.57162 2.8
      vertex -2.54264 1.38667 0
    endloop
  endfacet
  facet normal 0.762162 -0.647386 0
    outer loop
      vertex -2.38554 1.57162 2.8
      vertex -2.54264 1.38667 2.8
      vertex -2.54264 1.38667 0
    endloop
  endfacet
  facet normal 0.928977 -0.370138 0
    outer loop
      vertex -2.54264 1.38667 0
      vertex -2.54264 1.38667 2.8
      vertex -2.63247 1.16123 0
    endloop
  endfacet
  facet normal 0.928977 -0.370138 0
    outer loop
      vertex -2.54264 1.38667 2.8
      vertex -2.63247 1.16123 2.8
      vertex -2.63247 1.16123 0
    endloop
  endfacet
  facet normal 0.998533 -0.0541384 0
    outer loop
      vertex -2.63247 1.16123 0
      vertex -2.63247 1.16123 2.8
      vertex -2.6456 0.918911 0
    endloop
  endfacet
  facet normal 0.998533 -0.0541384 0
    outer loop
      vertex -2.63247 1.16123 2.8
      vertex -2.6456 0.918911 2.8
      vertex -2.6456 0.918911 0
    endloop
  endfacet
  facet normal 0.96355 0.267528 0
    outer loop
      vertex -2.6456 0.918911 0
      vertex -2.6456 0.918911 2.8
      vertex -2.58068 0.685083 0
    endloop
  endfacet
  facet normal 0.96355 0.267528 0
    outer loop
      vertex -2.6456 0.918911 2.8
      vertex -2.58068 0.685083 2.8
      vertex -2.58068 0.685083 0
    endloop
  endfacet
  facet normal 0.827689 0.561187 0
    outer loop
      vertex -2.58068 0.685083 0
      vertex -2.58068 0.685083 2.8
      vertex -2.4445 0.484225 0
    endloop
  endfacet
  facet normal 0.827689 0.561187 0
    outer loop
      vertex -2.58068 0.685083 2.8
      vertex -2.4445 0.484225 2.8
      vertex -2.4445 0.484225 0
    endloop
  endfacet
  facet normal 0.647386 0.762162 0
    outer loop
      vertex -2.4445 0.484225 0
      vertex -2.4445 0.484225 2.8
      vertex -2.32089 0.379233 0
    endloop
  endfacet
  facet normal 0.647386 0.762162 0
    outer loop
      vertex -2.4445 0.484225 2.8
      vertex -2.32089 0.379233 2.8
      vertex -2.32089 0.379233 0
    endloop
  endfacet
  facet normal 0.515554 0.856857 0
    outer loop
      vertex -2.32089 0.379233 0
      vertex -2.32089 0.379233 2.8
      vertex -2.25131 0.337366 0
    endloop
  endfacet
  facet normal 0.515554 0.856857 0
    outer loop
      vertex -2.32089 0.379233 2.8
      vertex -2.25131 0.337366 2.8
      vertex -2.25131 0.337366 0
    endloop
  endfacet
  facet normal 0.319301 0.947653 0
    outer loop
      vertex -2.25131 0.337366 0
      vertex -2.25131 0.337366 2.8
      vertex -2.02134 0.25988 0
    endloop
  endfacet
  facet normal 0.319301 0.947653 0
    outer loop
      vertex -2.25131 0.337366 2.8
      vertex -2.02134 0.25988 2.8
      vertex -2.02134 0.25988 0
    endloop
  endfacet
  facet normal 0 1 0
    outer loop
      vertex -2.02134 0.25988 0
      vertex -2.02134 0.25988 2.8
      vertex -1.77866 0.25988 0
    endloop
  endfacet
  facet normal 0 1 0
    outer loop
      vertex -2.02134 0.25988 2.8
      vertex -1.77866 0.25988 2.8
      vertex -1.77866 0.25988 0
    endloop
  endfacet
  facet normal -0.319301 0.947653 0
    outer loop
      vertex -1.77866 0.25988 0
      vertex -1.77866 0.25988 2.8
      vertex -1.54869 0.337366 0
    endloop
  endfacet
  facet normal -0.319301 0.947653 0
    outer loop
      vertex -1.77866 0.25988 2.8
      vertex -1.54869 0.337366 2.8
      vertex -1.54869 0.337366 0
    endloop
  endfacet
  facet normal -0.605174 0.796093 0
    outer loop
      vertex -1.54869 0.337366 0
      vertex -1.54869 0.337366 2.8
      vertex -1.3555 0.484225 0
    endloop
  endfacet
  facet normal -0.605174 0.796093 0
    outer loop
      vertex -1.54869 0.337366 2.8
      vertex -1.3555 0.484225 2.8
      vertex -1.3555 0.484225 0
    endloop
  endfacet
  facet normal -0.827689 0.561187 0
    outer loop
      vertex -1.3555 0.484225 0
      vertex -1.3555 0.484225 2.8
      vertex -1.21932 0.685083 0
    endloop
  endfacet
  facet normal -0.827689 0.561187 0
    outer loop
      vertex -1.3555 0.484225 2.8
      vertex -1.21932 0.685083 2.8
      vertex -1.21932 0.685083 0
    endloop
  endfacet
  facet normal -0.96355 0.267528 0
    outer loop
      vertex -1.21932 0.685083 0
      vertex -1.21932 0.685083 2.8
      vertex -1.1544 0.918911 0
    endloop
  endfacet
  facet normal -0.96355 0.267528 0
    outer loop
      vertex -1.21932 0.685083 2.8
      vertex -1.1544 0.918911 2.8
      vertex -1.1544 0.918911 0
    endloop
  endfacet
  facet normal -0.998533 0.054139 0
    outer loop
      vertex -1.1544 0.918911 0
      vertex -1.1544 0.918911 2.8
      vertex -1.15 1 0
    endloop
  endfacet
  facet normal -0.998533 0.054139 0
    outer loop
      vertex -1.1544 0.918911 2.8
      vertex -1.15 1 2.8
      vertex -1.15 1 0
    endloop
  endfacet
  facet normal -0.986827 -0.161782 0
    outer loop
      vertex 2.65 1 0
      vertex 2.65 1 2.8
      vertex 2.61074 1.23948 0
    endloop
  endfacet
  facet normal -0.986827 -0.161782 0
    outer loop
      vertex 2.65 1 2.8
      vertex 2.61074 1.23948 2.8
      vertex 2.61074 1.23948 0
    endloop
  endfacet
  facet normal -0.883512 -0.468408 0
    outer loop
      vertex 2.61074 1.23948 0
      vertex 2.61074 1.23948 2.8
      vertex 2.49707 1.45388 0
    endloop
  endfacet
  facet normal -0.883512 -0.468408 0
    outer loop
      vertex 2.61074 1.23948 2.8
      vertex 2.49707 1.45388 2.8
      vertex 2.49707 1.45388 0
    endloop
  endfacet
  facet normal -0.687699 -0.725996 0
    outer loop
      vertex 2.49707 1.45388 0
      vertex 2.49707 1.45388 2.8
      vertex 2.32089 1.62077 0
    endloop
  endfacet
  facet normal -0.687699 -0.725996 0
    outer loop
      vertex 2.49707 1.45388 2.8
      vertex 2.32089 1.62077 2.8
      vertex 2.32089 1.62077 0
    endloop
  endfacet
  facet normal -0.419889 -0.907575 0
    outer loop
      vertex 2.32089 1.62077 0
      vertex 2.32089 1.62077 2.8
      vertex 2.10065 1.72266 0
    endloop
  endfacet
  facet normal -0.419889 -0.907575 0
    outer loop
      vertex 2.32089 1.62077 2.8
      vertex 2.10065 1.72266 2.8
      vertex 2.10065 1.72266 0
    endloop
  endfacet
  facet normal -0.108119 -0.994138 0
    outer loop
      vertex 2.10065 1.72266 0
      vertex 2.10065 1.72266 2.8
      vertex 1.8594 1.7489 0
    endloop
  endfacet
  facet normal -0.108119 -0.994138 0
    outer loop
      vertex 2.10065 1.72266 2.8
      vertex 1.8594 1.7489 2.8
      vertex 1.8594 1.7489 0
    endloop
  endfacet
  facet normal 0.21497 -0.976621 0
    outer loop
      vertex 1.8594 1.7489 0
      vertex 1.8594 1.7489 2.8
      vertex 1.6224 1.69673 0
    endloop
  endfacet
  facet normal 0.21497 -0.976621 0
    outer loop
      vertex 1.8594 1.7489 2.8
      vertex 1.6224 1.69673 2.8
      vertex 1.6224 1.69673 0
    endloop
  endfacet
  facet normal 0.468409 -0.883512 0
    outer loop
      vertex 1.6224 1.69673 0
      vertex 1.6224 1.69673 2.8
      vertex 1.47911 1.62077 0
    endloop
  endfacet
  facet normal 0.468409 -0.883512 0
    outer loop
      vertex 1.6224 1.69673 2.8
      vertex 1.47911 1.62077 2.8
      vertex 1.47911 1.62077 0
    endloop
  endfacet
  facet normal 0.605174 -0.796094 0
    outer loop
      vertex 1.47911 1.62077 0
      vertex 1.47911 1.62077 2.8
      vertex 1.41446 1.57162 0
    endloop
  endfacet
  facet normal 0.605174 -0.796094 0
    outer loop
      vertex 1.47911 1.62077 2.8
      vertex 1.41446 1.57162 2.8
      vertex 1.41446 1.57162 0
    endloop
  endfacet
  facet normal 0.762162 -0.647386 0
    outer loop
      vertex 1.41446 1.57162 0
      vertex 1.41446 1.57162 2.8
      vertex 1.25736 1.38667 0
    endloop
  endfacet
  facet normal 0.762162 -0.647386 0
    outer loop
      vertex 1.41446 1.57162 2.8
      vertex 1.25736 1.38667 2.8
      vertex 1.25736 1.38667 0
    endloop
  endfacet
  facet normal 0.928977 -0.370138 0
    outer loop
      vertex 1.25736 1.38667 0
      vertex 1.25736 1.38667 2.8
      vertex 1.16753 1.16123 0
    endloop
  endfacet
  facet normal 0.928977 -0.370138 0
    outer loop
      vertex 1.25736 1.38667 2.8
      vertex 1.16753 1.16123 2.8
      vertex 1.16753 1.16123 0
    endloop
  endfacet
  facet normal 0.998533 -0.0541389 0
    outer loop
      vertex 1.16753 1.16123 0
      vertex 1.16753 1.16123 2.8
      vertex 1.1544 0.918911 0
    endloop
  endfacet
  facet normal 0.998533 -0.0541389 0
    outer loop
      vertex 1.16753 1.16123 2.8
      vertex 1.1544 0.918911 2.8
      vertex 1.1544 0.918911 0
    endloop
  endfacet
  facet normal 0.96355 0.267528 0
    outer loop
      vertex 1.1544 0.918911 0
      vertex 1.1544 0.918911 2.8
      vertex 1.21932 0.685083 0
    endloop
  endfacet
  facet normal 0.96355 0.267528 0
    outer loop
      vertex 1.1544 0.918911 2.8
      vertex 1.21932 0.685083 2.8
      vertex 1.21932 0.685083 0
    endloop
  endfacet
  facet normal 0.827689 0.561187 0
    outer loop
      vertex 1.21932 0.685083 0
      vertex 1.21932 0.685083 2.8
      vertex 1.3555 0.484225 0
    endloop
  endfacet
  facet normal 0.827689 0.561187 0
    outer loop
      vertex 1.21932 0.685083 2.8
      vertex 1.3555 0.484225 2.8
      vertex 1.3555 0.484225 0
    endloop
  endfacet
  facet normal 0.647386 0.762162 0
    outer loop
      vertex 1.3555 0.484225 0
      vertex 1.3555 0.484225 2.8
      vertex 1.47911 0.379233 0
    endloop
  endfacet
  facet normal 0.647386 0.762162 0
    outer loop
      vertex 1.3555 0.484225 2.8
      vertex 1.47911 0.379233 2.8
      vertex 1.47911 0.379233 0
    endloop
  endfacet
  facet normal 0.515554 0.856857 0
    outer loop
      vertex 1.47911 0.379233 0
      vertex 1.47911 0.379233 2.8
      vertex 1.54869 0.337366 0
    endloop
  endfacet
  facet normal 0.515554 0.856857 0
    outer loop
      vertex 1.47911 0.379233 2.8
      vertex 1.54869 0.337366 2.8
      vertex 1.54869 0.337366 0
    endloop
  endfacet
  facet normal 0.319301 0.947653 0
    outer loop
      vertex 1.54869 0.337366 0
      vertex 1.54869 0.337366 2.8
      vertex 1.77866 0.25988 0
    endloop
  endfacet
  facet normal 0.319301 0.947653 0
    outer loop
      vertex 1.54869 0.337366 2.8
      vertex 1.77866 0.25988 2.8
      vertex 1.77866 0.25988 0
    endloop
  endfacet
  facet normal 0 1 0
    outer loop
      vertex 1.77866 0.25988 0
      vertex 1.77866 0.25988 2.8
      vertex 2.02134 0.25988 0
    endloop
  endfacet
  facet normal 0 1 0
    outer loop
      vertex 1.77866 0.25988 2.8
      vertex 2.02134 0.25988 2.8
      vertex 2.02134 0.25988 0
    endloop
  endfacet
  facet normal -0.319301 0.947653 0
    outer loop
      vertex 2.02134 0.25988 0
      vertex 2.02134 0.25988 2.8
      vertex 2.25131 0.337366 0
    endloop
  endfacet
  facet normal -0.319301 0.947653 0
    outer loop
      vertex 2.02134 0.25988 2.8
      vertex 2.25131 0.337366 2.8
      vertex 2.25131 0.337366 0
    endloop
  endfacet
  facet normal -0.605174 0.796093 0
    outer loop
      vertex 2.25131 0.337366 0
      vertex 2.25131 0.337366 2.8
      vertex 2.4445 0.484225 0
    endloop
  endfacet
  facet normal -0.605174 0.796093 0
    outer loop
      vertex 2.25131 0.337366 2.8
      vertex 2.4445 0.484225 2.8
      vertex 2.4445 0.484225 0
    endloop
  endfacet
  facet normal -0.827689 0.561187 0
    outer loop
      vertex 2.4445 0.484225 0
      vertex 2.4445 0.484225 2.8
      vertex 2.58068 0.685083 0
    endloop
  endfacet
  facet normal -0.827689 0.561187 0
    outer loop
      vertex 2.4445 0.484225 2.8
      vertex 2.58068 0.685083 2.8
      vertex 2.58068 0.685083 0
    endloop
  endfacet
  facet normal -0.96355 0.267528 0
    outer loop
      vertex 2.58068 0.685083 0
      vertex 2.58068 0.685083 2.8
      vertex 2.6456 0.918911 0
    endloop
  endfacet
  facet normal -0.96355 0.267528 0
    outer loop
      vertex 2.58068 0.685083 2.8
      vertex 2.6456 0.918911 2.8
      vertex 2.6456 0.918911 0
    endloop
  endfacet
  facet normal -0.998533 0.054139 0
    outer loop
      vertex 2.6456 0.918911 0
      vertex 2.6456 0.918911 2.8
      vertex 2.65 1 0
    endloop
  endfacet
  facet normal -0.998533 0.054139 0
    outer loop
      vertex 2.6456 0.918911 2.8
      vertex 2.65 1 2.8
      vertex 2.65 1 0
    endloop
  endfacet
  facet normal -0.986827 -0.161782 0
    outer loop
      vertex -0.05 -0.1 0
      vertex -0.05 -0.1 2.8
      vertex -0.0892601 0.139476 0
    endloop
  endfacet
  facet normal -0.986827 -0.161782 0
    outer loop
      vertex -0.05 -0.1 2.8
      vertex -0.0892601 0.139476 2.8
      vertex -0.0892601 0.139476 0
    endloop
  endfacet
  facet normal -0.883512 -0.468408 0
    outer loop
      vertex -0.0892601 0.139476 0
      vertex -0.0892601 0.139476 2.8
      vertex -0.20293 0.353881 0
    endloop
  endfacet
  facet normal -0.883512 -0.468408 0
    outer loop
      vertex -0.0892601 0.139476 2.8
      vertex -0.20293 0.353881 2.8
      vertex -0.20293 0.353881 0
    endloop
  endfacet
  facet normal -0.6877 -0.725995 0
    outer loop
      vertex -0.20293 0.353881 0
      vertex -0.20293 0.353881 2.8
      vertex -0.37911 0.520767 0
    endloop
  endfacet
  facet normal -0.6877 -0.725995 0
    outer loop
      vertex -0.20293 0.353881 2.8
      vertex -0.37911 0.520767 2.8
      vertex -0.37911 0.520767 0
    endloop
  endfacet
  facet normal -0.419889 -0.907575 0
    outer loop
      vertex -0.37911 0.520767 0
      vertex -0.37911 0.520767 2.8
      vertex -0.599354 0.622662 0
    endloop
  endfacet
  facet normal -0.419889 -0.907575 0
    outer loop
      vertex -0.37911 0.520767 2.8
      vertex -0.599354 0.622662 2.8
      vertex -0.599354 0.622662 0
    endloop
  endfacet
  facet normal -0.108119 -0.994138 0
    outer loop
      vertex -0.599354 0.622662 0
      vertex -0.599354 0.622662 2.8
      vertex -0.840604 0.6489 0
    endloop
  endfacet
  facet normal -0.108119 -0.994138 0
    outer loop
      vertex -0.599354 0.622662 2.8
      vertex -0.840604 0.6489 2.8
      vertex -0.840604 0.6489 0
    endloop
  endfacet
  facet normal 0.21497 -0.976621 0
    outer loop
      vertex -0.840604 0.6489 0
      vertex -0.840604 0.6489 2.8
      vertex -1.0776 0.596733 0
    endloop
  endfacet
  facet normal 0.21497 -0.976621 0
    outer loop
      vertex -0.840604 0.6489 2.8
      vertex -1.0776 0.596733 2.8
      vertex -1.0776 0.596733 0
    endloop
  endfacet
  facet normal 0.468408 -0.883512 0
    outer loop
      vertex -1.0776 0.596733 0
      vertex -1.0776 0.596733 2.8
      vertex -1.22089 0.520767 0
    endloop
  endfacet
  facet normal 0.468408 -0.883512 0
    outer loop
      vertex -1.0776 0.596733 2.8
      vertex -1.22089 0.520767 2.8
      vertex -1.22089 0.520767 0
    endloop
  endfacet
  facet normal 0.605175 -0.796093 0
    outer loop
      vertex -1.22089 0.520767 0
      vertex -1.22089 0.520767 2.8
      vertex -1.28554 0.471622 0
    endloop
  endfacet
  facet normal 0.605175 -0.796093 0
    outer loop
      vertex -1.22089 0.520767 2.8
      vertex -1.28554 0.471622 2.8
      vertex -1.28554 0.471622 0
    endloop
  endfacet
  facet normal 0.762162 -0.647386 0
    outer loop
      vertex -1.28554 0.471622 0
      vertex -1.28554 0.471622 2.8
      vertex -1.44264 0.286665 0
    endloop
  endfacet
  facet normal 0.762162 -0.647386 0
    outer loop
      vertex -1.28554 0.471622 2.8
      vertex -1.44264 0.286665 2.8
      vertex -1.44264 0.286665 0
    endloop
  endfacet
  facet normal 0.928977 -0.370138 0
    outer loop
      vertex -1.44264 0.286665 0
      vertex -1.44264 0.286665 2.8
      vertex -1.53247 0.0612278 0
    endloop
  endfacet
  facet normal 0.928977 -0.370138 0
    outer loop
      vertex -1.44264 0.286665 2.8
      vertex -1.53247 0.0612278 2.8
      vertex -1.53247 0.0612278 0
    endloop
  endfacet
  facet normal 0.998533 -0.0541389 0
    outer loop
      vertex -1.53247 0.0612278 0
      vertex -1.53247 0.0612278 2.8
      vertex -1.5456 -0.181089 0
    endloop
  endfacet
  facet normal 0.998533 -0.0541389 0
    outer loop
      vertex -1.53247 0.0612278 2.8
      vertex -1.5456 -0.181089 2.8
      vertex -1.5456 -0.181089 0
    endloop
  endfacet
  facet normal 0.96355 0.267528 0
    outer loop
      vertex -1.5456 -0.181089 0
      vertex -1.5456 -0.181089 2.8
      vertex -1.48068 -0.414917 0
    endloop
  endfacet
  facet normal 0.96355 0.267528 0
    outer loop
      vertex -1.5456 -0.181089 2.8
      vertex -1.48068 -0.414917 2.8
      vertex -1.48068 -0.414917 0
    endloop
  endfacet
  facet normal 0.827689 0.561187 0
    outer loop
      vertex -1.48068 -0.414917 0
      vertex -1.48068 -0.414917 2.8
      vertex -1.3445 -0.615775 0
    endloop
  endfacet
  facet normal 0.827689 0.561187 0
    outer loop
      vertex -1.48068 -0.414917 2.8
      vertex -1.3445 -0.615775 2.8
      vertex -1.3445 -0.615775 0
    endloop
  endfacet
  facet normal 0.647386 0.762162 0
    outer loop
      vertex -1.3445 -0.615775 0
      vertex -1.3445 -0.615775 2.8
      vertex -1.22089 -0.720767 0
    endloop
  endfacet
  facet normal 0.647386 0.762162 0
    outer loop
      vertex -1.3445 -0.615775 2.8
      vertex -1.22089 -0.720767 2.8
      vertex -1.22089 -0.720767 0
    endloop
  endfacet
  facet normal 0.515554 0.856857 0
    outer loop
      vertex -1.22089 -0.720767 0
      vertex -1.22089 -0.720767 2.8
      vertex -1.15131 -0.762634 0
    endloop
  endfacet
  facet normal 0.515554 0.856857 0
    outer loop
      vertex -1.22089 -0.720767 2.8
      vertex -1.15131 -0.762634 2.8
      vertex -1.15131 -0.762634 0
    endloop
  endfacet
  facet normal 0.319302 0.947653 0
    outer loop
      vertex -1.15131 -0.762634 0
      vertex -1.15131 -0.762634 2.8
      vertex -0.921337 -0.84012 0
    endloop
  endfacet
  facet normal 0.319302 0.947653 0
    outer loop
      vertex -1.15131 -0.762634 2.8
      vertex -0.921337 -0.84012 2.8
      vertex -0.921337 -0.84012 0
    endloop
  endfacet
  facet normal 0 1 0
    outer loop
      vertex -0.921337 -0.84012 0
      vertex -0.921337 -0.84012 2.8
      vertex -0.678663 -0.84012 0
    endloop
  endfacet
  facet normal 0 1 0
    outer loop
      vertex -0.921337 -0.84012 2.8
      vertex -0.678663 -0.84012 2.8
      vertex -0.678663 -0.84012 0
    endloop
  endfacet
  facet normal -0.319302 0.947653 0
    outer loop
      vertex -0.678663 -0.84012 0
      vertex -0.678663 -0.84012 2.8
      vertex -0.448694 -0.762634 0
    endloop
  endfacet
  facet normal -0.319302 0.947653 0
    outer loop
      vertex -0.678663 -0.84012 2.8
      vertex -0.448694 -0.762634 2.8
      vertex -0.448694 -0.762634 0
    endloop
  endfacet
  facet normal -0.605174 0.796093 0
    outer loop
      vertex -0.448694 -0.762634 0
      vertex -0.448694 -0.762634 2.8
      vertex -0.255503 -0.615775 0
    endloop
  endfacet
  facet normal -0.605174 0.796093 0
    outer loop
      vertex -0.448694 -0.762634 2.8
      vertex -0.255503 -0.615775 2.8
      vertex -0.255503 -0.615775 0
    endloop
  endfacet
  facet normal -0.827689 0.561187 0
    outer loop
      vertex -0.255503 -0.615775 0
      vertex -0.255503 -0.615775 2.8
      vertex -0.119318 -0.414917 0
    endloop
  endfacet
  facet normal -0.827689 0.561187 0
    outer loop
      vertex -0.255503 -0.615775 2.8
      vertex -0.119318 -0.414917 2.8
      vertex -0.119318 -0.414917 0
    endloop
  endfacet
  facet normal -0.96355 0.267528 0
    outer loop
      vertex -0.119318 -0.414917 0
      vertex -0.119318 -0.414917 2.8
      vertex -0.0543965 -0.181089 0
    endloop
  endfacet
  facet normal -0.96355 0.267528 0
    outer loop
      vertex -0.119318 -0.414917 2.8
      vertex -0.0543965 -0.181089 2.8
      vertex -0.0543965 -0.181089 0
    endloop
  endfacet
  facet normal -0.998533 0.0541389 0
    outer loop
      vertex -0.0543965 -0.181089 0
      vertex -0.0543965 -0.181089 2.8
      vertex -0.05 -0.1 0
    endloop
  endfacet
  facet normal -0.998533 0.0541389 0
    outer loop
      vertex -0.0543965 -0.181089 2.8
      vertex -0.05 -0.1 2.8
      vertex -0.05 -0.1 0
    endloop
  endfacet
  facet normal 0 0 -1
    outer loop
      vertex -1.5 -2 0
      vertex -1.5 -3 0
      vertex -5.5 -3 0
    endloop
  endfacet
  facet normal 0 0 -1
    outer loop
      vertex 5.5 -3 0
      vertex 1.5 -3 0
      vertex 5.5 3 0
    endloop
  endfacet
  facet normal 0 0 -1
    outer loop
      vertex 1.5 -3 0
      vertex 1.5 -2 0
      vertex 5.5 3 0
    endloop
  endfacet
  facet normal 0 0 -1
    outer loop
      vertex -1.18926 1.23948 0
      vertex -1.30293 1.45388 0
      vertex 1.16753 1.16123 0
    endloop
  endfacet
  facet normal 0 0 -1
    outer loop
      vertex -1.5 -2 0
      vertex -1.5456 -0.181089 0
      vertex -1.48068 -0.414917 0
    endloop
  endfacet
  facet normal 0 0 -1
    outer loop
      vertex 2.49707 1.45388 0
      vertex 2.32089 1.62077 0
      vertex 5.5 3 0
    endloop
  endfacet
  facet normal 0 0 -1
    outer loop
      vertex 0.448694 -0.762634 0
      vertex 0.678663 -0.84012 0
      vertex 1.5 -2 0
    endloop
  endfacet
  facet normal 0 0 -1
    outer loop
      vertex 5.5 3 0
      vertex -1.30293 1.45388 0
      vertex -1.47911 1.62077 0
    endloop
  endfacet
  facet normal 0 0 -1
    outer loop
      vertex -2.38554 1.57162 0
      vertex -2.54264 1.38667 0
      vertex -5.5 3 0
    endloop
  endfacet
  facet normal 0 0 -1
    outer loop
      vertex -1.48068 -0.414917 0
      vertex -1.3445 -0.615775 0
      vertex -1.5 -2 0
    endloop
  endfacet
  facet normal 0 0 -1
    outer loop
      vertex -1.3445 -0.615775 0
      vertex -1.22089 -0.720767 0
      vertex -1.5 -2 0
    endloop
  endfacet
  facet normal 0 0 -1
    outer loop
      vertex -1.5 -2 0
      vertex -1.22089 -0.720767 0
      vertex -1.15131 -0.762634 0
    endloop
  endfacet
  facet normal 0 0 -1
    outer loop
      vertex 0.0543965 -0.181089 0
      vertex -0.255503 -0.615775 0
      vertex -0.119318 -0.414917 0
    endloop
  endfacet
  facet normal 0 0 -1
    outer loop
      vertex 0.678663 -0.84012 0
      vertex 0.921337 -0.84012 0
      vertex 1.5 -2 0
    endloop
  endfacet
  facet normal 0 0 -1
    outer loop
      vertex 0.921337 -0.84012 0
      vertex 1.15131 -0.762634 0
      vertex 1.5 -2 0
    endloop
  endfacet
  facet normal 0 0 -1
    outer loop
      vertex 1.5 -2 0
      vertex 1.15131 -0.762634 0
      vertex 1.3445 -0.615775 0
    endloop
  endfacet
  facet normal 0 0 -1
    outer loop
      vertex 1.47911 1.62077 0
      vertex 1.41446 1.57162 0
      vertex -1.30293 1.45388 0
    endloop
  endfacet
  facet normal 0 0 -1
    outer loop
      vertex 1.41446 1.57162 0
      vertex 1.25736 1.38667 0
      vertex -1.30293 1.45388 0
    endloop
  endfacet
  facet normal 0 0 -1
    outer loop
      vertex -1.30293 1.45388 0
      vertex 1.25736 1.38667 0
      vertex 1.16753 1.16123 0
    endloop
  endfacet
  facet normal 0 0 -1
    outer loop
      vertex -2.38554 1.57162 0
      vertex -5.5 3 0
      vertex -2.32089 1.62077 0
    endloop
  endfacet
  facet normal 0 0 -1
    outer loop
      vertex 1.5 -2 0
      vertex 2.4445 0.484225 0
      vertex 5.5 3 0
    endloop
  endfacet
  facet normal 0 0 -1
    outer loop
      vertex 2.4445 0.484225 0
      vertex 2.58068 0.685083 0
      vertex 5.5 3 0
    endloop
  endfacet
  facet normal 0 0 -1
    outer loop
      vertex 5.5 3 0
      vertex 2.58068 0.685083 0
      vertex 2.6456 0.918911 0
    endloop
  endfacet
  facet normal 0 0 -1
    outer loop
      vertex 2.6456 0.918911 0
      vertex 2.65 1 0
      vertex 5.5 3 0
    endloop
  endfacet
  facet normal 0 0 -1
    outer loop
      vertex 2.65 1 0
      vertex 2.61074 1.23948 0
      vertex 5.5 3 0
    endloop
  endfacet
  facet normal 0 0 -1
    outer loop
      vertex 5.5 3 0
      vertex 2.61074 1.23948 0
      vertex 2.49707 1.45388 0
    endloop
  endfacet
  facet normal 0 0 -1
    outer loop
      vertex -1.77866 0.25988 0
      vertex -1.54869 0.337366 0
      vertex -1.53247 0.0612278 0
    endloop
  endfacet
  facet normal 0 0 -1
    outer loop
      vertex -2.54264 1.38667 0
      vertex -2.63247 1.16123 0
      vertex -5.5 3 0
    endloop
  endfacet
  facet normal 0 0 -1
    outer loop
      vertex -2.63247 1.16123 0
      vertex -2.6456 0.918911 0
      vertex -5.5 3 0
    endloop
  endfacet
  facet normal 0 0 -1
    outer loop
      vertex -5.5 3 0
      vertex -2.6456 0.918911 0
      vertex -5.5 -3 0
    endloop
  endfacet
  facet normal 0 0 -1
    outer loop
      vertex -2.6456 0.918911 0
      vertex -2.58068 0.685083 0
      vertex -5.5 -3 0
    endloop
  endfacet
  facet normal 0 0 -1
    outer loop
      vertex 2.32089 1.62077 0
      vertex 2.10065 1.72266 0
      vertex 5.5 3 0
    endloop
  endfacet
  facet normal 0 0 -1
    outer loop
      vertex 2.10065 1.72266 0
      vertex 1.8594 1.7489 0
      vertex 5.5 3 0
    endloop
  endfacet
  facet normal 0 0 -1
    outer loop
      vertex 5.5 3 0
      vertex 1.8594 1.7489 0
      vertex -1.30293 1.45388 0
    endloop
  endfacet
  facet normal 0 0 -1
    outer loop
      vertex 1.8594 1.7489 0
      vertex 1.6224 1.69673 0
      vertex -1.30293 1.45388 0
    endloop
  endfacet
  facet normal 0 0 -1
    outer loop
      vertex -1.30293 1.45388 0
      vertex 1.6224 1.69673 0
      vertex 1.47911 1.62077 0
    endloop
  endfacet
  facet normal 0 0 -1
    outer loop
      vertex -1.47911 1.62077 0
      vertex -1.69935 1.72266 0
      vertex 5.5 3 0
    endloop
  endfacet
  facet normal 0 0 -1
    outer loop
      vertex -1.69935 1.72266 0
      vertex -1.9406 1.7489 0
      vertex 5.5 3 0
    endloop
  endfacet
  facet normal 0 0 -1
    outer loop
      vertex 5.5 3 0
      vertex -1.9406 1.7489 0
      vertex -5.5 3 0
    endloop
  endfacet
  facet normal 0 0 -1
    outer loop
      vertex -1.9406 1.7489 0
      vertex -2.1776 1.69673 0
      vertex -5.5 3 0
    endloop
  endfacet
  facet normal 0 0 -1
    outer loop
      vertex -5.5 3 0
      vertex -2.1776 1.69673 0
      vertex -2.32089 1.62077 0
    endloop
  endfacet
  facet normal 0 0 -1
    outer loop
      vertex 1.77866 0.25988 0
      vertex 2.02134 0.25988 0
      vertex 1.5 -2 0
    endloop
  endfacet
  facet normal 0 0 -1
    outer loop
      vertex 2.02134 0.25988 0
      vertex 2.25131 0.337366 0
      vertex 1.5 -2 0
    endloop
  endfacet
  facet normal 0 0 -1
    outer loop
      vertex 1.5 -2 0
      vertex 2.25131 0.337366 0
      vertex 2.4445 0.484225 0
    endloop
  endfacet
  facet normal 0 0 -1
    outer loop
      vertex 1.1544 0.918911 0
      vertex -1.1544 0.918911 0
      vertex 1.16753 1.16123 0
    endloop
  endfacet
  facet normal 0 0 -1
    outer loop
      vertex -1.1544 0.918911 0
      vertex -1.15 1 0
      vertex 1.16753 1.16123 0
    endloop
  endfacet
  facet normal 0 0 -1
    outer loop
      vertex 1.16753 1.16123 0
      vertex -1.15 1 0
      vertex -1.18926 1.23948 0
    endloop
  endfacet
  facet normal 0 0 -1
    outer loop
      vertex 0.0543965 -0.181089 0
      vertex 0.119318 -0.414917 0
      vertex -0.255503 -0.615775 0
    endloop
  endfacet
  facet normal 0 0 -1
    outer loop
      vertex 0.119318 -0.414917 0
      vertex 0.255503 -0.615775 0
      vertex -0.255503 -0.615775 0
    endloop
  endfacet
  facet normal 0 0 -1
    outer loop
      vertex -0.255503 -0.615775 0
      vertex 0.255503 -0.615775 0
      vertex -0.448694 -0.762634 0
    endloop
  endfacet
  facet normal 0 0 -1
    outer loop
      vertex 0.255503 -0.615775 0
      vertex 0.37911 -0.720767 0
      vertex -0.448694 -0.762634 0
    endloop
  endfacet
  facet normal 0 0 -1
    outer loop
      vertex 0.37911 -0.720767 0
      vertex 0.448694 -0.762634 0
      vertex -0.448694 -0.762634 0
    endloop
  endfacet
  facet normal 0 0 -1
    outer loop
      vertex 0.448694 -0.762634 0
      vertex 1.5 -2 0
      vertex -0.448694 -0.762634 0
    endloop
  endfacet
  facet normal 0 0 -1
    outer loop
      vertex -0.448694 -0.762634 0
      vertex 1.5 -2 0
      vertex -0.678663 -0.84012 0
    endloop
  endfacet
  facet normal 0 0 -1
    outer loop
      vertex 1.5 -2 0
      vertex -1.5 -2 0
      vertex -0.678663 -0.84012 0
    endloop
  endfacet
  facet normal 0 0 -1
    outer loop
      vertex -0.678663 -0.84012 0
      vertex -1.5 -2 0
      vertex -0.921337 -0.84012 0
    endloop
  endfacet
  facet normal 0 0 -1
    outer loop
      vertex -1.5 -2 0
      vertex -1.15131 -0.762634 0
      vertex -0.921337 -0.84012 0
    endloop
  endfacet
  facet normal 0 0 -1
    outer loop
      vertex 1.1544 0.918911 0
      vertex 1.22089 0.520767 0
      vertex 1.00065 0.622662 0
    endloop
  endfacet
  facet normal 0 0 -1
    outer loop
      vertex -0.20293 0.353881 0
      vertex -0.37911 0.520767 0
      vertex 1.1544 0.918911 0
    endloop
  endfacet
  facet normal 0 0 -1
    outer loop
      vertex -0.37911 0.520767 0
      vertex -0.599354 0.622662 0
      vertex 1.1544 0.918911 0
    endloop
  endfacet
  facet normal 0 0 -1
    outer loop
      vertex -2.58068 0.685083 0
      vertex -2.4445 0.484225 0
      vertex -5.5 -3 0
    endloop
  endfacet
  facet normal 0 0 -1
    outer loop
      vertex -2.4445 0.484225 0
      vertex -2.32089 0.379233 0
      vertex -5.5 -3 0
    endloop
  endfacet
  facet normal 0 0 -1
    outer loop
      vertex -5.5 -3 0
      vertex -2.32089 0.379233 0
      vertex -2.25131 0.337366 0
    endloop
  endfacet
  facet normal 0 0 -1
    outer loop
      vertex -1.5 -2 0
      vertex -5.5 -3 0
      vertex -1.5456 -0.181089 0
    endloop
  endfacet
  facet normal 0 0 -1
    outer loop
      vertex -5.5 -3 0
      vertex -2.25131 0.337366 0
      vertex -1.5456 -0.181089 0
    endloop
  endfacet
  facet normal 0 0 -1
    outer loop
      vertex -1.5456 -0.181089 0
      vertex -2.25131 0.337366 0
      vertex -1.53247 0.0612278 0
    endloop
  endfacet
  facet normal 0 0 -1
    outer loop
      vertex -2.25131 0.337366 0
      vertex -2.02134 0.25988 0
      vertex -1.53247 0.0612278 0
    endloop
  endfacet
  facet normal 0 0 -1
    outer loop
      vertex -1.53247 0.0612278 0
      vertex -2.02134 0.25988 0
      vertex -1.77866 0.25988 0
    endloop
  endfacet
  facet normal 0 0 -1
    outer loop
      vertex 1.3445 -0.615775 0
      vertex 1.48068 -0.414917 0
      vertex 1.5 -2 0
    endloop
  endfacet
  facet normal 0 0 -1
    outer loop
      vertex 1.48068 -0.414917 0
      vertex 1.5456 -0.181089 0
      vertex 1.5 -2 0
    endloop
  endfacet
  facet normal 0 0 -1
    outer loop
      vertex 1.5 -2 0
      vertex 1.5456 -0.181089 0
      vertex 1.77866 0.25988 0
    endloop
  endfacet
  facet normal 0 0 -1
    outer loop
      vertex 1.5456 -0.181089 0
      vertex 1.55 -0.1 0
      vertex 1.77866 0.25988 0
    endloop
  endfacet
  facet normal 0 0 -1
    outer loop
      vertex 1.77866 0.25988 0
      vertex 1.55 -0.1 0
      vertex 1.51074 0.139476 0
    endloop
  endfacet
  facet normal 0 0 -1
    outer loop
      vertex 1.1544 0.918911 0
      vertex 1.21932 0.685083 0
      vertex 1.22089 0.520767 0
    endloop
  endfacet
  facet normal 0 0 -1
    outer loop
      vertex 1.21932 0.685083 0
      vertex 1.3555 0.484225 0
      vertex 1.22089 0.520767 0
    endloop
  endfacet
  facet normal 0 0 -1
    outer loop
      vertex 1.22089 0.520767 0
      vertex 1.3555 0.484225 0
      vertex 1.39707 0.353881 0
    endloop
  endfacet
  facet normal 0 0 -1
    outer loop
      vertex 1.3555 0.484225 0
      vertex 1.47911 0.379233 0
      vertex 1.39707 0.353881 0
    endloop
  endfacet
  facet normal 0 0 -1
    outer loop
      vertex 1.39707 0.353881 0
      vertex 1.47911 0.379233 0
      vertex 1.51074 0.139476 0
    endloop
  endfacet
  facet normal 0 0 -1
    outer loop
      vertex 1.47911 0.379233 0
      vertex 1.54869 0.337366 0
      vertex 1.51074 0.139476 0
    endloop
  endfacet
  facet normal 0 0 -1
    outer loop
      vertex 1.51074 0.139476 0
      vertex 1.54869 0.337366 0
      vertex 1.77866 0.25988 0
    endloop
  endfacet
  facet normal 0 0 -1
    outer loop
      vertex -0.599354 0.622662 0
      vertex -0.840604 0.6489 0
      vertex 1.1544 0.918911 0
    endloop
  endfacet
  facet normal 0 0 -1
    outer loop
      vertex -0.840604 0.6489 0
      vertex -1.21932 0.685083 0
      vertex 1.1544 0.918911 0
    endloop
  endfacet
  facet normal 0 0 -1
    outer loop
      vertex 1.1544 0.918911 0
      vertex -1.21932 0.685083 0
      vertex -1.1544 0.918911 0
    endloop
  endfacet
  facet normal 0 0 -1
    outer loop
      vertex -0.119318 -0.414917 0
      vertex -0.0543965 -0.181089 0
      vertex 0.0543965 -0.181089 0
    endloop
  endfacet
  facet normal 0 0 -1
    outer loop
      vertex -0.0543965 -0.181089 0
      vertex -0.05 -0.1 0
      vertex 0.0543965 -0.181089 0
    endloop
  endfacet
  facet normal 0 0 -1
    outer loop
      vertex 0.0543965 -0.181089 0
      vertex -0.05 -0.1 0
      vertex 0.0675346 0.0612278 0
    endloop
  endfacet
  facet normal 0 0 -1
    outer loop
      vertex -0.05 -0.1 0
      vertex -0.0892601 0.139476 0
      vertex 0.0675346 0.0612278 0
    endloop
  endfacet
  facet normal 0 0 -1
    outer loop
      vertex 0.0675346 0.0612278 0
      vertex -0.0892601 0.139476 0
      vertex 0.157357 0.286665 0
    endloop
  endfacet
  facet normal 0 0 -1
    outer loop
      vertex -0.0892601 0.139476 0
      vertex -0.20293 0.353881 0
      vertex 0.157357 0.286665 0
    endloop
  endfacet
  facet normal 0 0 -1
    outer loop
      vertex 0.157357 0.286665 0
      vertex -0.20293 0.353881 0
      vertex 0.31446 0.471622 0
    endloop
  endfacet
  facet normal 0 0 -1
    outer loop
      vertex -0.840604 0.6489 0
      vertex -1.0776 0.596733 0
      vertex -1.21932 0.685083 0
    endloop
  endfacet
  facet normal 0 0 -1
    outer loop
      vertex -1.0776 0.596733 0
      vertex -1.22089 0.520767 0
      vertex -1.21932 0.685083 0
    endloop
  endfacet
  facet normal 0 0 -1
    outer loop
      vertex -1.21932 0.685083 0
      vertex -1.22089 0.520767 0
      vertex -1.3555 0.484225 0
    endloop
  endfacet
  facet normal 0 0 -1
    outer loop
      vertex -1.22089 0.520767 0
      vertex -1.28554 0.471622 0
      vertex -1.3555 0.484225 0
    endloop
  endfacet
  facet normal 0 0 -1
    outer loop
      vertex -1.3555 0.484225 0
      vertex -1.28554 0.471622 0
      vertex -1.54869 0.337366 0
    endloop
  endfacet
  facet normal 0 0 -1
    outer loop
      vertex -1.28554 0.471622 0
      vertex -1.44264 0.286665 0
      vertex -1.54869 0.337366 0
    endloop
  endfacet
  facet normal 0 0 -1
    outer loop
      vertex -1.54869 0.337366 0
      vertex -1.44264 0.286665 0
      vertex -1.53247 0.0612278 0
    endloop
  endfacet
  facet normal 0 0 -1
    outer loop
      vertex 1.00065 0.622662 0
      vertex 0.759396 0.6489 0
      vertex 1.1544 0.918911 0
    endloop
  endfacet
  facet normal 0 0 -1
    outer loop
      vertex 0.759396 0.6489 0
      vertex 0.522396 0.596733 0
      vertex 1.1544 0.918911 0
    endloop
  endfacet
  facet normal 0 0 -1
    outer loop
      vertex 1.1544 0.918911 0
      vertex 0.522396 0.596733 0
      vertex -0.20293 0.353881 0
    endloop
  endfacet
  facet normal 0 0 -1
    outer loop
      vertex 0.522396 0.596733 0
      vertex 0.37911 0.520767 0
      vertex -0.20293 0.353881 0
    endloop
  endfacet
  facet normal 0 0 -1
    outer loop
      vertex -0.20293 0.353881 0
      vertex 0.37911 0.520767 0
      vertex 0.31446 0.471622 0
    endloop
  endfacet
  facet normal 0 -1 0
    outer loop
      vertex 1.5 -3 0
      vertex 5.5 -3 0
      vertex 1.5 -3 2.8
    endloop
  endfacet
  facet normal 0 -1 0
    outer loop
      vertex 5.5 -3 0
      vertex 5.5 -3 2.8
      vertex 1.5 -3 2.8
    endloop
  endfacet
  facet normal 0 -1 0
    outer loop
      vertex -5.5 -3 2.8
      vertex -5.5 -3 0
      vertex -1.5 -3 2.8
    endloop
  endfacet
  facet normal 0 -1 0
    outer loop
      vertex -5.5 -3 0
      vertex -1.5 -3 0
      vertex -1.5 -3 2.8
    endloop
  endfacet
  facet normal 1 0 0
    outer loop
      vertex 5.5 3 0
      vertex 5.5 3 2.8
      vertex 5.5 -3 0
    endloop
  endfacet
  facet normal 1 0 0
    outer loop
      vertex 5.5 3 2.8
      vertex 5.5 -3 2.8
      vertex 5.5 -3 0
    endloop
  endfacet
  facet normal 0 1 0
    outer loop
      vertex -5.5 3 0
      vertex -5.5 3 2.8
      vertex 5.5 3 0
    endloop
  endfacet
  facet normal 0 1 0
    outer loop
      vertex -5.5 3 2.8
      vertex 5.5 3 2.8
      vertex 5.5 3 0
    endloop
  endfacet
  facet normal 0 -1 0
    outer loop
      vertex 1.5 -2 0
      vertex 1.5 -2 2.8
      vertex -1.5 -2 0
    endloop
  endfacet
  facet normal 0 -1 0
    outer loop
      vertex 1.5 -2 2.8
      vertex -1.5 -2 2.8
      vertex -1.5 -2 0
    endloop
  endfacet
  facet normal -0.986827 -0.161782 0
    outer loop
      vertex 1.55 -0.1 0
      vertex 1.55 -0.1 2.8
      vertex 1.51074 0.139476 0
    endloop
  endfacet
  facet normal -0.986827 -0.161782 0
    outer loop
      vertex 1.55 -0.1 2.8
      vertex 1.51074 0.139476 2.8
      vertex 1.51074 0.139476 0
    endloop
  endfacet
  facet normal -0.883512 -0.468409 0
    outer loop
      vertex 1.51074 0.139476 0
      vertex 1.51074 0.139476 2.8
      vertex 1.39707 0.353881 0
    endloop
  endfacet
  facet normal -0.883512 -0.468409 0
    outer loop
      vertex 1.51074 0.139476 2.8
      vertex 1.39707 0.353881 2.8
      vertex 1.39707 0.353881 0
    endloop
  endfacet
  facet normal -0.6877 -0.725995 0
    outer loop
      vertex 1.39707 0.353881 0
      vertex 1.39707 0.353881 2.8
      vertex 1.22089 0.520767 0
    endloop
  endfacet
  facet normal -0.6877 -0.725995 0
    outer loop
      vertex 1.39707 0.353881 2.8
      vertex 1.22089 0.520767 2.8
      vertex 1.22089 0.520767 0
    endloop
  endfacet
  facet normal -0.419889 -0.907575 0
    outer loop
      vertex 1.22089 0.520767 0
      vertex 1.22089 0.520767 2.8
      vertex 1.00065 0.622662 0
    endloop
  endfacet
  facet normal -0.419889 -0.907575 0
    outer loop
      vertex 1.22089 0.520767 2.8
      vertex 1.00065 0.622662 2.8
      vertex 1.00065 0.622662 0
    endloop
  endfacet
  facet normal -0.108119 -0.994138 0
    outer loop
      vertex 1.00065 0.622662 0
      vertex 1.00065 0.622662 2.8
      vertex 0.759396 0.6489 0
    endloop
  endfacet
  facet normal -0.108119 -0.994138 0
    outer loop
      vertex 1.00065 0.622662 2.8
      vertex 0.759396 0.6489 2.8
      vertex 0.759396 0.6489 0
    endloop
  endfacet
  facet normal 0.21497 -0.976621 0
    outer loop
      vertex 0.759396 0.6489 0
      vertex 0.759396 0.6489 2.8
      vertex 0.522396 0.596733 0
    endloop
  endfacet
  facet normal 0.21497 -0.976621 0
    outer loop
      vertex 0.759396 0.6489 2.8
      vertex 0.522396 0.596733 2.8
      vertex 0.522396 0.596733 0
    endloop
  endfacet
  facet normal 0.468408 -0.883512 0
    outer loop
      vertex 0.522396 0.596733 0
      vertex 0.522396 0.596733 2.8
      vertex 0.37911 0.520767 0
    endloop
  endfacet
  facet normal 0.468408 -0.883512 0
    outer loop
      vertex 0.522396 0.596733 2.8
      vertex 0.37911 0.520767 2.8
      vertex 0.37911 0.520767 0
    endloop
  endfacet
  facet normal 0.605174 -0.796093 0
    outer loop
      vertex 0.37911 0.520767 0
      vertex 0.37911 0.520767 2.8
      vertex 0.31446 0.471622 0
    endloop
  endfacet
  facet normal 0.605174 -0.796093 0
    outer loop
      vertex 0.37911 0.520767 2.8
      vertex 0.31446 0.471622 2.8
      vertex 0.31446 0.471622 0
    endloop
  endfacet
  facet normal 0.762162 -0.647386 0
    outer loop
      vertex 0.31446 0.471622 0
      vertex 0.31446 0.471622 2.8
      vertex 0.157357 0.286665 0
    endloop
  endfacet
  facet normal 0.762162 -0.647386 0
    outer loop
      vertex 0.31446 0.471622 2.8
      vertex 0.157357 0.286665 2.8
      vertex 0.157357 0.286665 0
    endloop
  endfacet
  facet normal 0.928977 -0.370138 0
    outer loop
      vertex 0.157357 0.286665 0
      vertex 0.157357 0.286665 2.8
      vertex 0.0675346 0.0612278 0
    endloop
  endfacet
  facet normal 0.928977 -0.370138 0
    outer loop
      vertex 0.157357 0.286665 2.8
      vertex 0.0675346 0.0612278 2.8
      vertex 0.0675346 0.0612278 0
    endloop
  endfacet
  facet normal 0.998533 -0.0541389 0
    outer loop
      vertex 0.0675346 0.0612278 0
      vertex 0.0675346 0.0612278 2.8
      vertex 0.0543965 -0.181089 0
    endloop
  endfacet
  facet normal 0.998533 -0.0541389 0
    outer loop
      vertex 0.0675346 0.0612278 2.8
      vertex 0.0543965 -0.181089 2.8
      vertex 0.0543965 -0.181089 0
    endloop
  endfacet
  facet normal 0.96355 0.267528 0
    outer loop
      vertex 0.0543965 -0.181089 0
      vertex 0.0543965 -0.181089 2.8
      vertex 0.119318 -0.414917 0
    endloop
  endfacet
  facet normal 0.96355 0.267528 0
    outer loop
      vertex 0.0543965 -0.181089 2.8
      vertex 0.119318 -0.414917 2.8
      vertex 0.119318 -0.414917 0
    endloop
  endfacet
  facet normal 0.827689 0.561187 0
    outer loop
      vertex 0.119318 -0.414917 0
      vertex 0.119318 -0.414917 2.8
      vertex 0.255503 -0.615775 0
    endloop
  endfacet
  facet normal 0.827689 0.561187 0
    outer loop
      vertex 0.119318 -0.414917 2.8
      vertex 0.255503 -0.615775 2.8
      vertex 0.255503 -0.615775 0
    endloop
  endfacet
  facet normal 0.647386 0.762162 0
    outer loop
      vertex 0.255503 -0.615775 0
      vertex 0.255503 -0.615775 2.8
      vertex 0.37911 -0.720767 0
    endloop
  endfacet
  facet normal 0.647386 0.762162 0
    outer loop
      vertex 0.255503 -0.615775 2.8
      vertex 0.37911 -0.720767 2.8
      vertex 0.37911 -0.720767 0
    endloop
  endfacet
  facet normal 0.515554 0.856857 0
    outer loop
      vertex 0.37911 -0.720767 0
      vertex 0.37911 -0.720767 2.8
      vertex 0.448694 -0.762634 0
    endloop
  endfacet
  facet normal 0.515554 0.856857 0
    outer loop
      vertex 0.37911 -0.720767 2.8
      vertex 0.448694 -0.762634 2.8
      vertex 0.448694 -0.762634 0
    endloop
  endfacet
  facet normal 0.319302 0.947653 0
    outer loop
      vertex 0.448694 -0.762634 0
      vertex 0.448694 -0.762634 2.8
      vertex 0.678663 -0.84012 0
    endloop
  endfacet
  facet normal 0.319302 0.947653 0
    outer loop
      vertex 0.448694 -0.762634 2.8
      vertex 0.678663 -0.84012 2.8
      vertex 0.678663 -0.84012 0
    endloop
  endfacet
  facet normal 0 1 0
    outer loop
      vertex 0.678663 -0.84012 0
      vertex 0.678663 -0.84012 2.8
      vertex 0.921337 -0.84012 0
    endloop
  endfacet
  facet normal 0 1 0
    outer loop
      vertex 0.678663 -0.84012 2.8
      vertex 0.921337 -0.84012 2.8
      vertex 0.921337 -0.84012 0
    endloop
  endfacet
  facet normal -0.319302 0.947653 0
    outer loop
      vertex 0.921337 -0.84012 0
      vertex 0.921337 -0.84012 2.8
      vertex 1.15131 -0.762634 0
    endloop
  endfacet
  facet normal -0.319302 0.947653 0
    outer loop
      vertex 0.921337 -0.84012 2.8
      vertex 1.15131 -0.762634 2.8
      vertex 1.15131 -0.762634 0
    endloop
  endfacet
  facet normal -0.605174 0.796093 0
    outer loop
      vertex 1.15131 -0.762634 0
      vertex 1.15131 -0.762634 2.8
      vertex 1.3445 -0.615775 0
    endloop
  endfacet
  facet normal -0.605174 0.796093 0
    outer loop
      vertex 1.15131 -0.762634 2.8
      vertex 1.3445 -0.615775 2.8
      vertex 1.3445 -0.615775 0
    endloop
  endfacet
  facet normal -0.827689 0.561187 0
    outer loop
      vertex 1.3445 -0.615775 0
      vertex 1.3445 -0.615775 2.8
      vertex 1.48068 -0.414917 0
    endloop
  endfacet
  facet normal -0.827689 0.561187 0
    outer loop
      vertex 1.3445 -0.615775 2.8
      vertex 1.48068 -0.414917 2.8
      vertex 1.48068 -0.414917 0
    endloop
  endfacet
  facet normal -0.96355 0.267528 0
    outer loop
      vertex 1.48068 -0.414917 0
      vertex 1.48068 -0.414917 2.8
      vertex 1.5456 -0.181089 0
    endloop
  endfacet
  facet normal -0.96355 0.267528 0
    outer loop
      vertex 1.48068 -0.414917 2.8
      vertex 1.5456 -0.181089 2.8
      vertex 1.5456 -0.181089 0
    endloop
  endfacet
  facet normal -0.998533 0.054139 0
    outer loop
      vertex 1.5456 -0.181089 0
      vertex 1.5456 -0.181089 2.8
      vertex 1.55 -0.1 0
    endloop
  endfacet
  facet normal -0.998533 0.054139 0
    outer loop
      vertex 1.5456 -0.181089 2.8
      vertex 1.55 -0.1 2.8
      vertex 1.55 -0.1 0
    endloop
  endfacet
  facet normal 0 1 0
    outer loop
      vertex -3.5 -3 2.8
      vertex -3.5 -3 1.8
      vertex -5.5 -3 2.8
    endloop
  endfacet
  facet normal 0 1 0
    outer loop
      vertex -3.5 -3 1.8
      vertex -5.5 -3 1.8
      vertex -5.5 -3 2.8
    endloop
  endfacet
  facet normal 0 -1 0
    outer loop
      vertex -3.5 -4 1.8
      vertex -3.5 -4 2.8
      vertex -5.5 -4 1.8
    endloop
  endfacet
  facet normal 0 -1 0
    outer loop
      vertex -3.5 -4 2.8
      vertex -5.5 -4 2.8
      vertex -5.5 -4 1.8
    endloop
  endfacet
  facet normal 0 0 -1
    outer loop
      vertex -3.5 -4 1.8
      vertex -5.5 -4 1.8
      vertex -3.5 -3 1.8
    endloop
  endfacet
  facet normal 0 0 -1
    outer loop
      vertex -5.5 -4 1.8
      vertex -5.5 -3 1.8
      vertex -3.5 -3 1.8
    endloop
  endfacet
  facet normal -1 0 0
    outer loop
      vertex -5.5 -3 1.8
      vertex -5.5 -4 1.8
      vertex -5.5 -3 2.8
    endloop
  endfacet
  facet normal -1 0 0
    outer loop
      vertex -5.5 -4 1.8
      vertex -5.5 -4 2.8
      vertex -5.5 -3 2.8
    endloop
  endfacet
  facet normal 1 0 0
    outer loop
      vertex -3.5 -3 2.8
      vertex -3.5 -4 2.8
      vertex -3.5 -3 1.8
    endloop
  endfacet
  facet normal 1 0 0
    outer loop
      vertex -3.5 -4 2.8
      vertex -3.5 -4 1.8
      vertex -3.5 -3 1.8
    endloop
  endfacet
  facet normal 0 0 1
    outer loop
      vertex -5.5 -3 2.8
      vertex -5.5 -4 2.8
      vertex -3.5 -3 2.8
    endloop
  endfacet
  facet normal 0 0 1
    outer loop
      vertex -5.5 -4 2.8
      vertex -3.5 -4 2.8
      vertex -3.5 -3 2.8
    endloop
  endfacet
  facet normal 0 1 0
    outer loop
      vertex -5.5 4 2.8
      vertex -3.5 4 2.8
      vertex -5.5 4 1.8
    endloop
  endfacet
  facet normal 0 1 0
    outer loop
      vertex -3.5 4 2.8
      vertex -3.5 4 1.8
      vertex -5.5 4 1.8
    endloop
  endfacet
  facet normal -1 0 0
    outer loop
      vertex -5.5 4 2.8
      vertex -5.5 4 1.8
      vertex -5.5 3 2.8
    endloop
  endfacet
  facet normal -1 0 0
    outer loop
      vertex -5.5 4 1.8
      vertex -5.5 3 1.8
      vertex -5.5 3 2.8
    endloop
  endfacet
  facet normal 0 0 -1
    outer loop
      vertex -5.5 3 1.8
      vertex -5.5 4 1.8
      vertex -3.5 3 1.8
    endloop
  endfacet
  facet normal 0 0 -1
    outer loop
      vertex -5.5 4 1.8
      vertex -3.5 4 1.8
      vertex -3.5 3 1.8
    endloop
  endfacet
  facet normal 0 -1 0
    outer loop
      vertex -3.5 3 2.8
      vertex -5.5 3 2.8
      vertex -3.5 3 1.8
    endloop
  endfacet
  facet normal 0 -1 0
    outer loop
      vertex -5.5 3 2.8
      vertex -5.5 3 1.8
      vertex -3.5 3 1.8
    endloop
  endfacet
  facet normal 0 0 1
    outer loop
      vertex -3.5 3 2.8
      vertex -3.5 4 2.8
      vertex -5.5 3 2.8
    endloop
  endfacet
  facet normal 0 0 1
    outer loop
      vertex -3.5 4 2.8
      vertex -5.5 4 2.8
      vertex -5.5 3 2.8
    endloop
  endfacet
  facet normal 1 0 0
    outer loop
      vertex -3.5 3 1.8
      vertex -3.5 4 1.8
      vertex -3.5 3 2.8
    endloop
  endfacet
  facet normal 1 0 0
    outer loop
      vertex -3.5 4 1.8
      vertex -3.5 4 2.8
      vertex -3.5 3 2.8
    endloop
  endfacet
  facet normal 0 1 0
    outer loop
      vertex 3.5 4 1.8
      vertex 3.5 4 2.8
      vertex 5.5 4 1.8
    endloop
  endfacet
  facet normal 0 1 0
    outer loop
      vertex 3.5 4 2.8
      vertex 5.5 4 2.8
      vertex 5.5 4 1.8
    endloop
  endfacet
  facet normal 0 0 -1
    outer loop
      vertex 3.5 4 1.8
      vertex 5.5 4 1.8
      vertex 3.5 3 1.8
    endloop
  endfacet
  facet normal 0 0 -1
    outer loop
      vertex 5.5 4 1.8
      vertex 5.5 3 1.8
      vertex 3.5 3 1.8
    endloop
  endfacet
  facet normal 0 -1 0
    outer loop
      vertex 3.5 3 2.8
      vertex 3.5 3 1.8
      vertex 5.5 3 2.8
    endloop
  endfacet
  facet normal 0 -1 0
    outer loop
      vertex 3.5 3 1.8
      vertex 5.5 3 1.8
      vertex 5.5 3 2.8
    endloop
  endfacet
  facet normal 1 0 0
    outer loop
      vertex 5.5 3 1.8
      vertex 5.5 4 1.8
      vertex 5.5 3 2.8
    endloop
  endfacet
  facet normal 1 0 0
    outer loop
      vertex 5.5 4 1.8
      vertex 5.5 4 2.8
      vertex 5.5 3 2.8
    endloop
  endfacet
  facet normal -1 0 0
    outer loop
      vertex 3.5 3 2.8
      vertex 3.5 4 2.8
      vertex 3.5 3 1.8
    endloop
  endfacet
  facet normal -1 0 0
    outer loop
      vertex 3.5 4 2.8
      vertex 3.5 4 1.8
      vertex 3.5 3 1.8
    endloop
  endfacet
  facet normal 0 0 1
    outer loop
      vertex 5.5 3 2.8
      vertex 5.5 4 2.8
      vertex 3.5 3 2.8
    endloop
  endfacet
  facet normal 0 0 1
    outer loop
      vertex 5.5 4 2.8
      vertex 3.5 4 2.8
      vertex 3.5 3 2.8
    endloop
  endfacet
endsolid Mesh
