solid Mesh
  facet normal 0 0 1
    outer loop
      vertex -1.8982e-16 3.1 0.5
      vertex -2.57176e-16 4.2 0.5
      vertex -5.5 3.1 0.5
    endloop
  endfacet
  facet normal 0 0 1
    outer loop
      vertex -2.57176e-16 4.2 0.5
      vertex -5.5 4.2 0.5
      vertex -5.5 3.1 0.5
    endloop
  endfacet
  facet normal 0 0 -1
    outer loop
      vertex -1.8982e-16 3.1 1.7
      vertex -5.5 3.1 1.7
      vertex -2.57176e-16 4.2 1.7
    endloop
  endfacet
  facet normal 0 0 -1
    outer loop
      vertex -5.5 3.1 1.7
      vertex -5.5 4.2 1.7
      vertex -2.57176e-16 4.2 1.7
    endloop
  endfacet
  facet normal 0 -1 0
    outer loop
      vertex 2.81669e-16 -4.6 0
      vertex 4.33681e-16 -4.6 7.5
      vertex -6 -4.6 0
    endloop
  endfacet
  facet normal 0 -1 0
    outer loop
      vertex 4.33681e-16 -4.6 7.5
      vertex -6 -4.6 7.5
      vertex -6 -4.6 0
    endloop
  endfacet
  facet normal 0 0 -1
    outer loop
      vertex 1.8982e-16 -3.1 0
      vertex 2.81669e-16 -4.6 0
      vertex -5.5 -3.1 0
    endloop
  endfacet
  facet normal 0 0 -1
    outer loop
      vertex 2.81669e-16 -4.6 0
      vertex -6 -4.6 0
      vertex -5.5 -3.1 0
    endloop
  endfacet
  facet normal 0 0 -1
    outer loop
      vertex -5.5 -3.1 0
      vertex -6 -4.6 0
      vertex -5.5 3.1 0
    endloop
  endfacet
  facet normal 0 0 -1
    outer loop
      vertex -6 -4.6 0
      vertex -6 4.6 0
      vertex -5.5 3.1 0
    endloop
  endfacet
  facet normal 0 0 -1
    outer loop
      vertex -5.5 3.1 0
      vertex -6 4.6 0
      vertex -1.8982e-16 3.1 0
    endloop
  endfacet
  facet normal 0 0 -1
    outer loop
      vertex -6 4.6 0
      vertex -2.81669e-16 4.6 0
      vertex -1.8982e-16 3.1 0
    endloop
  endfacet
  facet normal 0 1 0
    outer loop
      vertex -5.5 -3.1 7
      vertex 0 -3.1 7
      vertex -5.5 -3.1 1.7
    endloop
  endfacet
  facet normal 0 1 0
    outer loop
      vertex 0 -3.1 7
      vertex 1.8982e-16 -3.1 1.7
      vertex -5.5 -3.1 1.7
    endloop
  endfacet
  facet normal 1 6.12323e-17 0
    outer loop
      vertex 2.81669e-16 -4.6 0
      vertex 1.8982e-16 -3.1 0
      vertex 1.8982e-16 -3.1 0.5
    endloop
  endfacet
  facet normal 1 6.12324e-17 -1.79748e-23
    outer loop
      vertex 1.8982e-16 -3.1 0.5
      vertex 2.57176e-16 -4.2 0.5
      vertex 2.81669e-16 -4.6 0
    endloop
  endfacet
  facet normal 1 6.12323e-17 0
    outer loop
      vertex 2.57176e-16 -4.2 0.5
      vertex 2.57176e-16 -4.2 1.7
      vertex 2.81669e-16 -4.6 0
    endloop
  endfacet
  facet normal 1 1.47372e-16 -2.02683e-17
    outer loop
      vertex 2.81669e-16 -4.6 0
      vertex 2.57176e-16 -4.2 1.7
      vertex 4.33681e-16 -4.6 7.5
    endloop
  endfacet
  facet normal 1 6.12324e-17 -2.6209e-17
    outer loop
      vertex 2.57176e-16 -4.2 1.7
      vertex 1.8982e-16 -3.1 1.7
      vertex 4.33681e-16 -4.6 7.5
    endloop
  endfacet
  facet normal 1 3.01059e-16 3.58151e-17
    outer loop
      vertex 1.8982e-16 -3.1 1.7
      vertex 0 -3.1 7
      vertex 4.33681e-16 -4.6 7.5
    endloop
  endfacet
  facet normal 1 9.42784e-17 -5.84527e-16
    outer loop
      vertex 4.33681e-16 -4.6 7.5
      vertex 0 -3.1 7
      vertex -4.33681e-16 4.6 7.5
    endloop
  endfacet
  facet normal 1 0 8.67362e-16
    outer loop
      vertex 0 -3.1 7
      vertex 0 3.1 7
      vertex -4.33681e-16 4.6 7.5
    endloop
  endfacet
  facet normal 1 6.12324e-17 0
    outer loop
      vertex -1.8982e-16 3.1 0.5
      vertex -1.8982e-16 3.1 0
      vertex -2.57176e-16 4.2 0.5
    endloop
  endfacet
  facet normal 1 6.12323e-17 1.31815e-23
    outer loop
      vertex -1.8982e-16 3.1 0
      vertex -2.81669e-16 4.6 0
      vertex -2.57176e-16 4.2 0.5
    endloop
  endfacet
  facet normal 1 6.12323e-17 0
    outer loop
      vertex -2.57176e-16 4.2 0.5
      vertex -2.81669e-16 4.6 0
      vertex -2.57176e-16 4.2 1.7
    endloop
  endfacet
  facet normal 1 1.47372e-16 2.02683e-17
    outer loop
      vertex -2.81669e-16 4.6 0
      vertex -4.33681e-16 4.6 7.5
      vertex -2.57176e-16 4.2 1.7
    endloop
  endfacet
  facet normal 1 6.12324e-17 2.6209e-17
    outer loop
      vertex -2.57176e-16 4.2 1.7
      vertex -4.33681e-16 4.6 7.5
      vertex -1.8982e-16 3.1 1.7
    endloop
  endfacet
  facet normal 1 3.01059e-16 -3.58151e-17
    outer loop
      vertex -4.33681e-16 4.6 7.5
      vertex 0 3.1 7
      vertex -1.8982e-16 3.1 1.7
    endloop
  endfacet
  facet normal 0 0 -1
    outer loop
      vertex -5.5 -3.1 7
      vertex -5.5 3.1 7
      vertex 0 -3.1 7
    endloop
  endfacet
  facet normal 0 0 -1
    outer loop
      vertex -5.5 3.1 7
      vertex 0 3.1 7
      vertex 0 -3.1 7
    endloop
  endfacet
  facet normal 0 1 0
    outer loop
      vertex -6 4.6 0
      vertex -6 4.6 7.5
      vertex -2.81669e-16 4.6 0
    endloop
  endfacet
  facet normal 0 1 0
    outer loop
      vertex -6 4.6 7.5
      vertex -4.33681e-16 4.6 7.5
      vertex -2.81669e-16 4.6 0
    endloop
  endfacet
  facet normal 0 1 0
    outer loop
      vertex 1.8982e-16 -3.1 0.5
      vertex 1.8982e-16 -3.1 0
      vertex -5.5 -3.1 0.5
    endloop
  endfacet
  facet normal 0 1 0
    outer loop
      vertex 1.8982e-16 -3.1 0
      vertex -5.5 -3.1 0
      vertex -5.5 -3.1 0.5
    endloop
  endfacet
  facet normal 0 -1 0
    outer loop
      vertex -5.5 3.1 0
      vertex -1.8982e-16 3.1 0
      vertex -5.5 3.1 0.5
    endloop
  endfacet
  facet normal 0 -1 0
    outer loop
      vertex -1.8982e-16 3.1 0
      vertex -1.8982e-16 3.1 0.5
      vertex -5.5 3.1 0.5
    endloop
  endfacet
  facet normal -1 0 0
    outer loop
      vertex -6 -4.6 7.5
      vertex -6 4.6 7.5
      vertex -6 -4.6 0
    endloop
  endfacet
  facet normal -1 0 0
    outer loop
      vertex -6 4.6 7.5
      vertex -6 4.6 0
      vertex -6 -4.6 0
    endloop
  endfacet
  facet normal 0 0 1
    outer loop
      vertex -6 -4.6 7.5
      vertex 4.33681e-16 -4.6 7.5
      vertex -6 4.6 7.5
    endloop
  endfacet
  facet normal 0 0 1
    outer loop
      vertex 4.33681e-16 -4.6 7.5
      vertex -4.33681e-16 4.6 7.5
      vertex -6 4.6 7.5
    endloop
  endfacet
  facet normal 1 0 0
    outer loop
      vertex -5.5 3.1 1.7
      vertex -5.5 3.1 7
      vertex -5.5 -3.1 7
    endloop
  endfacet
  facet normal 1 0 0
    outer loop
      vertex -5.5 -3.1 0.5
      vertex -5.5 -3.1 0
      vertex -5.5 3.1 0
    endloop
  endfacet
  facet normal 1 0 0
    outer loop
      vertex -5.5 3.1 0.5
      vertex -5.5 4.2 0.5
      vertex -5.5 4.2 1.7
    endloop
  endfacet
  facet normal 1 0 0
    outer loop
      vertex -5.5 -3.1 1.7
      vertex -5.5 -4.2 1.7
      vertex -5.5 -4.2 0.5
    endloop
  endfacet
  facet normal 1 0 0
    outer loop
      vertex -5.5 -4.2 0.5
      vertex -5.5 -3.1 0.5
      vertex -5.5 -3.1 1.7
    endloop
  endfacet
  facet normal 1 0 0
    outer loop
      vertex -5.5 -3.1 0.5
      vertex -5.5 3.1 0
      vertex -5.5 -3.1 1.7
    endloop
  endfacet
  facet normal 1 0 0
    outer loop
      vertex -5.5 -3.1 1.7
      vertex -5.5 3.1 0
      vertex -5.5 -3.1 7
    endloop
  endfacet
  facet normal 1 0 0
    outer loop
      vertex -5.5 3.1 0
      vertex -5.5 3.1 0.5
      vertex -5.5 -3.1 7
    endloop
  endfacet
  facet normal 1 0 0
    outer loop
      vertex -5.5 -3.1 7
      vertex -5.5 3.1 0.5
      vertex -5.5 3.1 1.7
    endloop
  endfacet
  facet normal 1 0 0
    outer loop
      vertex -5.5 3.1 0.5
      vertex -5.5 4.2 1.7
      vertex -5.5 3.1 1.7
    endloop
  endfacet
  facet normal 0 -1 0
    outer loop
      vertex -1.8982e-16 3.1 1.7
      vertex 0 3.1 7
      vertex -5.5 3.1 1.7
    endloop
  endfacet
  facet normal 0 -1 0
    outer loop
      vertex 0 3.1 7
      vertex -5.5 3.1 7
      vertex -5.5 3.1 1.7
    endloop
  endfacet
  facet normal 0 0 -1
    outer loop
      vertex 2.57176e-16 -4.2 1.7
      vertex -5.5 -4.2 1.7
      vertex 1.8982e-16 -3.1 1.7
    endloop
  endfacet
  facet normal 0 0 -1
    outer loop
      vertex -5.5 -4.2 1.7
      vertex -5.5 -3.1 1.7
      vertex 1.8982e-16 -3.1 1.7
    endloop
  endfacet
  facet normal 0 1 0
    outer loop
      vertex 2.57176e-16 -4.2 0.5
      vertex -5.5 -4.2 0.5
      vertex 2.57176e-16 -4.2 1.7
    endloop
  endfacet
  facet normal 0 1 0
    outer loop
      vertex -5.5 -4.2 0.5
      vertex -5.5 -4.2 1.7
      vertex 2.57176e-16 -4.2 1.7
    endloop
  endfacet
  facet normal 0 0 1
    outer loop
      vertex 1.8982e-16 -3.1 0.5
      vertex -5.5 -3.1 0.5
      vertex 2.57176e-16 -4.2 0.5
    endloop
  endfacet
  facet normal 0 0 1
    outer loop
      vertex -5.5 -3.1 0.5
      vertex -5.5 -4.2 0.5
      vertex 2.57176e-16 -4.2 0.5
    endloop
  endfacet
  facet normal 0 -1 0
    outer loop
      vertex -2.57176e-16 4.2 1.7
      vertex -5.5 4.2 1.7
      vertex -2.57176e-16 4.2 0.5
    endloop
  endfacet
  facet normal 0 -1 0
    outer loop
      vertex -5.5 4.2 1.7
      vertex -5.5 4.2 0.5
      vertex -2.57176e-16 4.2 0.5
    endloop
  endfacet
  facet normal 0 0 1
    outer loop
      vertex 2.75 1.58771 13.1
      vertex 1.0842e-15 3.17543 13.1
      vertex 2.75 -1.58771 13.1
    endloop
  endfacet
  facet normal 0 0 1
    outer loop
      vertex 1.0842e-15 3.17543 13.1
      vertex -2.75 1.58771 13.1
      vertex 2.75 -1.58771 13.1
    endloop
  endfacet
  facet normal 0 0 1
    outer loop
      vertex 2.75 -1.58771 13.1
      vertex -2.75 1.58771 13.1
      vertex 1.30104e-15 -3.17543 13.1
    endloop
  endfacet
  facet normal 0 0 1
    outer loop
      vertex -2.75 1.58771 13.1
      vertex -2.75 -1.58771 13.1
      vertex 1.30104e-15 -3.17543 13.1
    endloop
  endfacet
  facet normal -0.5 0.866025 4.51751e-17
    outer loop
      vertex 1.51788e-15 -3.17543 15.5
      vertex 2.75 -1.58771 15.5
      vertex 1.30104e-15 -3.17543 13.1
    endloop
  endfacet
  facet normal -0.5 0.866025 0
    outer loop
      vertex 2.75 -1.58771 15.5
      vertex 2.75 -1.58771 13.1
      vertex 1.30104e-15 -3.17543 13.1
    endloop
  endfacet
  facet normal 0.5 0.866025 -4.51751e-17
    outer loop
      vertex 1.51788e-15 -3.17543 15.5
      vertex 1.30104e-15 -3.17543 13.1
      vertex -2.75 -1.58771 15.5
    endloop
  endfacet
  facet normal 0.5 0.866025 0
    outer loop
      vertex 1.30104e-15 -3.17543 13.1
      vertex -2.75 -1.58771 13.1
      vertex -2.75 -1.58771 15.5
    endloop
  endfacet
  facet normal 1 0 0
    outer loop
      vertex -2.75 -1.58771 15.5
      vertex -2.75 -1.58771 13.1
      vertex -2.75 1.58771 15.5
    endloop
  endfacet
  facet normal 1 0 0
    outer loop
      vertex -2.75 -1.58771 13.1
      vertex -2.75 1.58771 13.1
      vertex -2.75 1.58771 15.5
    endloop
  endfacet
  facet normal 0.5 -0.866025 0
    outer loop
      vertex -2.75 1.58771 15.5
      vertex -2.75 1.58771 13.1
      vertex 1.0842e-15 3.17543 15.5
    endloop
  endfacet
  facet normal 0.5 -0.866025 0
    outer loop
      vertex -2.75 1.58771 13.1
      vertex 1.0842e-15 3.17543 13.1
      vertex 1.0842e-15 3.17543 15.5
    endloop
  endfacet
  facet normal -0.5 -0.866025 0
    outer loop
      vertex 1.0842e-15 3.17543 15.5
      vertex 1.0842e-15 3.17543 13.1
      vertex 2.75 1.58771 15.5
    endloop
  endfacet
  facet normal -0.5 -0.866025 0
    outer loop
      vertex 1.0842e-15 3.17543 13.1
      vertex 2.75 1.58771 13.1
      vertex 2.75 1.58771 15.5
    endloop
  endfacet
  facet normal -1 0 0
    outer loop
      vertex 2.75 1.58771 15.5
      vertex 2.75 1.58771 13.1
      vertex 2.75 -1.58771 15.5
    endloop
  endfacet
  facet normal -1 0 0
    outer loop
      vertex 2.75 1.58771 13.1
      vertex 2.75 -1.58771 13.1
      vertex 2.75 -1.58771 15.5
    endloop
  endfacet
  facet normal 1 0 0
    outer loop
      vertex 3 4.6 12.5
      vertex 3 4.6 15.5
      vertex 3 -4.6 12.5
    endloop
  endfacet
  facet normal 1 0 0
    outer loop
      vertex 3 4.6 15.5
      vertex 3 -4.6 15.5
      vertex 3 -4.6 12.5
    endloop
  endfacet
  facet normal 0 -1 0
    outer loop
      vertex -3 -4.6 12.5
      vertex 3 -4.6 12.5
      vertex -3 -4.6 15.5
    endloop
  endfacet
  facet normal 0 -1 0
    outer loop
      vertex 3 -4.6 12.5
      vertex 3 -4.6 15.5
      vertex -3 -4.6 15.5
    endloop
  endfacet
  facet normal 0 1 0
    outer loop
      vertex 3 4.6 15.5
      vertex 3 4.6 12.5
      vertex -3 4.6 15.5
    endloop
  endfacet
  facet normal 0 1 0
    outer loop
      vertex 3 4.6 12.5
      vertex -3 4.6 12.5
      vertex -3 4.6 15.5
    endloop
  endfacet
  facet normal 0 0 1
    outer loop
      vertex 3 -4.6 15.5
      vertex 1.51788e-15 -3.17543 15.5
      vertex -3 -4.6 15.5
    endloop
  endfacet
  facet normal 0 0 1
    outer loop
      vertex 1.51788e-15 -3.17543 15.5
      vertex -2.75 -1.58771 15.5
      vertex -3 -4.6 15.5
    endloop
  endfacet
  facet normal 0 0 1
    outer loop
      vertex -3 -4.6 15.5
      vertex -2.75 -1.58771 15.5
      vertex -3 4.6 15.5
    endloop
  endfacet
  facet normal 0 0 1
    outer loop
      vertex -2.75 -1.58771 15.5
      vertex -2.75 1.58771 15.5
      vertex -3 4.6 15.5
    endloop
  endfacet
  facet normal 0 0 1
    outer loop
      vertex -2.75 1.58771 15.5
      vertex 1.0842e-15 3.17543 15.5
      vertex -3 4.6 15.5
    endloop
  endfacet
  facet normal 0 0 1
    outer loop
      vertex -3 4.6 15.5
      vertex 1.0842e-15 3.17543 15.5
      vertex 3 4.6 15.5
    endloop
  endfacet
  facet normal 0 0 1
    outer loop
      vertex 1.0842e-15 3.17543 15.5
      vertex 2.75 1.58771 15.5
      vertex 3 4.6 15.5
    endloop
  endfacet
  facet normal 0 0 1
    outer loop
      vertex 3 4.6 15.5
      vertex 2.75 1.58771 15.5
      vertex 3 -4.6 15.5
    endloop
  endfacet
  facet normal 0 0 1
    outer loop
      vertex 2.75 1.58771 15.5
      vertex 2.75 -1.58771 15.5
      vertex 3 -4.6 15.5
    endloop
  endfacet
  facet normal 0 0 1
    outer loop
      vertex 3 -4.6 15.5
      vertex 2.75 -1.58771 15.5
      vertex 1.51788e-15 -3.17543 15.5
    endloop
  endfacet
  facet normal -1 0 0
    outer loop
      vertex -3 -4.6 15.5
      vertex -3 4.6 15.5
      vertex -3 -4.6 12.5
    endloop
  endfacet
  facet normal -1 0 0
    outer loop
      vertex -3 4.6 15.5
      vertex -3 4.6 12.5
      vertex -3 -4.6 12.5
    endloop
  endfacet
  facet normal 0 0 -1
    outer loop
      vertex 3 -4.6 12.5
      vertex -3 -4.6 12.5
      vertex 3 4.6 12.5
    endloop
  endfacet
  facet normal 0 0 -1
    outer loop
      vertex -3 -4.6 12.5
      vertex -3 4.6 12.5
      vertex 3 4.6 12.5
    endloop
  endfacet
  facet normal 1 0 0
    outer loop
      vertex 3 4.6 7.5
      vertex 3 4.6 12.5
      vertex 3 2.7 7.5
    endloop
  endfacet
  facet normal 1 0 0
    outer loop
      vertex 3 4.6 12.5
      vertex 3 2.7 12.5
      vertex 3 2.7 7.5
    endloop
  endfacet
  facet normal -1 0 0
    outer loop
      vertex -4.33681e-16 4.6 12.5
      vertex -4.33681e-16 4.6 7.5
      vertex -4.33681e-16 2.7 12.5
    endloop
  endfacet
  facet normal -1 0 0
    outer loop
      vertex -4.33681e-16 4.6 7.5
      vertex -4.33681e-16 2.7 7.5
      vertex -4.33681e-16 2.7 12.5
    endloop
  endfacet
  facet normal 0 0 -1
    outer loop
      vertex 3 4.6 7.5
      vertex 3 2.7 7.5
      vertex -4.33681e-16 4.6 7.5
    endloop
  endfacet
  facet normal 0 0 -1
    outer loop
      vertex 3 2.7 7.5
      vertex -4.33681e-16 2.7 7.5
      vertex -4.33681e-16 4.6 7.5
    endloop
  endfacet
  facet normal 0 -1 0
    outer loop
      vertex -4.33681e-16 2.7 7.5
      vertex 3 2.7 7.5
      vertex -4.33681e-16 2.7 12.5
    endloop
  endfacet
  facet normal 0 -1 0
    outer loop
      vertex 3 2.7 7.5
      vertex 3 2.7 12.5
      vertex -4.33681e-16 2.7 12.5
    endloop
  endfacet
  facet normal 0 1 0
    outer loop
      vertex -4.33681e-16 4.6 12.5
      vertex 3 4.6 12.5
      vertex -4.33681e-16 4.6 7.5
    endloop
  endfacet
  facet normal 0 1 0
    outer loop
      vertex 3 4.6 12.5
      vertex 3 4.6 7.5
      vertex -4.33681e-16 4.6 7.5
    endloop
  endfacet
  facet normal 0 0 1
    outer loop
      vertex -4.33681e-16 2.7 12.5
      vertex 3 2.7 12.5
      vertex -4.33681e-16 4.6 12.5
    endloop
  endfacet
  facet normal 0 0 1
    outer loop
      vertex 3 2.7 12.5
      vertex 3 4.6 12.5
      vertex -4.33681e-16 4.6 12.5
    endloop
  endfacet
  facet normal 0 0.267529 0.96355
    outer loop
      vertex -3.98785e-16 -0.370138 9.07102
      vertex -4.18428e-16 -0.161782 9.01317
      vertex -2 -0.161782 9.01317
    endloop
  endfacet
  facet normal 0 0.0811592 0.996701
    outer loop
      vertex -4.18428e-16 -0.161782 9.01317
      vertex -4.33681e-16 1.55413e-16 9
      vertex -2 -0.161782 9.01317
    endloop
  endfacet
  facet normal 0.00219783 0.054138 0.998531
    outer loop
      vertex -2 -0.161782 9.01317
      vertex -4.33681e-16 1.55413e-16 9
      vertex -2 0.0541389 9.00147
    endloop
  endfacet
  facet normal 0 -0.0270839 0.999633
    outer loop
      vertex -4.33681e-16 1.55413e-16 9
      vertex -4.38785e-16 0.0541389 9.00147
      vertex -2 0.0541389 9.00147
    endloop
  endfacet
  facet normal 0 -0.161781 0.986827
    outer loop
      vertex -2 0.0541389 9.00147
      vertex -4.38785e-16 0.0541389 9.00147
      vertex -2 0.267528 9.03645
    endloop
  endfacet
  facet normal 0 -0.161781 0.986827
    outer loop
      vertex -4.38785e-16 0.0541389 9.00147
      vertex -4.58903e-16 0.267528 9.03645
      vertex -2 0.267528 9.03645
    endloop
  endfacet
  facet normal 0 -0.370138 0.928977
    outer loop
      vertex -2 0.267528 9.03645
      vertex -4.58903e-16 0.267528 9.03645
      vertex -2 0.468408 9.11649
    endloop
  endfacet
  facet normal 0 -0.370138 0.928977
    outer loop
      vertex -4.58903e-16 0.267528 9.03645
      vertex -4.77842e-16 0.468408 9.11649
      vertex -2 0.468408 9.11649
    endloop
  endfacet
  facet normal 0 -0.515557 0.856855
    outer loop
      vertex -2 0.468408 9.11649
      vertex -4.77842e-16 0.468408 9.11649
      vertex -2 0.561187 9.17231
    endloop
  endfacet
  facet normal 0 -0.515557 0.856855
    outer loop
      vertex -4.77842e-16 0.468408 9.11649
      vertex -4.86589e-16 0.561187 9.17231
      vertex -2 0.561187 9.17231
    endloop
  endfacet
  facet normal 0 -0.605174 0.796093
    outer loop
      vertex -2 0.561187 9.17231
      vertex -4.86589e-16 0.561187 9.17231
      vertex -2 0.647386 9.23784
    endloop
  endfacet
  facet normal 0 -0.605174 0.796093
    outer loop
      vertex -4.86589e-16 0.561187 9.17231
      vertex -4.94715e-16 0.647386 9.23784
      vertex -2 0.647386 9.23784
    endloop
  endfacet
  facet normal 0 -0.725995 0.6877
    outer loop
      vertex -2 0.647386 9.23784
      vertex -4.94715e-16 0.647386 9.23784
      vertex -2 0.796093 9.39483
    endloop
  endfacet
  facet normal 0 -0.725995 0.6877
    outer loop
      vertex -4.94715e-16 0.647386 9.23784
      vertex -5.08735e-16 0.796093 9.39483
      vertex -2 0.796093 9.39483
    endloop
  endfacet
  facet normal 0 -0.856858 0.515553
    outer loop
      vertex -2 0.796093 9.39483
      vertex -5.08735e-16 0.796093 9.39483
      vertex -2 0.907575 9.58011
    endloop
  endfacet
  facet normal 0 -0.856858 0.515553
    outer loop
      vertex -5.08735e-16 0.796093 9.39483
      vertex -5.19246e-16 0.907575 9.58011
      vertex -2 0.907575 9.58011
    endloop
  endfacet
  facet normal 0 -0.947653 0.319303
    outer loop
      vertex -2 0.907575 9.58011
      vertex -5.19246e-16 0.907575 9.58011
      vertex -2 0.976621 9.78503
    endloop
  endfacet
  facet normal 0 -0.947653 0.319303
    outer loop
      vertex -5.19246e-16 0.907575 9.58011
      vertex -5.25755e-16 0.976621 9.78503
      vertex -2 0.976621 9.78503
    endloop
  endfacet
  facet normal 0 -0.994138 0.108119
    outer loop
      vertex -2 0.976621 9.78503
      vertex -5.25755e-16 0.976621 9.78503
      vertex -2 1 10
    endloop
  endfacet
  facet normal 0 -0.994138 0.108119
    outer loop
      vertex -5.25755e-16 0.976621 9.78503
      vertex -5.27959e-16 1 10
      vertex -2 1 10
    endloop
  endfacet
  facet normal 0 -0.994138 -0.108119
    outer loop
      vertex -2 1 10
      vertex -5.27959e-16 1 10
      vertex -2 0.976621 10.215
    endloop
  endfacet
  facet normal 0 -0.994138 -0.108119
    outer loop
      vertex -5.27959e-16 1 10
      vertex -5.25755e-16 0.976621 10.215
      vertex -2 0.976621 10.215
    endloop
  endfacet
  facet normal 0 -0.947653 -0.319301
    outer loop
      vertex -2 0.976621 10.215
      vertex -5.25755e-16 0.976621 10.215
      vertex -2 0.907575 10.4199
    endloop
  endfacet
  facet normal 0 -0.947653 -0.319301
    outer loop
      vertex -5.25755e-16 0.976621 10.215
      vertex -5.19246e-16 0.907575 10.4199
      vertex -2 0.907575 10.4199
    endloop
  endfacet
  facet normal 0 -0.856857 -0.515555
    outer loop
      vertex -2 0.907575 10.4199
      vertex -5.19246e-16 0.907575 10.4199
      vertex -2 0.796093 10.6052
    endloop
  endfacet
  facet normal 0 -0.856857 -0.515555
    outer loop
      vertex -5.19246e-16 0.907575 10.4199
      vertex -5.08735e-16 0.796093 10.6052
      vertex -2 0.796093 10.6052
    endloop
  endfacet
  facet normal 0 -0.725997 -0.687698
    outer loop
      vertex -2 0.796093 10.6052
      vertex -5.08735e-16 0.796093 10.6052
      vertex -2 0.647386 10.7622
    endloop
  endfacet
  facet normal 0 -0.725997 -0.687698
    outer loop
      vertex -5.08735e-16 0.796093 10.6052
      vertex -4.94715e-16 0.647386 10.7622
      vertex -2 0.647386 10.7622
    endloop
  endfacet
  facet normal 0 -0.605174 -0.796093
    outer loop
      vertex -2 0.647386 10.7622
      vertex -4.94715e-16 0.647386 10.7622
      vertex -2 0.561187 10.8277
    endloop
  endfacet
  facet normal 0 -0.605174 -0.796093
    outer loop
      vertex -4.94715e-16 0.647386 10.7622
      vertex -4.86589e-16 0.561187 10.8277
      vertex -2 0.561187 10.8277
    endloop
  endfacet
  facet normal 0 -0.468406 -0.883514
    outer loop
      vertex -2 0.561187 10.8277
      vertex -4.86589e-16 0.561187 10.8277
      vertex -2 0.370138 10.929
    endloop
  endfacet
  facet normal 0 -0.468406 -0.883514
    outer loop
      vertex -4.86589e-16 0.561187 10.8277
      vertex -4.68577e-16 0.370138 10.929
      vertex -2 0.370138 10.929
    endloop
  endfacet
  facet normal 0 -0.267529 -0.96355
    outer loop
      vertex -2 0.370138 10.929
      vertex -4.68577e-16 0.370138 10.929
      vertex -2 0.161782 10.9868
    endloop
  endfacet
  facet normal 0 -0.267529 -0.96355
    outer loop
      vertex -4.68577e-16 0.370138 10.929
      vertex -4.48933e-16 0.161782 10.9868
      vertex -2 0.161782 10.9868
    endloop
  endfacet
  facet normal 0 -0.0541381 -0.998533
    outer loop
      vertex -2 0.161782 10.9868
      vertex -4.48933e-16 0.161782 10.9868
      vertex -2 -0.0541389 10.9985
    endloop
  endfacet
  facet normal 0 -0.0541381 -0.998533
    outer loop
      vertex -4.48933e-16 0.161782 10.9868
      vertex -4.28577e-16 -0.0541389 10.9985
      vertex -2 -0.0541389 10.9985
    endloop
  endfacet
  facet normal 0 0.161781 -0.986827
    outer loop
      vertex -2 -0.0541389 10.9985
      vertex -4.28577e-16 -0.0541389 10.9985
      vertex -2 -0.267528 10.9635
    endloop
  endfacet
  facet normal 0 0.161781 -0.986827
    outer loop
      vertex -4.28577e-16 -0.0541389 10.9985
      vertex -4.08459e-16 -0.267528 10.9635
      vertex -2 -0.267528 10.9635
    endloop
  endfacet
  facet normal 0 0.370138 -0.928977
    outer loop
      vertex -2 -0.267528 10.9635
      vertex -4.08459e-16 -0.267528 10.9635
      vertex -2 -0.468408 10.8835
    endloop
  endfacet
  facet normal 0 0.370138 -0.928977
    outer loop
      vertex -4.08459e-16 -0.267528 10.9635
      vertex -3.8952e-16 -0.468408 10.8835
      vertex -2 -0.468408 10.8835
    endloop
  endfacet
  facet normal 0 0.561185 -0.82769
    outer loop
      vertex -2 -0.468408 10.8835
      vertex -3.8952e-16 -0.468408 10.8835
      vertex -2 -0.647386 10.7622
    endloop
  endfacet
  facet normal 0 0.561185 -0.82769
    outer loop
      vertex -3.8952e-16 -0.468408 10.8835
      vertex -3.72646e-16 -0.647386 10.7622
      vertex -2 -0.647386 10.7622
    endloop
  endfacet
  facet normal 0 0.725997 -0.687698
    outer loop
      vertex -2 -0.647386 10.7622
      vertex -3.72646e-16 -0.647386 10.7622
      vertex -2 -0.796093 10.6052
    endloop
  endfacet
  facet normal 0 0.725997 -0.687698
    outer loop
      vertex -3.72646e-16 -0.647386 10.7622
      vertex -3.58626e-16 -0.796093 10.6052
      vertex -2 -0.796093 10.6052
    endloop
  endfacet
  facet normal 0 0.856857 -0.515555
    outer loop
      vertex -2 -0.796093 10.6052
      vertex -3.58626e-16 -0.796093 10.6052
      vertex -2 -0.907575 10.4199
    endloop
  endfacet
  facet normal 0 0.856857 -0.515555
    outer loop
      vertex -3.58626e-16 -0.796093 10.6052
      vertex -3.48116e-16 -0.907575 10.4199
      vertex -2 -0.907575 10.4199
    endloop
  endfacet
  facet normal 0 0.947653 -0.319301
    outer loop
      vertex -2 -0.907575 10.4199
      vertex -3.48116e-16 -0.907575 10.4199
      vertex -2 -0.976621 10.215
    endloop
  endfacet
  facet normal 0 0.947653 -0.319301
    outer loop
      vertex -3.48116e-16 -0.907575 10.4199
      vertex -3.41607e-16 -0.976621 10.215
      vertex -2 -0.976621 10.215
    endloop
  endfacet
  facet normal 0 0.994138 -0.108119
    outer loop
      vertex -2 -0.976621 10.215
      vertex -3.41607e-16 -0.976621 10.215
      vertex -2 -1 10
    endloop
  endfacet
  facet normal 0 0.994138 -0.108119
    outer loop
      vertex -3.41607e-16 -0.976621 10.215
      vertex -3.39402e-16 -1 10
      vertex -2 -1 10
    endloop
  endfacet
  facet normal 0 0.998533 0.0541393
    outer loop
      vertex -2 -1 10
      vertex -3.39402e-16 -1 10
      vertex -2 -0.994138 9.89188
    endloop
  endfacet
  facet normal 0 0.998533 0.0541393
    outer loop
      vertex -3.39402e-16 -1 10
      vertex -3.39955e-16 -0.994138 9.89188
      vertex -2 -0.994138 9.89188
    endloop
  endfacet
  facet normal 0 0.97662 0.214971
    outer loop
      vertex -2 -0.994138 9.89188
      vertex -3.39955e-16 -0.994138 9.89188
      vertex -2 -0.947653 9.6807
    endloop
  endfacet
  facet normal 0 0.97662 0.214971
    outer loop
      vertex -3.39955e-16 -0.994138 9.89188
      vertex -3.44338e-16 -0.947653 9.6807
      vertex -2 -0.947653 9.6807
    endloop
  endfacet
  facet normal 0 0.907575 0.41989
    outer loop
      vertex -2 -0.947653 9.6807
      vertex -3.44338e-16 -0.947653 9.6807
      vertex -2 -0.856857 9.48445
    endloop
  endfacet
  facet normal 0 0.907575 0.41989
    outer loop
      vertex -3.44338e-16 -0.947653 9.6807
      vertex -3.52898e-16 -0.856857 9.48445
      vertex -2 -0.856857 9.48445
    endloop
  endfacet
  facet normal 0 0.796093 0.605174
    outer loop
      vertex -2 -0.856857 9.48445
      vertex -3.52898e-16 -0.856857 9.48445
      vertex -2 -0.725996 9.3123
    endloop
  endfacet
  facet normal 0 0.796093 0.605174
    outer loop
      vertex -3.52898e-16 -0.856857 9.48445
      vertex -3.65235e-16 -0.725996 9.3123
      vertex -2 -0.725996 9.3123
    endloop
  endfacet
  facet normal 0 0.647387 0.762161
    outer loop
      vertex -2 -0.725996 9.3123
      vertex -3.65235e-16 -0.725996 9.3123
      vertex -2 -0.561187 9.17231
    endloop
  endfacet
  facet normal 0 0.647387 0.762161
    outer loop
      vertex -3.65235e-16 -0.725996 9.3123
      vertex -3.80773e-16 -0.561187 9.17231
      vertex -2 -0.561187 9.17231
    endloop
  endfacet
  facet normal 0 0.468409 0.883512
    outer loop
      vertex -2 -0.561187 9.17231
      vertex -3.80773e-16 -0.561187 9.17231
      vertex -2 -0.370138 9.07102
    endloop
  endfacet
  facet normal 0 0.468409 0.883512
    outer loop
      vertex -3.80773e-16 -0.561187 9.17231
      vertex -3.98785e-16 -0.370138 9.07102
      vertex -2 -0.370138 9.07102
    endloop
  endfacet
  facet normal 0 0.267529 0.96355
    outer loop
      vertex -2 -0.370138 9.07102
      vertex -3.98785e-16 -0.370138 9.07102
      vertex -2 -0.161782 9.01317
    endloop
  endfacet
  facet normal -1 0 0
    outer loop
      vertex -2 -1.58826 9.26519
      vertex -2 -0.947653 9.6807
      vertex -2 -0.856857 9.48445
    endloop
  endfacet
  facet normal -1 0 0
    outer loop
      vertex -2 -0.725996 9.3123
      vertex -2 -1.39316 8.94095
      vertex -2 -0.856857 9.48445
    endloop
  endfacet
  facet normal -1 0 0
    outer loop
      vertex -2 -1.39316 8.94095
      vertex -2 -1.4995 9.09778
      vertex -2 -0.856857 9.48445
    endloop
  endfacet
  facet normal -1 0 0
    outer loop
      vertex -2 -0.856857 9.48445
      vertex -2 -1.4995 9.09778
      vertex -2 -1.58826 9.26519
    endloop
  endfacet
  facet normal -1 0 0
    outer loop
      vertex -2 -0.561187 9.17231
      vertex -2 -1.13293 8.66622
      vertex -2 -0.725996 9.3123
    endloop
  endfacet
  facet normal -1 0 0
    outer loop
      vertex -2 -1.13293 8.66622
      vertex -2 -1.27049 8.79653
      vertex -2 -0.725996 9.3123
    endloop
  endfacet
  facet normal -1 0 0
    outer loop
      vertex -2 -0.725996 9.3123
      vertex -2 -1.27049 8.79653
      vertex -2 -1.39316 8.94095
    endloop
  endfacet
  facet normal -1 0 0
    outer loop
      vertex -2 -0.370138 9.07102
      vertex -2 -0.819715 8.45385
      vertex -2 -0.561187 9.17231
    endloop
  endfacet
  facet normal -1 0 0
    outer loop
      vertex -2 -0.819715 8.45385
      vertex -2 -0.982077 8.55154
      vertex -2 -0.561187 9.17231
    endloop
  endfacet
  facet normal -1 0 0
    outer loop
      vertex -2 -0.561187 9.17231
      vertex -2 -0.982077 8.55154
      vertex -2 -1.13293 8.66622
    endloop
  endfacet
  facet normal -1 0 0
    outer loop
      vertex -2 0.468175 11.6862
      vertex -2 0.370138 10.929
      vertex -2 0.161782 10.9868
    endloop
  endfacet
  facet normal -1 0 0
    outer loop
      vertex -2 -0.982077 11.4485
      vertex -2 -0.468408 10.8835
      vertex -2 -0.647386 10.7622
    endloop
  endfacet
  facet normal -1 0 0
    outer loop
      vertex -2 -0.161782 9.01317
      vertex -2 -0.468175 8.31379
      vertex -2 -0.370138 9.07102
    endloop
  endfacet
  facet normal -1 0 0
    outer loop
      vertex -2 -0.468175 8.31379
      vertex -2 -0.647742 8.37429
      vertex -2 -0.370138 9.07102
    endloop
  endfacet
  facet normal -1 0 0
    outer loop
      vertex -2 -0.370138 9.07102
      vertex -2 -0.647742 8.37429
      vertex -2 -0.819715 8.45385
    endloop
  endfacet
  facet normal -1 0 0
    outer loop
      vertex -2 0.0541389 9.00147
      vertex -2 -0.0947431 8.25257
      vertex -2 -0.161782 9.01317
    endloop
  endfacet
  facet normal -1 0 0
    outer loop
      vertex -2 -0.0947431 8.25257
      vertex -2 -0.283118 8.27305
      vertex -2 -0.161782 9.01317
    endloop
  endfacet
  facet normal -1 0 0
    outer loop
      vertex -2 -0.161782 9.01317
      vertex -2 -0.283118 8.27305
      vertex -2 -0.468175 8.31379
    endloop
  endfacet
  facet normal -1 0 0
    outer loop
      vertex -2 1.4995 10.9022
      vertex -2 0.907575 10.4199
      vertex -2 0.796093 10.6052
    endloop
  endfacet
  facet normal -1 0 0
    outer loop
      vertex -2 -0.0541389 10.9985
      vertex -2 0.0947431 11.7474
      vertex -2 0.161782 10.9868
    endloop
  endfacet
  facet normal -1 0 0
    outer loop
      vertex -2 0.0947431 11.7474
      vertex -2 0.283118 11.7269
      vertex -2 0.161782 10.9868
    endloop
  endfacet
  facet normal -1 0 0
    outer loop
      vertex -2 0.161782 10.9868
      vertex -2 0.283118 11.7269
      vertex -2 0.468175 11.6862
    endloop
  endfacet
  facet normal -1 0 0
    outer loop
      vertex -2 -0.267528 10.9635
      vertex -2 -0.283118 11.7269
      vertex -2 -0.0541389 10.9985
    endloop
  endfacet
  facet normal -1 0 0
    outer loop
      vertex -2 -0.283118 11.7269
      vertex -2 -0.0947431 11.7474
      vertex -2 -0.0541389 10.9985
    endloop
  endfacet
  facet normal -1 0 0
    outer loop
      vertex -2 -0.0541389 10.9985
      vertex -2 -0.0947431 11.7474
      vertex -2 0.0947431 11.7474
    endloop
  endfacet
  facet normal -1 0 0
    outer loop
      vertex -2 -1.58826 9.26519
      vertex -2 -1.65839 9.44122
      vertex -2 -0.947653 9.6807
    endloop
  endfacet
  facet normal -1 0 0
    outer loop
      vertex -2 -1.65839 9.44122
      vertex -2 -1.70909 9.6238
      vertex -2 -0.947653 9.6807
    endloop
  endfacet
  facet normal -1 0 0
    outer loop
      vertex -2 -0.947653 9.6807
      vertex -2 -1.70909 9.6238
      vertex -2 -0.994138 9.89188
    endloop
  endfacet
  facet normal -1 0 0
    outer loop
      vertex -2 -1.70909 9.6238
      vertex -2 -1.73974 9.81079
      vertex -2 -0.994138 9.89188
    endloop
  endfacet
  facet normal -1 0 0
    outer loop
      vertex -2 -0.994138 9.89188
      vertex -2 -1.73974 9.81079
      vertex -2 -1 10
    endloop
  endfacet
  facet normal -1 0 0
    outer loop
      vertex -2 0.647386 10.7622
      vertex -2 1.27049 11.2035
      vertex -2 0.796093 10.6052
    endloop
  endfacet
  facet normal -1 0 0
    outer loop
      vertex -2 1.27049 11.2035
      vertex -2 1.39316 11.0591
      vertex -2 0.796093 10.6052
    endloop
  endfacet
  facet normal -1 0 0
    outer loop
      vertex -2 0.796093 10.6052
      vertex -2 1.39316 11.0591
      vertex -2 1.4995 10.9022
    endloop
  endfacet
  facet normal -1 0 0
    outer loop
      vertex -2 -0.982077 11.4485
      vertex -2 -0.819715 11.5461
      vertex -2 -0.468408 10.8835
    endloop
  endfacet
  facet normal -1 0 0
    outer loop
      vertex -2 -0.819715 11.5461
      vertex -2 -0.647742 11.6257
      vertex -2 -0.468408 10.8835
    endloop
  endfacet
  facet normal -1 0 0
    outer loop
      vertex -2 -0.468408 10.8835
      vertex -2 -0.647742 11.6257
      vertex -2 -0.267528 10.9635
    endloop
  endfacet
  facet normal -1 0 0
    outer loop
      vertex -2 -0.647742 11.6257
      vertex -2 -0.468175 11.6862
      vertex -2 -0.267528 10.9635
    endloop
  endfacet
  facet normal -1 0 0
    outer loop
      vertex -2 -0.267528 10.9635
      vertex -2 -0.468175 11.6862
      vertex -2 -0.283118 11.7269
    endloop
  endfacet
  facet normal -1 0 0
    outer loop
      vertex -2 -0.796093 10.6052
      vertex -2 -1.27049 11.2035
      vertex -2 -0.647386 10.7622
    endloop
  endfacet
  facet normal -1 0 0
    outer loop
      vertex -2 -1.27049 11.2035
      vertex -2 -1.13293 11.3338
      vertex -2 -0.647386 10.7622
    endloop
  endfacet
  facet normal -1 0 0
    outer loop
      vertex -2 -0.647386 10.7622
      vertex -2 -1.13293 11.3338
      vertex -2 -0.982077 11.4485
    endloop
  endfacet
  facet normal -1 0 0
    outer loop
      vertex -2 -0.907575 10.4199
      vertex -2 -1.4995 10.9022
      vertex -2 -0.796093 10.6052
    endloop
  endfacet
  facet normal -1 0 0
    outer loop
      vertex -2 -1.4995 10.9022
      vertex -2 -1.39316 11.0591
      vertex -2 -0.796093 10.6052
    endloop
  endfacet
  facet normal -1 0 0
    outer loop
      vertex -2 -0.796093 10.6052
      vertex -2 -1.39316 11.0591
      vertex -2 -1.27049 11.2035
    endloop
  endfacet
  facet normal -1 0 0
    outer loop
      vertex -2 -0.976621 10.215
      vertex -2 -1.65839 10.5588
      vertex -2 -0.907575 10.4199
    endloop
  endfacet
  facet normal -1 0 0
    outer loop
      vertex -2 -1.65839 10.5588
      vertex -2 -1.58826 10.7348
      vertex -2 -0.907575 10.4199
    endloop
  endfacet
  facet normal -1 0 0
    outer loop
      vertex -2 -0.907575 10.4199
      vertex -2 -1.58826 10.7348
      vertex -2 -1.4995 10.9022
    endloop
  endfacet
  facet normal -1 0 0
    outer loop
      vertex -2 -1.73974 9.81079
      vertex -2 -1.75 10
      vertex -2 -1 10
    endloop
  endfacet
  facet normal -1 0 0
    outer loop
      vertex -2 -1.75 10
      vertex -2 -1.73974 10.1892
      vertex -2 -1 10
    endloop
  endfacet
  facet normal -1 0 0
    outer loop
      vertex -2 -1 10
      vertex -2 -1.73974 10.1892
      vertex -2 -0.976621 10.215
    endloop
  endfacet
  facet normal -1 0 0
    outer loop
      vertex -2 -1.73974 10.1892
      vertex -2 -1.70909 10.3762
      vertex -2 -0.976621 10.215
    endloop
  endfacet
  facet normal -1 0 0
    outer loop
      vertex -2 -0.976621 10.215
      vertex -2 -1.70909 10.3762
      vertex -2 -1.65839 10.5588
    endloop
  endfacet
  facet normal -1 0 0
    outer loop
      vertex -2 0.267528 9.03645
      vertex -2 0.283118 8.27305
      vertex -2 0.0541389 9.00147
    endloop
  endfacet
  facet normal -1 0 0
    outer loop
      vertex -2 0.283118 8.27305
      vertex -2 0.0947431 8.25257
      vertex -2 0.0541389 9.00147
    endloop
  endfacet
  facet normal -1 0 0
    outer loop
      vertex -2 0.0541389 9.00147
      vertex -2 0.0947431 8.25257
      vertex -2 -0.0947431 8.25257
    endloop
  endfacet
  facet normal -1 0 0
    outer loop
      vertex -2 0.796093 9.39483
      vertex -2 0.907575 9.58011
      vertex -2 1.4995 9.09778
    endloop
  endfacet
  facet normal -1 0 0
    outer loop
      vertex -2 0.976621 9.78503
      vertex -2 1.65839 9.44122
      vertex -2 0.907575 9.58011
    endloop
  endfacet
  facet normal -1 0 0
    outer loop
      vertex -2 1.65839 9.44122
      vertex -2 1.58826 9.26519
      vertex -2 0.907575 9.58011
    endloop
  endfacet
  facet normal -1 0 0
    outer loop
      vertex -2 0.907575 9.58011
      vertex -2 1.58826 9.26519
      vertex -2 1.4995 9.09778
    endloop
  endfacet
  facet normal -1 0 0
    outer loop
      vertex -2 1.4995 10.9022
      vertex -2 1.58826 10.7348
      vertex -2 0.907575 10.4199
    endloop
  endfacet
  facet normal -1 0 0
    outer loop
      vertex -2 1.58826 10.7348
      vertex -2 1.65839 10.5588
      vertex -2 0.907575 10.4199
    endloop
  endfacet
  facet normal -1 0 0
    outer loop
      vertex -2 0.907575 10.4199
      vertex -2 1.65839 10.5588
      vertex -2 0.976621 10.215
    endloop
  endfacet
  facet normal -1 0 0
    outer loop
      vertex -2 1.65839 10.5588
      vertex -2 1.70909 10.3762
      vertex -2 0.976621 10.215
    endloop
  endfacet
  facet normal -1 0 0
    outer loop
      vertex -2 1.70909 10.3762
      vertex -2 1.73974 10.1892
      vertex -2 0.976621 10.215
    endloop
  endfacet
  facet normal -1 0 0
    outer loop
      vertex -2 0.976621 10.215
      vertex -2 1.73974 10.1892
      vertex -2 1 10
    endloop
  endfacet
  facet normal -1 0 0
    outer loop
      vertex -2 0.468175 11.6862
      vertex -2 0.647742 11.6257
      vertex -2 0.370138 10.929
    endloop
  endfacet
  facet normal -1 0 0
    outer loop
      vertex -2 0.647742 11.6257
      vertex -2 0.819715 11.5461
      vertex -2 0.370138 10.929
    endloop
  endfacet
  facet normal -1 0 0
    outer loop
      vertex -2 0.370138 10.929
      vertex -2 0.819715 11.5461
      vertex -2 0.561187 10.8277
    endloop
  endfacet
  facet normal -1 0 0
    outer loop
      vertex -2 0.819715 11.5461
      vertex -2 0.982077 11.4485
      vertex -2 0.561187 10.8277
    endloop
  endfacet
  facet normal -1 0 0
    outer loop
      vertex -2 0.561187 10.8277
      vertex -2 0.982077 11.4485
      vertex -2 0.647386 10.7622
    endloop
  endfacet
  facet normal -1 0 0
    outer loop
      vertex -2 0.982077 11.4485
      vertex -2 1.13293 11.3338
      vertex -2 0.647386 10.7622
    endloop
  endfacet
  facet normal -1 0 0
    outer loop
      vertex -2 0.647386 10.7622
      vertex -2 1.13293 11.3338
      vertex -2 1.27049 11.2035
    endloop
  endfacet
  facet normal -1 0 0
    outer loop
      vertex -2 1.73974 10.1892
      vertex -2 1.75 10
      vertex -2 1 10
    endloop
  endfacet
  facet normal -1 0 0
    outer loop
      vertex -2 1.75 10
      vertex -2 1.73974 9.81079
      vertex -2 1 10
    endloop
  endfacet
  facet normal -1 0 0
    outer loop
      vertex -2 1 10
      vertex -2 1.73974 9.81079
      vertex -2 0.976621 9.78503
    endloop
  endfacet
  facet normal -1 0 0
    outer loop
      vertex -2 1.73974 9.81079
      vertex -2 1.70909 9.6238
      vertex -2 0.976621 9.78503
    endloop
  endfacet
  facet normal -1 0 0
    outer loop
      vertex -2 0.976621 9.78503
      vertex -2 1.70909 9.6238
      vertex -2 1.65839 9.44122
    endloop
  endfacet
  facet normal -1 0 0
    outer loop
      vertex -2 0.468408 9.11649
      vertex -2 0.647742 8.37429
      vertex -2 0.267528 9.03645
    endloop
  endfacet
  facet normal -1 0 0
    outer loop
      vertex -2 0.647742 8.37429
      vertex -2 0.468175 8.31379
      vertex -2 0.267528 9.03645
    endloop
  endfacet
  facet normal -1 0 0
    outer loop
      vertex -2 0.267528 9.03645
      vertex -2 0.468175 8.31379
      vertex -2 0.283118 8.27305
    endloop
  endfacet
  facet normal -1 0 0
    outer loop
      vertex -2 1.4995 9.09778
      vertex -2 1.39316 8.94095
      vertex -2 0.796093 9.39483
    endloop
  endfacet
  facet normal -1 0 0
    outer loop
      vertex -2 1.39316 8.94095
      vertex -2 1.27049 8.79653
      vertex -2 0.796093 9.39483
    endloop
  endfacet
  facet normal -1 0 0
    outer loop
      vertex -2 0.796093 9.39483
      vertex -2 1.27049 8.79653
      vertex -2 0.647386 9.23784
    endloop
  endfacet
  facet normal -1 0 0
    outer loop
      vertex -2 1.27049 8.79653
      vertex -2 1.13293 8.66622
      vertex -2 0.647386 9.23784
    endloop
  endfacet
  facet normal -1 0 0
    outer loop
      vertex -2 0.647386 9.23784
      vertex -2 1.13293 8.66622
      vertex -2 0.561187 9.17231
    endloop
  endfacet
  facet normal -1 0 0
    outer loop
      vertex -2 1.13293 8.66622
      vertex -2 0.982077 8.55154
      vertex -2 0.561187 9.17231
    endloop
  endfacet
  facet normal -1 0 0
    outer loop
      vertex -2 0.561187 9.17231
      vertex -2 0.982077 8.55154
      vertex -2 0.468408 9.11649
    endloop
  endfacet
  facet normal -1 0 0
    outer loop
      vertex -2 0.982077 8.55154
      vertex -2 0.819715 8.45385
      vertex -2 0.468408 9.11649
    endloop
  endfacet
  facet normal -1 0 0
    outer loop
      vertex -2 0.468408 9.11649
      vertex -2 0.819715 8.45385
      vertex -2 0.647742 8.37429
    endloop
  endfacet
  facet normal 0 0.998533 -0.0541392
    outer loop
      vertex -2 -1.75 10
      vertex -3 -1.75 10
      vertex -2 -1.73974 10.1892
    endloop
  endfacet
  facet normal 0 0.998533 -0.0541392
    outer loop
      vertex -3 -1.75 10
      vertex -3 -1.73974 10.1892
      vertex -2 -1.73974 10.1892
    endloop
  endfacet
  facet normal 0 0.986827 -0.161782
    outer loop
      vertex -2 -1.73974 10.1892
      vertex -3 -1.73974 10.1892
      vertex -2 -1.70909 10.3762
    endloop
  endfacet
  facet normal 0 0.986827 -0.161782
    outer loop
      vertex -3 -1.73974 10.1892
      vertex -3 -1.70909 10.3762
      vertex -2 -1.70909 10.3762
    endloop
  endfacet
  facet normal 0 0.96355 -0.267529
    outer loop
      vertex -2 -1.70909 10.3762
      vertex -3 -1.70909 10.3762
      vertex -2 -1.65839 10.5588
    endloop
  endfacet
  facet normal 0 0.96355 -0.267529
    outer loop
      vertex -3 -1.70909 10.3762
      vertex -3 -1.65839 10.5588
      vertex -2 -1.65839 10.5588
    endloop
  endfacet
  facet normal 0 0.928977 -0.370138
    outer loop
      vertex -2 -1.65839 10.5588
      vertex -3 -1.65839 10.5588
      vertex -2 -1.58826 10.7348
    endloop
  endfacet
  facet normal 0 0.928977 -0.370138
    outer loop
      vertex -3 -1.65839 10.5588
      vertex -3 -1.58826 10.7348
      vertex -2 -1.58826 10.7348
    endloop
  endfacet
  facet normal 0 0.883512 -0.468408
    outer loop
      vertex -2 -1.58826 10.7348
      vertex -3 -1.58826 10.7348
      vertex -2 -1.4995 10.9022
    endloop
  endfacet
  facet normal 0 0.883512 -0.468408
    outer loop
      vertex -3 -1.58826 10.7348
      vertex -3 -1.4995 10.9022
      vertex -2 -1.4995 10.9022
    endloop
  endfacet
  facet normal 0 0.827689 -0.561187
    outer loop
      vertex -2 -1.4995 10.9022
      vertex -3 -1.4995 10.9022
      vertex -2 -1.39316 11.0591
    endloop
  endfacet
  facet normal 0 0.827689 -0.561187
    outer loop
      vertex -3 -1.4995 10.9022
      vertex -3 -1.39316 11.0591
      vertex -2 -1.39316 11.0591
    endloop
  endfacet
  facet normal 0 0.762162 -0.647386
    outer loop
      vertex -2 -1.39316 11.0591
      vertex -3 -1.39316 11.0591
      vertex -2 -1.27049 11.2035
    endloop
  endfacet
  facet normal 0 0.762162 -0.647386
    outer loop
      vertex -3 -1.39316 11.0591
      vertex -3 -1.27049 11.2035
      vertex -2 -1.27049 11.2035
    endloop
  endfacet
  facet normal 0 0.687697 -0.725997
    outer loop
      vertex -2 -1.27049 11.2035
      vertex -3 -1.27049 11.2035
      vertex -2 -1.13293 11.3338
    endloop
  endfacet
  facet normal 0 0.687697 -0.725997
    outer loop
      vertex -3 -1.27049 11.2035
      vertex -3 -1.13293 11.3338
      vertex -2 -1.13293 11.3338
    endloop
  endfacet
  facet normal 0 0.605176 -0.796091
    outer loop
      vertex -2 -1.13293 11.3338
      vertex -3 -1.13293 11.3338
      vertex -2 -0.982077 11.4485
    endloop
  endfacet
  facet normal 0 0.605176 -0.796091
    outer loop
      vertex -3 -1.13293 11.3338
      vertex -3 -0.982077 11.4485
      vertex -2 -0.982077 11.4485
    endloop
  endfacet
  facet normal 0 0.515553 -0.856858
    outer loop
      vertex -2 -0.982077 11.4485
      vertex -3 -0.982077 11.4485
      vertex -2 -0.819715 11.5461
    endloop
  endfacet
  facet normal 0 0.515553 -0.856858
    outer loop
      vertex -3 -0.982077 11.4485
      vertex -3 -0.819715 11.5461
      vertex -2 -0.819715 11.5461
    endloop
  endfacet
  facet normal 0 0.419888 -0.907576
    outer loop
      vertex -2 -0.819715 11.5461
      vertex -3 -0.819715 11.5461
      vertex -2 -0.647742 11.6257
    endloop
  endfacet
  facet normal 0 0.419888 -0.907576
    outer loop
      vertex -3 -0.819715 11.5461
      vertex -3 -0.647742 11.6257
      vertex -2 -0.647742 11.6257
    endloop
  endfacet
  facet normal 0 0.319302 -0.947653
    outer loop
      vertex -2 -0.647742 11.6257
      vertex -3 -0.647742 11.6257
      vertex -2 -0.468175 11.6862
    endloop
  endfacet
  facet normal 0 0.319302 -0.947653
    outer loop
      vertex -3 -0.647742 11.6257
      vertex -3 -0.468175 11.6862
      vertex -2 -0.468175 11.6862
    endloop
  endfacet
  facet normal 0 0.214972 -0.97662
    outer loop
      vertex -2 -0.468175 11.6862
      vertex -3 -0.468175 11.6862
      vertex -2 -0.283118 11.7269
    endloop
  endfacet
  facet normal 0 0.214972 -0.97662
    outer loop
      vertex -3 -0.468175 11.6862
      vertex -3 -0.283118 11.7269
      vertex -2 -0.283118 11.7269
    endloop
  endfacet
  facet normal 0 0.10812 -0.994138
    outer loop
      vertex -2 -0.283118 11.7269
      vertex -3 -0.283118 11.7269
      vertex -2 -0.0947431 11.7474
    endloop
  endfacet
  facet normal 0 0.10812 -0.994138
    outer loop
      vertex -3 -0.283118 11.7269
      vertex -3 -0.0947431 11.7474
      vertex -2 -0.0947431 11.7474
    endloop
  endfacet
  facet normal 0 0 -1
    outer loop
      vertex -2 -0.0947431 11.7474
      vertex -3 -0.0947431 11.7474
      vertex -2 0.0947431 11.7474
    endloop
  endfacet
  facet normal 0 0 -1
    outer loop
      vertex -3 -0.0947431 11.7474
      vertex -3 0.0947431 11.7474
      vertex -2 0.0947431 11.7474
    endloop
  endfacet
  facet normal 0 -0.10812 -0.994138
    outer loop
      vertex -2 0.0947431 11.7474
      vertex -3 0.0947431 11.7474
      vertex -2 0.283118 11.7269
    endloop
  endfacet
  facet normal 0 -0.10812 -0.994138
    outer loop
      vertex -3 0.0947431 11.7474
      vertex -3 0.283118 11.7269
      vertex -2 0.283118 11.7269
    endloop
  endfacet
  facet normal 0 -0.214972 -0.97662
    outer loop
      vertex -2 0.283118 11.7269
      vertex -3 0.283118 11.7269
      vertex -2 0.468175 11.6862
    endloop
  endfacet
  facet normal 0 -0.214972 -0.97662
    outer loop
      vertex -3 0.283118 11.7269
      vertex -3 0.468175 11.6862
      vertex -2 0.468175 11.6862
    endloop
  endfacet
  facet normal 0 -0.319302 -0.947653
    outer loop
      vertex -2 0.468175 11.6862
      vertex -3 0.468175 11.6862
      vertex -2 0.647742 11.6257
    endloop
  endfacet
  facet normal 0 -0.319302 -0.947653
    outer loop
      vertex -3 0.468175 11.6862
      vertex -3 0.647742 11.6257
      vertex -2 0.647742 11.6257
    endloop
  endfacet
  facet normal 0 -0.419888 -0.907576
    outer loop
      vertex -2 0.647742 11.6257
      vertex -3 0.647742 11.6257
      vertex -2 0.819715 11.5461
    endloop
  endfacet
  facet normal 0 -0.419888 -0.907576
    outer loop
      vertex -3 0.647742 11.6257
      vertex -3 0.819715 11.5461
      vertex -2 0.819715 11.5461
    endloop
  endfacet
  facet normal 0 -0.515553 -0.856858
    outer loop
      vertex -2 0.819715 11.5461
      vertex -3 0.819715 11.5461
      vertex -2 0.982077 11.4485
    endloop
  endfacet
  facet normal 0 -0.515553 -0.856858
    outer loop
      vertex -3 0.819715 11.5461
      vertex -3 0.982077 11.4485
      vertex -2 0.982077 11.4485
    endloop
  endfacet
  facet normal 0 -0.605176 -0.796091
    outer loop
      vertex -2 0.982077 11.4485
      vertex -3 0.982077 11.4485
      vertex -2 1.13293 11.3338
    endloop
  endfacet
  facet normal 0 -0.605176 -0.796091
    outer loop
      vertex -3 0.982077 11.4485
      vertex -3 1.13293 11.3338
      vertex -2 1.13293 11.3338
    endloop
  endfacet
  facet normal 0 -0.687697 -0.725997
    outer loop
      vertex -2 1.13293 11.3338
      vertex -3 1.13293 11.3338
      vertex -2 1.27049 11.2035
    endloop
  endfacet
  facet normal 0 -0.687697 -0.725997
    outer loop
      vertex -3 1.13293 11.3338
      vertex -3 1.27049 11.2035
      vertex -2 1.27049 11.2035
    endloop
  endfacet
  facet normal 0 -0.762162 -0.647386
    outer loop
      vertex -2 1.27049 11.2035
      vertex -3 1.27049 11.2035
      vertex -2 1.39316 11.0591
    endloop
  endfacet
  facet normal 0 -0.762162 -0.647386
    outer loop
      vertex -3 1.27049 11.2035
      vertex -3 1.39316 11.0591
      vertex -2 1.39316 11.0591
    endloop
  endfacet
  facet normal 0 -0.827689 -0.561187
    outer loop
      vertex -2 1.39316 11.0591
      vertex -3 1.39316 11.0591
      vertex -2 1.4995 10.9022
    endloop
  endfacet
  facet normal 0 -0.827689 -0.561187
    outer loop
      vertex -3 1.39316 11.0591
      vertex -3 1.4995 10.9022
      vertex -2 1.4995 10.9022
    endloop
  endfacet
  facet normal 0 -0.883512 -0.468408
    outer loop
      vertex -2 1.4995 10.9022
      vertex -3 1.4995 10.9022
      vertex -2 1.58826 10.7348
    endloop
  endfacet
  facet normal 0 -0.883512 -0.468408
    outer loop
      vertex -3 1.4995 10.9022
      vertex -3 1.58826 10.7348
      vertex -2 1.58826 10.7348
    endloop
  endfacet
  facet normal 0 -0.928977 -0.370138
    outer loop
      vertex -2 1.58826 10.7348
      vertex -3 1.58826 10.7348
      vertex -2 1.65839 10.5588
    endloop
  endfacet
  facet normal 0 -0.928977 -0.370138
    outer loop
      vertex -3 1.58826 10.7348
      vertex -3 1.65839 10.5588
      vertex -2 1.65839 10.5588
    endloop
  endfacet
  facet normal 0 -0.96355 -0.267529
    outer loop
      vertex -2 1.65839 10.5588
      vertex -3 1.65839 10.5588
      vertex -2 1.70909 10.3762
    endloop
  endfacet
  facet normal 0 -0.96355 -0.267529
    outer loop
      vertex -3 1.65839 10.5588
      vertex -3 1.70909 10.3762
      vertex -2 1.70909 10.3762
    endloop
  endfacet
  facet normal 0 -0.986827 -0.161782
    outer loop
      vertex -2 1.70909 10.3762
      vertex -3 1.70909 10.3762
      vertex -2 1.73974 10.1892
    endloop
  endfacet
  facet normal 0 -0.986827 -0.161782
    outer loop
      vertex -3 1.70909 10.3762
      vertex -3 1.73974 10.1892
      vertex -2 1.73974 10.1892
    endloop
  endfacet
  facet normal 0 -0.998533 -0.0541392
    outer loop
      vertex -2 1.73974 10.1892
      vertex -3 1.73974 10.1892
      vertex -2 1.75 10
    endloop
  endfacet
  facet normal 0 -0.998533 -0.0541392
    outer loop
      vertex -3 1.73974 10.1892
      vertex -3 1.75 10
      vertex -2 1.75 10
    endloop
  endfacet
  facet normal 0 -0.998533 0.0541392
    outer loop
      vertex -2 1.75 10
      vertex -3 1.75 10
      vertex -2 1.73974 9.81079
    endloop
  endfacet
  facet normal 0 -0.998533 0.0541392
    outer loop
      vertex -3 1.75 10
      vertex -3 1.73974 9.81079
      vertex -2 1.73974 9.81079
    endloop
  endfacet
  facet normal 0 -0.986827 0.161782
    outer loop
      vertex -2 1.73974 9.81079
      vertex -3 1.73974 9.81079
      vertex -2 1.70909 9.6238
    endloop
  endfacet
  facet normal 0 -0.986827 0.161782
    outer loop
      vertex -3 1.73974 9.81079
      vertex -3 1.70909 9.6238
      vertex -2 1.70909 9.6238
    endloop
  endfacet
  facet normal 0 -0.96355 0.267529
    outer loop
      vertex -2 1.70909 9.6238
      vertex -3 1.70909 9.6238
      vertex -2 1.65839 9.44122
    endloop
  endfacet
  facet normal 0 -0.96355 0.267529
    outer loop
      vertex -3 1.70909 9.6238
      vertex -3 1.65839 9.44122
      vertex -2 1.65839 9.44122
    endloop
  endfacet
  facet normal 0 -0.928977 0.370138
    outer loop
      vertex -2 1.65839 9.44122
      vertex -3 1.65839 9.44122
      vertex -2 1.58826 9.26519
    endloop
  endfacet
  facet normal 0 -0.928977 0.370138
    outer loop
      vertex -3 1.65839 9.44122
      vertex -3 1.58826 9.26519
      vertex -2 1.58826 9.26519
    endloop
  endfacet
  facet normal 0 -0.883511 0.46841
    outer loop
      vertex -2 1.58826 9.26519
      vertex -3 1.58826 9.26519
      vertex -2 1.4995 9.09778
    endloop
  endfacet
  facet normal 0 -0.883511 0.46841
    outer loop
      vertex -3 1.58826 9.26519
      vertex -3 1.4995 9.09778
      vertex -2 1.4995 9.09778
    endloop
  endfacet
  facet normal 0 -0.827689 0.561187
    outer loop
      vertex -2 1.4995 9.09778
      vertex -3 1.4995 9.09778
      vertex -2 1.39316 8.94095
    endloop
  endfacet
  facet normal 0 -0.827689 0.561187
    outer loop
      vertex -3 1.4995 9.09778
      vertex -3 1.39316 8.94095
      vertex -2 1.39316 8.94095
    endloop
  endfacet
  facet normal 0 -0.762162 0.647386
    outer loop
      vertex -2 1.39316 8.94095
      vertex -3 1.39316 8.94095
      vertex -2 1.27049 8.79653
    endloop
  endfacet
  facet normal 0 -0.762162 0.647386
    outer loop
      vertex -3 1.39316 8.94095
      vertex -3 1.27049 8.79653
      vertex -2 1.27049 8.79653
    endloop
  endfacet
  facet normal 0 -0.6877 0.725995
    outer loop
      vertex -2 1.27049 8.79653
      vertex -3 1.27049 8.79653
      vertex -2 1.13293 8.66622
    endloop
  endfacet
  facet normal 0 -0.6877 0.725995
    outer loop
      vertex -3 1.27049 8.79653
      vertex -3 1.13293 8.66622
      vertex -2 1.13293 8.66622
    endloop
  endfacet
  facet normal 0 -0.605173 0.796094
    outer loop
      vertex -2 1.13293 8.66622
      vertex -3 1.13293 8.66622
      vertex -2 0.982077 8.55154
    endloop
  endfacet
  facet normal 0 -0.605173 0.796094
    outer loop
      vertex -3 1.13293 8.66622
      vertex -3 0.982077 8.55154
      vertex -2 0.982077 8.55154
    endloop
  endfacet
  facet normal 0 -0.515553 0.856858
    outer loop
      vertex -2 0.982077 8.55154
      vertex -3 0.982077 8.55154
      vertex -2 0.819715 8.45385
    endloop
  endfacet
  facet normal 0 -0.515553 0.856858
    outer loop
      vertex -3 0.982077 8.55154
      vertex -3 0.819715 8.45385
      vertex -2 0.819715 8.45385
    endloop
  endfacet
  facet normal 0 -0.419892 0.907574
    outer loop
      vertex -2 0.819715 8.45385
      vertex -3 0.819715 8.45385
      vertex -2 0.647742 8.37429
    endloop
  endfacet
  facet normal 0 -0.419892 0.907574
    outer loop
      vertex -3 0.819715 8.45385
      vertex -3 0.647742 8.37429
      vertex -2 0.647742 8.37429
    endloop
  endfacet
  facet normal 0 -0.319302 0.947653
    outer loop
      vertex -2 0.647742 8.37429
      vertex -3 0.647742 8.37429
      vertex -2 0.468175 8.31379
    endloop
  endfacet
  facet normal 0 -0.319302 0.947653
    outer loop
      vertex -3 0.647742 8.37429
      vertex -3 0.468175 8.31379
      vertex -2 0.468175 8.31379
    endloop
  endfacet
  facet normal 0 -0.214967 0.976621
    outer loop
      vertex -2 0.468175 8.31379
      vertex -3 0.468175 8.31379
      vertex -2 0.283118 8.27305
    endloop
  endfacet
  facet normal 0 -0.214967 0.976621
    outer loop
      vertex -3 0.468175 8.31379
      vertex -3 0.283118 8.27305
      vertex -2 0.283118 8.27305
    endloop
  endfacet
  facet normal 0 -0.10812 0.994138
    outer loop
      vertex -2 0.283118 8.27305
      vertex -3 0.283118 8.27305
      vertex -2 0.0947431 8.25257
    endloop
  endfacet
  facet normal 0 -0.10812 0.994138
    outer loop
      vertex -3 0.283118 8.27305
      vertex -3 0.0947431 8.25257
      vertex -2 0.0947431 8.25257
    endloop
  endfacet
  facet normal 0 0 1
    outer loop
      vertex -2 0.0947431 8.25257
      vertex -3 0.0947431 8.25257
      vertex -2 -0.0947431 8.25257
    endloop
  endfacet
  facet normal 0 0 1
    outer loop
      vertex -3 0.0947431 8.25257
      vertex -3 -0.0947431 8.25257
      vertex -2 -0.0947431 8.25257
    endloop
  endfacet
  facet normal 0 0.10812 0.994138
    outer loop
      vertex -2 -0.0947431 8.25257
      vertex -3 -0.0947431 8.25257
      vertex -2 -0.283118 8.27305
    endloop
  endfacet
  facet normal 0 0.10812 0.994138
    outer loop
      vertex -3 -0.0947431 8.25257
      vertex -3 -0.283118 8.27305
      vertex -2 -0.283118 8.27305
    endloop
  endfacet
  facet normal 0 0.214967 0.976621
    outer loop
      vertex -2 -0.283118 8.27305
      vertex -3 -0.283118 8.27305
      vertex -2 -0.468175 8.31379
    endloop
  endfacet
  facet normal 0 0.214967 0.976621
    outer loop
      vertex -3 -0.283118 8.27305
      vertex -3 -0.468175 8.31379
      vertex -2 -0.468175 8.31379
    endloop
  endfacet
  facet normal 0 0.319302 0.947653
    outer loop
      vertex -2 -0.468175 8.31379
      vertex -3 -0.468175 8.31379
      vertex -2 -0.647742 8.37429
    endloop
  endfacet
  facet normal 0 0.319302 0.947653
    outer loop
      vertex -3 -0.468175 8.31379
      vertex -3 -0.647742 8.37429
      vertex -2 -0.647742 8.37429
    endloop
  endfacet
  facet normal 0 0.419892 0.907574
    outer loop
      vertex -2 -0.647742 8.37429
      vertex -3 -0.647742 8.37429
      vertex -2 -0.819715 8.45385
    endloop
  endfacet
  facet normal 0 0.419892 0.907574
    outer loop
      vertex -3 -0.647742 8.37429
      vertex -3 -0.819715 8.45385
      vertex -2 -0.819715 8.45385
    endloop
  endfacet
  facet normal 0 0.515553 0.856858
    outer loop
      vertex -2 -0.819715 8.45385
      vertex -3 -0.819715 8.45385
      vertex -2 -0.982077 8.55154
    endloop
  endfacet
  facet normal 0 0.515553 0.856858
    outer loop
      vertex -3 -0.819715 8.45385
      vertex -3 -0.982077 8.55154
      vertex -2 -0.982077 8.55154
    endloop
  endfacet
  facet normal 0 0.605173 0.796094
    outer loop
      vertex -2 -0.982077 8.55154
      vertex -3 -0.982077 8.55154
      vertex -2 -1.13293 8.66622
    endloop
  endfacet
  facet normal 0 0.605173 0.796094
    outer loop
      vertex -3 -0.982077 8.55154
      vertex -3 -1.13293 8.66622
      vertex -2 -1.13293 8.66622
    endloop
  endfacet
  facet normal 0 0.6877 0.725995
    outer loop
      vertex -2 -1.13293 8.66622
      vertex -3 -1.13293 8.66622
      vertex -2 -1.27049 8.79653
    endloop
  endfacet
  facet normal 0 0.6877 0.725995
    outer loop
      vertex -3 -1.13293 8.66622
      vertex -3 -1.27049 8.79653
      vertex -2 -1.27049 8.79653
    endloop
  endfacet
  facet normal 0 0.762162 0.647386
    outer loop
      vertex -2 -1.27049 8.79653
      vertex -3 -1.27049 8.79653
      vertex -2 -1.39316 8.94095
    endloop
  endfacet
  facet normal 0 0.762162 0.647386
    outer loop
      vertex -3 -1.27049 8.79653
      vertex -3 -1.39316 8.94095
      vertex -2 -1.39316 8.94095
    endloop
  endfacet
  facet normal 0 0.827689 0.561187
    outer loop
      vertex -2 -1.39316 8.94095
      vertex -3 -1.39316 8.94095
      vertex -2 -1.4995 9.09778
    endloop
  endfacet
  facet normal 0 0.827689 0.561187
    outer loop
      vertex -3 -1.39316 8.94095
      vertex -3 -1.4995 9.09778
      vertex -2 -1.4995 9.09778
    endloop
  endfacet
  facet normal 0 0.883511 0.46841
    outer loop
      vertex -2 -1.4995 9.09778
      vertex -3 -1.4995 9.09778
      vertex -2 -1.58826 9.26519
    endloop
  endfacet
  facet normal 0 0.883511 0.46841
    outer loop
      vertex -3 -1.4995 9.09778
      vertex -3 -1.58826 9.26519
      vertex -2 -1.58826 9.26519
    endloop
  endfacet
  facet normal 0 0.928977 0.370138
    outer loop
      vertex -2 -1.58826 9.26519
      vertex -3 -1.58826 9.26519
      vertex -2 -1.65839 9.44122
    endloop
  endfacet
  facet normal 0 0.928977 0.370138
    outer loop
      vertex -3 -1.58826 9.26519
      vertex -3 -1.65839 9.44122
      vertex -2 -1.65839 9.44122
    endloop
  endfacet
  facet normal 0 0.96355 0.267529
    outer loop
      vertex -2 -1.65839 9.44122
      vertex -3 -1.65839 9.44122
      vertex -2 -1.70909 9.6238
    endloop
  endfacet
  facet normal 0 0.96355 0.267529
    outer loop
      vertex -3 -1.65839 9.44122
      vertex -3 -1.70909 9.6238
      vertex -2 -1.70909 9.6238
    endloop
  endfacet
  facet normal 0 0.986827 0.161782
    outer loop
      vertex -2 -1.70909 9.6238
      vertex -3 -1.70909 9.6238
      vertex -2 -1.73974 9.81079
    endloop
  endfacet
  facet normal 0 0.986827 0.161782
    outer loop
      vertex -3 -1.70909 9.6238
      vertex -3 -1.73974 9.81079
      vertex -2 -1.73974 9.81079
    endloop
  endfacet
  facet normal 0 0.998533 0.0541392
    outer loop
      vertex -2 -1.73974 9.81079
      vertex -3 -1.73974 9.81079
      vertex -2 -1.75 10
    endloop
  endfacet
  facet normal 0 0.998533 0.0541392
    outer loop
      vertex -3 -1.73974 9.81079
      vertex -3 -1.75 10
      vertex -2 -1.75 10
    endloop
  endfacet
  facet normal 1 1.54569e-16 1.13721e-16
    outer loop
      vertex -3.98785e-16 -0.370138 9.07102
      vertex -3.80773e-16 -0.561187 9.17231
      vertex 4.33681e-16 -4.6 7.5
    endloop
  endfacet
  facet normal 1 1.66467e-16 8.49868e-17
    outer loop
      vertex -3.80773e-16 -0.561187 9.17231
      vertex -3.65235e-16 -0.725996 9.3123
      vertex 4.33681e-16 -4.6 7.5
    endloop
  endfacet
  facet normal 1 1.76858e-16 6.27753e-17
    outer loop
      vertex 4.33681e-16 -4.6 7.5
      vertex -3.65235e-16 -0.725996 9.3123
      vertex -3.52898e-16 -0.856857 9.48445
    endloop
  endfacet
  facet normal 1 1.92993e-16 -3.32607e-17
    outer loop
      vertex -3.41607e-16 -0.976621 10.215
      vertex -3.48116e-16 -0.907575 10.4199
      vertex 4.33681e-16 -4.6 12.5
    endloop
  endfacet
  facet normal 1 1.4724e-16 -1.32922e-16
    outer loop
      vertex -3.8952e-16 -0.468408 10.8835
      vertex -4.08459e-16 -0.267528 10.9635
      vertex 4.33681e-16 -4.6 12.5
    endloop
  endfacet
  facet normal 1 1.25924e-16 -1.93029e-16
    outer loop
      vertex -4.08459e-16 -0.267528 10.9635
      vertex -4.28577e-16 -0.0541389 10.9985
      vertex 4.33681e-16 -4.6 12.5
    endloop
  endfacet
  facet normal 1 9.42784e-17 -2.88838e-16
    outer loop
      vertex 4.33681e-16 -4.6 12.5
      vertex -4.28577e-16 -0.0541389 10.9985
      vertex -4.33681e-16 4.6 12.5
    endloop
  endfacet
  facet normal 1 8.08715e-17 -2.4728e-16
    outer loop
      vertex -4.28577e-16 -0.0541389 10.9985
      vertex -4.48933e-16 0.161782 10.9868
      vertex -4.33681e-16 4.6 12.5
    endloop
  endfacet
  facet normal 1 5.04199e-17 -1.57964e-16
    outer loop
      vertex -4.33681e-16 4.6 12.5
      vertex -4.48933e-16 0.161782 10.9868
      vertex -4.68577e-16 0.370138 10.929
    endloop
  endfacet
  facet normal 1 1.81997e-16 -5.27787e-17
    outer loop
      vertex -3.48116e-16 -0.907575 10.4199
      vertex -3.58626e-16 -0.796093 10.6052
      vertex 4.33681e-16 -4.6 12.5
    endloop
  endfacet
  facet normal 1 1.71738e-16 -7.33738e-17
    outer loop
      vertex -3.58626e-16 -0.796093 10.6052
      vertex -3.72646e-16 -0.647386 10.7622
      vertex 4.33681e-16 -4.6 12.5
    endloop
  endfacet
  facet normal 1 1.60837e-16 -9.81675e-17
    outer loop
      vertex 4.33681e-16 -4.6 12.5
      vertex -3.72646e-16 -0.647386 10.7622
      vertex -3.8952e-16 -0.468408 10.8835
    endloop
  endfacet
  facet normal 1 3.39877e-17 -1.13722e-16
    outer loop
      vertex -4.68577e-16 0.370138 10.929
      vertex -4.86589e-16 0.561187 10.8277
      vertex -4.33681e-16 4.6 12.5
    endloop
  endfacet
  facet normal 1 2.47637e-17 -9.14445e-17
    outer loop
      vertex -4.86589e-16 0.561187 10.8277
      vertex -4.94715e-16 0.647386 10.7622
      vertex -4.33681e-16 4.6 12.5
    endloop
  endfacet
  facet normal 1 1.68186e-17 -7.33739e-17
    outer loop
      vertex -4.33681e-16 4.6 12.5
      vertex -4.94715e-16 0.647386 10.7622
      vertex -5.08735e-16 0.796093 10.6052
    endloop
  endfacet
  facet normal 1 6.55957e-18 -5.27787e-17
    outer loop
      vertex -5.08735e-16 0.796093 10.6052
      vertex -5.19246e-16 0.907575 10.4199
      vertex -4.33681e-16 4.6 12.5
    endloop
  endfacet
  facet normal 1 -4.43587e-18 -3.32606e-17
    outer loop
      vertex -5.19246e-16 0.907575 10.4199
      vertex -5.25755e-16 0.976621 10.215
      vertex -4.33681e-16 4.6 12.5
    endloop
  endfacet
  facet normal 1 -2.54112e-17 0
    outer loop
      vertex -4.33681e-16 4.6 12.5
      vertex -5.25755e-16 0.976621 10.215
      vertex -4.33681e-16 4.6 7.5
    endloop
  endfacet
  facet normal 1 -3.603e-17 -1.41719e-17
    outer loop
      vertex -5.25755e-16 0.976621 10.215
      vertex -5.27959e-16 1 10
      vertex -4.33681e-16 4.6 7.5
    endloop
  endfacet
  facet normal 1 -1.77291e-17 1.21815e-17
    outer loop
      vertex -4.33681e-16 4.6 7.5
      vertex -5.27959e-16 1 10
      vertex -5.25755e-16 0.976621 9.78503
    endloop
  endfacet
  facet normal 1 -4.43579e-18 3.32607e-17
    outer loop
      vertex -5.25755e-16 0.976621 9.78503
      vertex -5.19246e-16 0.907575 9.58011
      vertex -4.33681e-16 4.6 7.5
    endloop
  endfacet
  facet normal 1 6.55946e-18 5.27785e-17
    outer loop
      vertex -5.19246e-16 0.907575 9.58011
      vertex -5.08735e-16 0.796093 9.39483
      vertex -4.33681e-16 4.6 7.5
    endloop
  endfacet
  facet normal 1 1.68187e-17 7.33742e-17
    outer loop
      vertex -4.33681e-16 4.6 7.5
      vertex -5.08735e-16 0.796093 9.39483
      vertex -4.94715e-16 0.647386 9.23784
    endloop
  endfacet
  facet normal 1 1.87318e-16 4.30448e-17
    outer loop
      vertex -3.52898e-16 -0.856857 9.48445
      vertex -3.44338e-16 -0.947653 9.6807
      vertex 4.33681e-16 -4.6 7.5
    endloop
  endfacet
  facet normal 1 1.99226e-16 2.31007e-17
    outer loop
      vertex -3.44338e-16 -0.947653 9.6807
      vertex -3.39955e-16 -0.994138 9.89188
      vertex 4.33681e-16 -4.6 7.5
    endloop
  endfacet
  facet normal 1 2.1455e-16 0
    outer loop
      vertex 4.33681e-16 -4.6 7.5
      vertex -3.39955e-16 -0.994138 9.89188
      vertex 4.33681e-16 -4.6 12.5
    endloop
  endfacet
  facet normal 1 2.19459e-16 6.78721e-18
    outer loop
      vertex -3.39955e-16 -0.994138 9.89188
      vertex -3.39402e-16 -1 10
      vertex 4.33681e-16 -4.6 12.5
    endloop
  endfacet
  facet normal 1 2.06286e-16 -1.21815e-17
    outer loop
      vertex 4.33681e-16 -4.6 12.5
      vertex -3.39402e-16 -1 10
      vertex -3.41607e-16 -0.976621 10.215
    endloop
  endfacet
  facet normal 1 6.26331e-17 1.93028e-16
    outer loop
      vertex -4.58903e-16 0.267528 9.03645
      vertex -4.38785e-16 0.0541389 9.00147
      vertex -4.33681e-16 4.6 7.5
    endloop
  endfacet
  facet normal 1 8.70457e-17 2.6694e-16
    outer loop
      vertex -4.38785e-16 0.0541389 9.00147
      vertex -4.33681e-16 1.55413e-16 9
      vertex -4.33681e-16 4.6 7.5
    endloop
  endfacet
  facet normal 1 9.42784e-17 2.89121e-16
    outer loop
      vertex -4.33681e-16 4.6 7.5
      vertex -4.33681e-16 1.55413e-16 9
      vertex 4.33681e-16 -4.6 7.5
    endloop
  endfacet
  facet normal 1 1.13117e-16 2.3135e-16
    outer loop
      vertex -4.33681e-16 1.55413e-16 9
      vertex -4.18428e-16 -0.161782 9.01317
      vertex 4.33681e-16 -4.6 7.5
    endloop
  endfacet
  facet normal 1 1.38137e-16 1.57964e-16
    outer loop
      vertex 4.33681e-16 -4.6 7.5
      vertex -4.18428e-16 -0.161782 9.01317
      vertex -3.98785e-16 -0.370138 9.07102
    endloop
  endfacet
  facet normal 1 2.47637e-17 9.14445e-17
    outer loop
      vertex -4.94715e-16 0.647386 9.23784
      vertex -4.86589e-16 0.561187 9.17231
      vertex -4.33681e-16 4.6 7.5
    endloop
  endfacet
  facet normal 1 3.0672e-17 1.05714e-16
    outer loop
      vertex -4.86589e-16 0.561187 9.17231
      vertex -4.77842e-16 0.468408 9.11649
      vertex -4.33681e-16 4.6 7.5
    endloop
  endfacet
  facet normal 1 4.13175e-17 1.32923e-16
    outer loop
      vertex -4.33681e-16 4.6 7.5
      vertex -4.77842e-16 0.468408 9.11649
      vertex -4.58903e-16 0.267528 9.03645
    endloop
  endfacet
  facet normal 0 -1 0
    outer loop
      vertex 4.33681e-16 -4.6 7.5
      vertex 4.33681e-16 -4.6 12.5
      vertex -3 -4.6 7.5
    endloop
  endfacet
  facet normal 0 -1 0
    outer loop
      vertex 4.33681e-16 -4.6 12.5
      vertex -3 -4.6 12.5
      vertex -3 -4.6 7.5
    endloop
  endfacet
  facet normal -1 0 0
    outer loop
      vertex -3 -4.6 7.5
      vertex -3 -1.70909 9.6238
      vertex -3 -1.65839 9.44122
    endloop
  endfacet
  facet normal -1 0 0
    outer loop
      vertex -3 -1.65839 9.44122
      vertex -3 -1.58826 9.26519
      vertex -3 -4.6 7.5
    endloop
  endfacet
  facet normal -1 0 0
    outer loop
      vertex -3 -1.58826 9.26519
      vertex -3 -1.4995 9.09778
      vertex -3 -4.6 7.5
    endloop
  endfacet
  facet normal -1 0 0
    outer loop
      vertex -3 -4.6 7.5
      vertex -3 -1.4995 9.09778
      vertex -3 -1.39316 8.94095
    endloop
  endfacet
  facet normal -1 0 0
    outer loop
      vertex -3 -1.39316 8.94095
      vertex -3 -1.27049 8.79653
      vertex -3 -4.6 7.5
    endloop
  endfacet
  facet normal -1 0 0
    outer loop
      vertex -3 -1.27049 8.79653
      vertex -3 -1.13293 8.66622
      vertex -3 -4.6 7.5
    endloop
  endfacet
  facet normal -1 0 0
    outer loop
      vertex -3 -4.6 7.5
      vertex -3 -1.13293 8.66622
      vertex -3 -0.982077 8.55154
    endloop
  endfacet
  facet normal -1 0 0
    outer loop
      vertex -3 -0.982077 8.55154
      vertex -3 -0.819715 8.45385
      vertex -3 -4.6 7.5
    endloop
  endfacet
  facet normal -1 0 0
    outer loop
      vertex -3 -0.819715 8.45385
      vertex -3 -0.647742 8.37429
      vertex -3 -4.6 7.5
    endloop
  endfacet
  facet normal -1 0 0
    outer loop
      vertex -3 -4.6 7.5
      vertex -3 -0.647742 8.37429
      vertex -3 -0.468175 8.31379
    endloop
  endfacet
  facet normal -1 0 0
    outer loop
      vertex -3 4.6 7.5
      vertex -3 0.283118 8.27305
      vertex -3 0.468175 8.31379
    endloop
  endfacet
  facet normal -1 0 0
    outer loop
      vertex -3 4.6 12.5
      vertex -3 1.13293 11.3338
      vertex -3 0.982077 11.4485
    endloop
  endfacet
  facet normal -1 0 0
    outer loop
      vertex -3 0.982077 11.4485
      vertex -3 0.819715 11.5461
      vertex -3 4.6 12.5
    endloop
  endfacet
  facet normal -1 0 0
    outer loop
      vertex -3 0.819715 11.5461
      vertex -3 0.647742 11.6257
      vertex -3 4.6 12.5
    endloop
  endfacet
  facet normal -1 0 0
    outer loop
      vertex -3 4.6 12.5
      vertex -3 0.647742 11.6257
      vertex -3 0.468175 11.6862
    endloop
  endfacet
  facet normal -1 0 0
    outer loop
      vertex -3 -1.4995 10.9022
      vertex -3 -1.58826 10.7348
      vertex -3 -4.6 12.5
    endloop
  endfacet
  facet normal -1 0 0
    outer loop
      vertex -3 -1.58826 10.7348
      vertex -3 -1.65839 10.5588
      vertex -3 -4.6 12.5
    endloop
  endfacet
  facet normal -1 0 0
    outer loop
      vertex -3 -4.6 12.5
      vertex -3 -1.65839 10.5588
      vertex -3 -1.70909 10.3762
    endloop
  endfacet
  facet normal -1 0 0
    outer loop
      vertex -3 -1.70909 10.3762
      vertex -3 -1.73974 10.1892
      vertex -3 -4.6 12.5
    endloop
  endfacet
  facet normal -1 0 0
    outer loop
      vertex -3 -1.73974 10.1892
      vertex -3 -1.75 10
      vertex -3 -4.6 12.5
    endloop
  endfacet
  facet normal -1 0 0
    outer loop
      vertex -3 -4.6 12.5
      vertex -3 -1.75 10
      vertex -3 -4.6 7.5
    endloop
  endfacet
  facet normal -1 0 0
    outer loop
      vertex -3 -1.75 10
      vertex -3 -1.73974 9.81079
      vertex -3 -4.6 7.5
    endloop
  endfacet
  facet normal -1 0 0
    outer loop
      vertex -3 -4.6 7.5
      vertex -3 -1.73974 9.81079
      vertex -3 -1.70909 9.6238
    endloop
  endfacet
  facet normal -1 0 0
    outer loop
      vertex -3 0.468175 8.31379
      vertex -3 0.647742 8.37429
      vertex -3 4.6 7.5
    endloop
  endfacet
  facet normal -1 0 0
    outer loop
      vertex -3 0.647742 8.37429
      vertex -3 0.819715 8.45385
      vertex -3 4.6 7.5
    endloop
  endfacet
  facet normal -1 0 0
    outer loop
      vertex -3 4.6 7.5
      vertex -3 0.819715 8.45385
      vertex -3 0.982077 8.55154
    endloop
  endfacet
  facet normal -1 0 0
    outer loop
      vertex -3 -1.13293 11.3338
      vertex -3 -4.6 12.5
      vertex -3 -0.982077 11.4485
    endloop
  endfacet
  facet normal -1 0 0
    outer loop
      vertex -3 -4.6 12.5
      vertex -3 -0.819715 11.5461
      vertex -3 -0.982077 11.4485
    endloop
  endfacet
  facet normal -1 0 0
    outer loop
      vertex -3 -1.13293 11.3338
      vertex -3 -1.27049 11.2035
      vertex -3 -4.6 12.5
    endloop
  endfacet
  facet normal -1 0 0
    outer loop
      vertex -3 -1.27049 11.2035
      vertex -3 -1.39316 11.0591
      vertex -3 -4.6 12.5
    endloop
  endfacet
  facet normal -1 0 0
    outer loop
      vertex -3 -4.6 12.5
      vertex -3 -1.39316 11.0591
      vertex -3 -1.4995 10.9022
    endloop
  endfacet
  facet normal -1 0 0
    outer loop
      vertex -3 -0.468175 8.31379
      vertex -3 -0.283118 8.27305
      vertex -3 -4.6 7.5
    endloop
  endfacet
  facet normal -1 0 0
    outer loop
      vertex -3 -0.283118 8.27305
      vertex -3 -0.0947431 8.25257
      vertex -3 -4.6 7.5
    endloop
  endfacet
  facet normal -1 0 0
    outer loop
      vertex -3 -4.6 7.5
      vertex -3 -0.0947431 8.25257
      vertex -3 4.6 7.5
    endloop
  endfacet
  facet normal -1 0 0
    outer loop
      vertex -3 -0.0947431 8.25257
      vertex -3 0.0947431 8.25257
      vertex -3 4.6 7.5
    endloop
  endfacet
  facet normal -1 0 0
    outer loop
      vertex -3 4.6 7.5
      vertex -3 0.0947431 8.25257
      vertex -3 0.283118 8.27305
    endloop
  endfacet
  facet normal -1 0 0
    outer loop
      vertex -3 4.6 7.5
      vertex -3 1.39316 8.94095
      vertex -3 1.4995 9.09778
    endloop
  endfacet
  facet normal -1 0 0
    outer loop
      vertex -3 -0.283118 11.7269
      vertex -3 -0.468175 11.6862
      vertex -3 -4.6 12.5
    endloop
  endfacet
  facet normal -1 0 0
    outer loop
      vertex -3 -0.468175 11.6862
      vertex -3 -0.647742 11.6257
      vertex -3 -4.6 12.5
    endloop
  endfacet
  facet normal -1 0 0
    outer loop
      vertex -3 -4.6 12.5
      vertex -3 -0.647742 11.6257
      vertex -3 -0.819715 11.5461
    endloop
  endfacet
  facet normal -1 0 0
    outer loop
      vertex -3 0.982077 8.55154
      vertex -3 1.13293 8.66622
      vertex -3 4.6 7.5
    endloop
  endfacet
  facet normal -1 0 0
    outer loop
      vertex -3 1.13293 8.66622
      vertex -3 1.27049 8.79653
      vertex -3 4.6 7.5
    endloop
  endfacet
  facet normal -1 0 0
    outer loop
      vertex -3 4.6 7.5
      vertex -3 1.27049 8.79653
      vertex -3 1.39316 8.94095
    endloop
  endfacet
  facet normal -1 0 0
    outer loop
      vertex -3 0.468175 11.6862
      vertex -3 0.283118 11.7269
      vertex -3 4.6 12.5
    endloop
  endfacet
  facet normal -1 0 0
    outer loop
      vertex -3 0.283118 11.7269
      vertex -3 0.0947431 11.7474
      vertex -3 4.6 12.5
    endloop
  endfacet
  facet normal -1 0 0
    outer loop
      vertex -3 4.6 12.5
      vertex -3 0.0947431 11.7474
      vertex -3 -4.6 12.5
    endloop
  endfacet
  facet normal -1 0 0
    outer loop
      vertex -3 0.0947431 11.7474
      vertex -3 -0.0947431 11.7474
      vertex -3 -4.6 12.5
    endloop
  endfacet
  facet normal -1 0 0
    outer loop
      vertex -3 -4.6 12.5
      vertex -3 -0.0947431 11.7474
      vertex -3 -0.283118 11.7269
    endloop
  endfacet
  facet normal -1 0 0
    outer loop
      vertex -3 1.4995 9.09778
      vertex -3 1.58826 9.26519
      vertex -3 4.6 7.5
    endloop
  endfacet
  facet normal -1 0 0
    outer loop
      vertex -3 1.58826 9.26519
      vertex -3 1.65839 9.44122
      vertex -3 4.6 7.5
    endloop
  endfacet
  facet normal -1 0 0
    outer loop
      vertex -3 4.6 7.5
      vertex -3 1.65839 9.44122
      vertex -3 1.70909 9.6238
    endloop
  endfacet
  facet normal -1 0 0
    outer loop
      vertex -3 1.70909 9.6238
      vertex -3 1.73974 9.81079
      vertex -3 4.6 7.5
    endloop
  endfacet
  facet normal -1 0 0
    outer loop
      vertex -3 1.73974 9.81079
      vertex -3 1.75 10
      vertex -3 4.6 7.5
    endloop
  endfacet
  facet normal -1 0 0
    outer loop
      vertex -3 4.6 7.5
      vertex -3 1.75 10
      vertex -3 4.6 12.5
    endloop
  endfacet
  facet normal -1 0 0
    outer loop
      vertex -3 1.75 10
      vertex -3 1.73974 10.1892
      vertex -3 4.6 12.5
    endloop
  endfacet
  facet normal -1 0 0
    outer loop
      vertex -3 4.6 12.5
      vertex -3 1.73974 10.1892
      vertex -3 1.70909 10.3762
    endloop
  endfacet
  facet normal -1 0 0
    outer loop
      vertex -3 1.70909 10.3762
      vertex -3 1.65839 10.5588
      vertex -3 4.6 12.5
    endloop
  endfacet
  facet normal -1 0 0
    outer loop
      vertex -3 1.65839 10.5588
      vertex -3 1.58826 10.7348
      vertex -3 4.6 12.5
    endloop
  endfacet
  facet normal -1 0 0
    outer loop
      vertex -3 4.6 12.5
      vertex -3 1.58826 10.7348
      vertex -3 1.4995 10.9022
    endloop
  endfacet
  facet normal -1 0 0
    outer loop
      vertex -3 1.4995 10.9022
      vertex -3 1.39316 11.0591
      vertex -3 4.6 12.5
    endloop
  endfacet
  facet normal -1 0 0
    outer loop
      vertex -3 1.39316 11.0591
      vertex -3 1.27049 11.2035
      vertex -3 4.6 12.5
    endloop
  endfacet
  facet normal -1 0 0
    outer loop
      vertex -3 4.6 12.5
      vertex -3 1.27049 11.2035
      vertex -3 1.13293 11.3338
    endloop
  endfacet
  facet normal 0 1 0
    outer loop
      vertex -3 4.6 7.5
      vertex -3 4.6 12.5
      vertex -4.33681e-16 4.6 7.5
    endloop
  endfacet
  facet normal 0 1 0
    outer loop
      vertex -3 4.6 12.5
      vertex -4.33681e-16 4.6 12.5
      vertex -4.33681e-16 4.6 7.5
    endloop
  endfacet
  facet normal 0 0 1
    outer loop
      vertex -3 -4.6 12.5
      vertex 4.33681e-16 -4.6 12.5
      vertex -3 4.6 12.5
    endloop
  endfacet
  facet normal 0 0 1
    outer loop
      vertex 4.33681e-16 -4.6 12.5
      vertex -4.33681e-16 4.6 12.5
      vertex -3 4.6 12.5
    endloop
  endfacet
  facet normal 0 0 -1
    outer loop
      vertex 4.33681e-16 -4.6 7.5
      vertex -3 -4.6 7.5
      vertex -4.33681e-16 4.6 7.5
    endloop
  endfacet
  facet normal 0 0 -1
    outer loop
      vertex -3 -4.6 7.5
      vertex -3 4.6 7.5
      vertex -4.33681e-16 4.6 7.5
    endloop
  endfacet
  facet normal 0 1 0
    outer loop
      vertex 3 -2.7 12.5
      vertex 3 -2.7 7.5
      vertex -4.33681e-16 -2.7 12.5
    endloop
  endfacet
  facet normal 0 1 0
    outer loop
      vertex 3 -2.7 7.5
      vertex -4.33681e-16 -2.7 7.5
      vertex -4.33681e-16 -2.7 12.5
    endloop
  endfacet
  facet normal 0 0 -1
    outer loop
      vertex -4.33681e-16 -2.7 7.5
      vertex 3 -2.7 7.5
      vertex 4.33681e-16 -4.6 7.5
    endloop
  endfacet
  facet normal 0 0 -1
    outer loop
      vertex 3 -2.7 7.5
      vertex 3 -4.6 7.5
      vertex 4.33681e-16 -4.6 7.5
    endloop
  endfacet
  facet normal 1 0 0
    outer loop
      vertex 3 -2.7 12.5
      vertex 3 -4.6 12.5
      vertex 3 -2.7 7.5
    endloop
  endfacet
  facet normal 1 0 0
    outer loop
      vertex 3 -4.6 12.5
      vertex 3 -4.6 7.5
      vertex 3 -2.7 7.5
    endloop
  endfacet
  facet normal 0 0 1
    outer loop
      vertex 4.33681e-16 -4.6 12.5
      vertex 3 -4.6 12.5
      vertex -4.33681e-16 -2.7 12.5
    endloop
  endfacet
  facet normal 0 0 1
    outer loop
      vertex 3 -4.6 12.5
      vertex 3 -2.7 12.5
      vertex -4.33681e-16 -2.7 12.5
    endloop
  endfacet
  facet normal -1 -4.56506e-16 0
    outer loop
      vertex 4.33681e-16 -4.6 12.5
      vertex -4.33681e-16 -2.7 12.5
      vertex 4.33681e-16 -4.6 7.5
    endloop
  endfacet
  facet normal -1 -4.56506e-16 0
    outer loop
      vertex -4.33681e-16 -2.7 12.5
      vertex -4.33681e-16 -2.7 7.5
      vertex 4.33681e-16 -4.6 7.5
    endloop
  endfacet
  facet normal 0 -1 0
    outer loop
      vertex 4.33681e-16 -4.6 7.5
      vertex 3 -4.6 7.5
      vertex 4.33681e-16 -4.6 12.5
    endloop
  endfacet
  facet normal 0 -1 0
    outer loop
      vertex 3 -4.6 7.5
      vertex 3 -4.6 12.5
      vertex 4.33681e-16 -4.6 12.5
    endloop
  endfacet
endsolid Mesh
